<svg width="14" height="14" viewBox="0 0 14 14" fill="none" xmlns="http://www.w3.org/2000/svg">
<path d="M0.333252 7.00002C0.333252 3.31807 3.31797 0.333351 6.99992 0.333351C10.6819 0.333351 13.6666 3.31807 13.6666 7.00002C13.6666 10.682 10.6819 13.6667 6.99992 13.6667C3.31797 13.6667 0.333252 10.682 0.333252 7.00002ZM6.84603 4.42696C6.51659 4.10557 5.98909 4.11196 5.6677 4.44169C5.34631 4.77085 5.35242 5.29863 5.68214 5.62002L7.09853 7.00196L5.68631 8.38002C5.35659 8.70169 5.35047 9.22974 5.67186 9.55835C5.99325 9.88807 6.52075 9.89446 6.8502 9.57308L8.87381 7.59863C9.03464 7.44196 9.1252 7.22669 9.1252 7.00224C9.1252 6.7778 9.03464 6.56252 8.87381 6.40585L6.84603 4.42696Z" fill="#98DBDC"/>
</svg>
