<svg width="17" height="17" viewBox="0 0 17 17" fill="none" xmlns="http://www.w3.org/2000/svg">
<path d="M16.5 7.99384H1.707L8.85352 0.847356C8.9446 0.753055 8.995 0.626754 8.99386 0.495656C8.99272 0.364557 8.94013 0.239151 8.84743 0.146447C8.75473 0.0537427 8.62932 0.00115811 8.49822 1.89013e-05C8.36712 -0.00112031 8.24082 0.0492769 8.14652 0.140356L0.146521 8.14036C0.100087 8.18677 0.0632528 8.24188 0.0381222 8.30254C0.0129915 8.36319 5.72205e-05 8.4282 5.72205e-05 8.49386C5.72205e-05 8.55951 0.0129915 8.62452 0.0381222 8.68518C0.0632528 8.74583 0.100087 8.80094 0.146521 8.84736L8.14652 16.8474C8.24082 16.9384 8.36712 16.9888 8.49822 16.9877C8.62932 16.9866 8.75473 16.934 8.84743 16.8413C8.94013 16.7486 8.99272 16.6232 8.99386 16.4921C8.995 16.361 8.9446 16.2347 8.85352 16.1404L1.707 8.99384H16.5C16.6326 8.99384 16.7598 8.94116 16.8536 8.84739C16.9473 8.75362 17 8.62644 17 8.49384C17 8.36123 16.9473 8.23405 16.8536 8.14028C16.7598 8.04651 16.6326 7.99384 16.5 7.99384Z" fill="white"/>
</svg>
