<svg width="18" height="18" viewBox="0 0 18 18" fill="none" xmlns="http://www.w3.org/2000/svg">
<path d="M16.5 9C16.5 13.1419 13.1419 16.5 9 16.5C4.85812 16.5 1.5 13.1419 1.5 9C1.5 4.85812 4.85812 1.5 9 1.5C13.1419 1.5 16.5 4.85812 16.5 9Z" fill="black"/>
<path d="M4.5 7.87461C4.5 7.71036 4.55362 7.54498 4.66425 7.40661C4.923 7.08336 5.39475 7.03086 5.71837 7.28961L8.99962 9.91461L12.2809 7.28961C12.6045 7.03086 13.0763 7.08336 13.335 7.40661C13.5941 7.73023 13.5412 8.20198 13.218 8.46073L9.468 11.4607C9.19425 11.6797 8.80463 11.6797 8.53087 11.4607L4.78087 8.46073C4.59637 8.31261 4.5 8.09436 4.5 7.87461Z" fill="white"/>
<path opacity="0.05" d="M4.125 7.87427C4.125 7.62789 4.20562 7.37964 4.37137 7.17227C4.7595 6.68702 5.4675 6.60864 5.95275 6.99639L9 9.43427L12.0473 6.99639C12.5325 6.60827 13.2405 6.68702 13.6286 7.17227C14.0168 7.65789 13.9376 8.36552 13.4528 8.75364L9.70275 11.7536C9.29175 12.0821 8.70825 12.0821 8.29725 11.7536L4.54725 8.75364C4.26938 8.53127 4.125 8.20427 4.125 7.87427Z" fill="black"/>
<path opacity="0.07" d="M4.3125 7.87422C4.3125 7.66872 4.37963 7.46209 4.518 7.28922C4.84163 6.88497 5.4315 6.81934 5.83575 7.14297L9 9.67459L12.1643 7.14297C12.5685 6.81934 13.1584 6.88497 13.482 7.28922C13.8056 7.69384 13.7396 8.28334 13.3358 8.60697L9.58575 11.607C9.24338 11.8807 8.757 11.8807 8.41425 11.607L4.66425 8.60697C4.43287 8.42172 4.3125 8.14947 4.3125 7.87422Z" fill="black"/>
</svg>
