<svg width="26" height="26" viewBox="0 0 26 26" fill="none" xmlns="http://www.w3.org/2000/svg">
<path d="M14.625 2.11255V10.5625H16.25H17.4688L13.8125 15.0313L10.1562 10.5625H13V6.50005H5.28125L4.67188 3.9813C4.46875 3.08755 3.61562 2.43755 2.68125 2.43755H0.40625L0.8125 4.06255H2.68125C2.88437 4.06255 3.04688 4.18442 3.0875 4.38755L5.97187 16.6563C6.13438 17.3875 6.78438 17.9157 7.55625 17.9157H20.4344C21.2469 17.9157 21.8969 17.3469 22.0188 16.575L23.9688 6.50005H16.25V2.11255H14.625ZM8.53125 19.5C7.39375 19.5 6.5 20.3938 6.5 21.5313C6.5 22.6688 7.39375 23.5625 8.53125 23.5625C9.66875 23.5625 10.5625 22.6688 10.5625 21.5313C10.5625 20.3938 9.66875 19.5 8.53125 19.5ZM19.0938 19.5C17.9562 19.5 17.0625 20.3938 17.0625 21.5313C17.0625 22.6688 17.9562 23.5625 19.0938 23.5625C20.2313 23.5625 21.125 22.6688 21.125 21.5313C21.125 20.3938 20.2313 19.5 19.0938 19.5Z" fill="white"/>
</svg>
