<svg width="60" height="60" viewBox="0 0 60 60" fill="none" xmlns="http://www.w3.org/2000/svg">
<g opacity="0.5">
<path d="M30 2.39999C14.7714 2.39999 2.39999 14.7714 2.39999 30C2.39999 45.2286 14.7714 57.6 30 57.6C45.2286 57.6 57.6 45.2286 57.6 30C57.6 14.7714 45.2286 2.39999 30 2.39999ZM30 4.79999C43.9314 4.79999 55.2 16.0686 55.2 30C55.2 43.9314 43.9314 55.2 30 55.2C16.0686 55.2 4.79999 43.9314 4.79999 30C4.79999 16.0686 16.0686 4.79999 30 4.79999ZM39.5883 19.1836C39.2718 19.1911 38.971 19.3233 38.7516 19.5516L30 28.3031L21.2484 19.5516C21.1366 19.4366 21.0029 19.3452 20.8551 19.2828C20.7074 19.2204 20.5486 19.1883 20.3883 19.1883C20.1496 19.1883 19.9163 19.2596 19.7183 19.3929C19.5203 19.5263 19.3665 19.7156 19.2767 19.9368C19.1869 20.158 19.165 20.4009 19.214 20.6346C19.263 20.8682 19.3805 21.0819 19.5516 21.2484L28.3031 30L19.5516 38.7516C19.4364 38.8621 19.3444 38.9946 19.2811 39.1411C19.2178 39.2877 19.1843 39.4454 19.1827 39.6051C19.181 39.7647 19.2113 39.9231 19.2716 40.0709C19.332 40.2187 19.4212 40.353 19.5341 40.4659C19.647 40.5788 19.7813 40.668 19.9291 40.7284C20.0769 40.7887 20.2353 40.819 20.3949 40.8173C20.5546 40.8157 20.7123 40.7822 20.8589 40.7189C21.0054 40.6556 21.1379 40.5636 21.2484 40.4484L30 31.6969L38.7516 40.4484C38.8621 40.5636 38.9946 40.6556 39.1411 40.7189C39.2877 40.7822 39.4454 40.8157 39.6051 40.8173C39.7647 40.819 39.9231 40.7887 40.0709 40.7284C40.2187 40.668 40.353 40.5788 40.4659 40.4659C40.5788 40.353 40.668 40.2187 40.7284 40.0709C40.7887 39.9231 40.819 39.7647 40.8173 39.6051C40.8157 39.4454 40.7822 39.2877 40.7189 39.1411C40.6556 38.9946 40.5636 38.8621 40.4484 38.7516L31.6969 30L40.4484 21.2484C40.6227 21.0809 40.7423 20.8645 40.7915 20.6278C40.8408 20.3911 40.8174 20.1451 40.7244 19.9219C40.6315 19.6987 40.4732 19.5088 40.2705 19.3771C40.0678 19.2453 39.83 19.1779 39.5883 19.1836Z" fill="white"/>
</g>
</svg>
