<svg width="20" height="20" viewBox="0 0 20 20" fill="none" xmlns="http://www.w3.org/2000/svg">
<path d="M4.50004 0.145836C3.83162 0.146321 3.19072 0.412065 2.71808 0.884707C2.24544 1.35735 1.97969 1.99825 1.97921 2.66667V4.72917H0.833374C0.651038 4.72917 0.476169 4.8016 0.347238 4.93053C0.218307 5.05947 0.145874 5.23433 0.145874 5.41667C0.145874 5.59901 0.218307 5.77387 0.347238 5.90281C0.476169 6.03174 0.651038 6.10417 0.833374 6.10417H1.97921V9.3125H0.833374C0.651038 9.3125 0.476169 9.38494 0.347238 9.51387C0.218307 9.6428 0.145874 9.81767 0.145874 10C0.145874 10.1823 0.218307 10.3572 0.347238 10.4861C0.476169 10.6151 0.651038 10.6875 0.833374 10.6875H1.97921V13.8958H0.833374C0.651038 13.8958 0.476169 13.9683 0.347238 14.0972C0.218307 14.2261 0.145874 14.401 0.145874 14.5833C0.145874 14.7657 0.218307 14.9405 0.347238 15.0695C0.476169 15.1984 0.651038 15.2708 0.833374 15.2708H1.97921V17.3333C1.97969 18.0018 2.24544 18.6427 2.71808 19.1153C3.19072 19.5879 3.83162 19.8537 4.50004 19.8542H17.3334C18.0018 19.8537 18.6427 19.5879 19.1153 19.1153C19.588 18.6427 19.8537 18.0018 19.8542 17.3333V2.66667C19.8537 1.99825 19.588 1.35735 19.1153 0.884707C18.6427 0.412065 18.0018 0.146321 17.3334 0.145836H4.50004ZM11.0385 3.7946C11.7391 3.81951 12.4155 4.05809 12.9767 4.47834C13.5379 4.89859 13.9572 5.48041 14.1784 6.14576C14.3995 6.81111 14.4119 7.52817 14.2139 8.20076C14.0159 8.87335 13.6169 9.46931 13.0705 9.9087C13.736 10.2855 14.29 10.8316 14.6765 11.4915C15.0629 12.1515 15.268 12.9019 15.2709 13.6667V14.5833C15.2709 14.7657 15.1984 14.9405 15.0695 15.0695C14.9406 15.1984 14.7657 15.2708 14.5834 15.2708C14.401 15.2708 14.2262 15.1984 14.0972 15.0695C13.9683 14.9405 13.8959 14.7657 13.8959 14.5833V13.6667C13.8959 12.8765 13.582 12.1188 13.0233 11.5601C12.4646 11.0014 11.7068 10.6875 10.9167 10.6875C10.1266 10.6875 9.36882 11.0014 8.81012 11.5601C8.25142 12.1188 7.93754 12.8765 7.93754 13.6667V14.5833C7.93754 14.7657 7.86511 14.9405 7.73618 15.0695C7.60725 15.1984 7.43238 15.2708 7.25004 15.2708C7.06771 15.2708 6.89284 15.1984 6.76391 15.0695C6.63497 14.9405 6.56254 14.7657 6.56254 14.5833V13.6667C6.56547 12.9019 6.77053 12.1515 7.15695 11.4915C7.54337 10.8316 8.09741 10.2855 8.7629 9.9087C8.20034 9.45628 7.79449 8.83824 7.6029 8.14221C7.41132 7.44619 7.44373 6.70751 7.69554 6.03094C7.94735 5.35436 8.40577 4.77424 9.00579 4.37284C9.60582 3.97143 10.317 3.76912 11.0385 3.7946ZM10.9167 5.1875C10.3697 5.1875 9.84509 5.4048 9.4583 5.7916C9.07151 6.17839 8.85421 6.70299 8.85421 7.25C8.85421 7.79701 9.07151 8.32162 9.4583 8.70841C9.84509 9.09521 10.3697 9.3125 10.9167 9.3125C11.4637 9.3125 11.9883 9.09521 12.3751 8.70841C12.7619 8.32162 12.9792 7.79701 12.9792 7.25C12.9792 6.70299 12.7619 6.17839 12.3751 5.7916C11.9883 5.4048 11.4637 5.1875 10.9167 5.1875Z" fill="white"/>
</svg>
