<svg width="20" height="20" viewBox="0 0 20 20" fill="none" xmlns="http://www.w3.org/2000/svg">
<path fill-rule="evenodd" clip-rule="evenodd" d="M19.75 6.75H0.25V17C0.25 17.729 0.54 18.429 1.055 18.945C1.571 19.46 2.271 19.75 3 19.75C6.463 19.75 13.537 19.75 17 19.75C17.729 19.75 18.429 19.46 18.945 18.945C19.46 18.429 19.75 17.729 19.75 17V6.75ZM16.75 15C16.75 13.669 16.75 11.331 16.75 10C16.75 9.536 16.566 9.091 16.237 8.763C15.909 8.434 15.464 8.25 15 8.25H13C12.536 8.25 12.091 8.434 11.763 8.763C11.434 9.091 11.25 9.536 11.25 10C11.25 11.331 11.25 13.669 11.25 15C11.25 15.464 11.434 15.909 11.763 16.237C12.091 16.566 12.536 16.75 13 16.75H15C15.464 16.75 15.909 16.566 16.237 16.237C16.566 15.909 16.75 15.464 16.75 15ZM4 16.25H9C9.414 16.25 9.75 15.914 9.75 15.5C9.75 15.086 9.414 14.75 9 14.75H4C3.586 14.75 3.25 15.086 3.25 15.5C3.25 15.914 3.586 16.25 4 16.25ZM4 13.25H9C9.414 13.25 9.75 12.914 9.75 12.5C9.75 12.086 9.414 11.75 9 11.75H4C3.586 11.75 3.25 12.086 3.25 12.5C3.25 12.914 3.586 13.25 4 13.25ZM4 10.25H6.5C6.914 10.25 7.25 9.914 7.25 9.5C7.25 9.086 6.914 8.75 6.5 8.75H4C3.586 8.75 3.25 9.086 3.25 9.5C3.25 9.914 3.586 10.25 4 10.25ZM0.25 5.25H19.75V3C19.75 2.271 19.46 1.571 18.945 1.055C18.429 0.54 17.729 0.25 17 0.25C13.537 0.25 6.463 0.25 3 0.25C2.271 0.25 1.571 0.54 1.055 1.055C0.54 1.571 0.25 2.271 0.25 3V5.25ZM4 2.5C4.552 2.5 5 2.948 5 3.5C5 4.052 4.552 4.5 4 4.5C3.448 4.5 3 4.052 3 3.5C3 2.948 3.448 2.5 4 2.5ZM6.5 2.5C7.052 2.5 7.5 2.948 7.5 3.5C7.5 4.052 7.052 4.5 6.5 4.5C5.948 4.5 5.5 4.052 5.5 3.5C5.5 2.948 5.948 2.5 6.5 2.5ZM9 2.5C9.552 2.5 10 2.948 10 3.5C10 4.052 9.552 4.5 9 4.5C8.448 4.5 8 4.052 8 3.5C8 2.948 8.448 2.5 9 2.5Z" fill="white"/>
</svg>
