<svg width="25" height="25" viewBox="0 0 25 25" fill="none" xmlns="http://www.w3.org/2000/svg">
<path d="M19.7917 3.125H5.20833C4.05937 3.125 3.125 4.05937 3.125 5.20833V19.7917C3.125 20.9406 4.05937 21.875 5.20833 21.875H19.7917C20.9406 21.875 21.875 20.9406 21.875 19.7917V5.20833C21.875 4.05937 20.9406 3.125 19.7917 3.125ZM8.85417 17.7083H7.8125C7.525 17.7083 7.29167 17.475 7.29167 17.1875V16.1458C7.29167 15.8583 7.525 15.625 7.8125 15.625H8.85417C9.14167 15.625 9.375 15.8583 9.375 16.1458V17.1875C9.375 17.475 9.14167 17.7083 8.85417 17.7083ZM8.85417 13.5417H7.8125C7.525 13.5417 7.29167 13.3083 7.29167 13.0208V11.9792C7.29167 11.6917 7.525 11.4583 7.8125 11.4583H8.85417C9.14167 11.4583 9.375 11.6917 9.375 11.9792V13.0208C9.375 13.3083 9.14167 13.5417 8.85417 13.5417ZM8.85417 9.375H7.8125C7.525 9.375 7.29167 9.14167 7.29167 8.85417V7.8125C7.29167 7.525 7.525 7.29167 7.8125 7.29167H8.85417C9.14167 7.29167 9.375 7.525 9.375 7.8125V8.85417C9.375 9.14167 9.14167 9.375 8.85417 9.375ZM13.0208 17.7083H11.9792C11.6917 17.7083 11.4583 17.475 11.4583 17.1875V16.1458C11.4583 15.8583 11.6917 15.625 11.9792 15.625H13.0208C13.3083 15.625 13.5417 15.8583 13.5417 16.1458V17.1875C13.5417 17.475 13.3083 17.7083 13.0208 17.7083ZM13.0208 13.5417H11.9792C11.6917 13.5417 11.4583 13.3083 11.4583 13.0208V11.9792C11.4583 11.6917 11.6917 11.4583 11.9792 11.4583H13.0208C13.3083 11.4583 13.5417 11.6917 13.5417 11.9792V13.0208C13.5417 13.3083 13.3083 13.5417 13.0208 13.5417ZM13.0208 9.375H11.9792C11.6917 9.375 11.4583 9.14167 11.4583 8.85417V7.8125C11.4583 7.525 11.6917 7.29167 11.9792 7.29167H13.0208C13.3083 7.29167 13.5417 7.525 13.5417 7.8125V8.85417C13.5417 9.14167 13.3083 9.375 13.0208 9.375ZM17.1875 17.7083H16.1458C15.8583 17.7083 15.625 17.475 15.625 17.1875V16.1458C15.625 15.8583 15.8583 15.625 16.1458 15.625H17.1875C17.475 15.625 17.7083 15.8583 17.7083 16.1458V17.1875C17.7083 17.475 17.475 17.7083 17.1875 17.7083ZM17.1875 13.5417H16.1458C15.8583 13.5417 15.625 13.3083 15.625 13.0208V11.9792C15.625 11.6917 15.8583 11.4583 16.1458 11.4583H17.1875C17.475 11.4583 17.7083 11.6917 17.7083 11.9792V13.0208C17.7083 13.3083 17.475 13.5417 17.1875 13.5417ZM17.1875 9.375H16.1458C15.8583 9.375 15.625 9.14167 15.625 8.85417V7.8125C15.625 7.525 15.8583 7.29167 16.1458 7.29167H17.1875C17.475 7.29167 17.7083 7.525 17.7083 7.8125V8.85417C17.7083 9.14167 17.475 9.375 17.1875 9.375Z" fill="white"/>
</svg>
