<svg width="24" height="24" viewBox="0 0 24 24" fill="none" xmlns="http://www.w3.org/2000/svg">
<g opacity="0.3">
<path d="M18.25 3.5H5.75C4.234 3.5 3 4.734 3 6.25V18.75C3 20.266 4.234 21.5 5.75 21.5H18.25C19.766 21.5 21 20.266 21 18.75V6.25C21 4.734 19.766 3.5 18.25 3.5ZM7.25 17.25C6.6975 17.25 6.25 16.802 6.25 16.25C6.25 15.6975 6.6975 15.25 7.25 15.25C7.8025 15.25 8.25 15.6975 8.25 16.25C8.25 16.802 7.8025 17.25 7.25 17.25ZM7.25 13.75C6.6975 13.75 6.25 13.302 6.25 12.75C6.25 12.1975 6.6975 11.75 7.25 11.75C7.8025 11.75 8.25 12.1975 8.25 12.75C8.25 13.302 7.8025 13.75 7.25 13.75ZM7.25 10.25C6.6975 10.25 6.25 9.802 6.25 9.25C6.25 8.6975 6.6975 8.25 7.25 8.25C7.8025 8.25 8.25 8.6975 8.25 9.25C8.25 9.802 7.8025 10.25 7.25 10.25ZM17.25 17H10.25C9.836 17 9.5 16.664 9.5 16.25C9.5 15.836 9.836 15.5 10.25 15.5H17.25C17.664 15.5 18 15.836 18 16.25C18 16.664 17.664 17 17.25 17ZM17.25 13.5H10.25C9.836 13.5 9.5 13.164 9.5 12.75C9.5 12.336 9.836 12 10.25 12H17.25C17.664 12 18 12.336 18 12.75C18 13.164 17.664 13.5 17.25 13.5ZM17.25 10H10.25C9.836 10 9.5 9.664 9.5 9.25C9.5 8.836 9.836 8.5 10.25 8.5H17.25C17.664 8.5 18 8.836 18 9.25C18 9.664 17.664 10 17.25 10Z" fill="white"/>
</g>
</svg>
