<svg width="21" height="21" viewBox="0 0 21 21" fill="none" xmlns="http://www.w3.org/2000/svg">
<path d="M9.41767 0.444524C4.60707 0.627087 0.627086 4.60707 0.444523 9.41767C0.24543 14.6681 4.37949 19 9.55664 19.1222C9.67811 19.1244 9.78125 19.024 9.78125 18.9018V10.1406C9.78125 9.94226 9.94225 9.78125 10.1406 9.78125H18.9018C19.024 9.78125 19.1251 9.67883 19.1222 9.55665C19 4.38021 14.6681 0.244712 9.41767 0.444524ZM4.75 6.1875H6.1875V6.90625H6.90625C7.10463 6.90625 7.26563 7.06726 7.26563 7.26563V7.98438C7.26563 8.18275 7.10463 8.34375 6.90625 8.34375H5.10938C4.91172 8.34375 4.75 8.50476 4.75 8.70313C4.75 8.90151 4.91172 9.0625 5.10938 9.0625H5.74952C6.6343 9.0625 7.44527 9.66678 7.59693 10.5379C7.7723 11.5427 7.10607 12.4329 6.1875 12.6198V13.375H4.75V12.6563H3.67188C3.4735 12.6563 3.3125 12.4953 3.3125 12.2969V11.5781C3.3125 11.3798 3.4735 11.2188 3.67188 11.2188H5.82813C6.02578 11.2188 6.1875 11.0578 6.1875 10.8594C6.1875 10.661 6.02578 10.5 5.82813 10.5H5.18799C4.30321 10.5 3.49224 9.89573 3.34058 9.0246C3.16521 8.01979 3.83144 7.12963 4.75 6.94275V6.1875ZM11.3619 11.2188C11.2829 11.2188 11.2188 11.2829 11.2188 11.3619V20.3393C11.2188 20.4608 11.3212 20.5619 11.4434 20.5597C16.4257 20.4418 20.4425 16.4257 20.5597 11.4434C20.5626 11.3212 20.4615 11.2188 20.3393 11.2188H11.3619Z" fill="white"/>
</svg>
