<svg width="26" height="26" viewBox="0 0 26 26" fill="none" xmlns="http://www.w3.org/2000/svg">
<path d="M6.91979 2.58815C6.8778 2.58906 6.83594 2.59302 6.79453 2.59999H5.19999C5.08515 2.59837 4.97113 2.61959 4.86456 2.66241C4.75798 2.70524 4.66099 2.76882 4.5792 2.84946C4.49741 2.93009 4.43247 3.02618 4.38814 3.13214C4.34381 3.2381 4.32098 3.35181 4.32098 3.46666C4.32098 3.58152 4.34381 3.69523 4.38814 3.80118C4.43247 3.90714 4.49741 4.00323 4.5792 4.08387C4.66099 4.16451 4.75798 4.22808 4.86456 4.27091C4.97113 4.31374 5.08515 4.33495 5.19999 4.33333H6.06666V6.06666C6.06666 10.0636 8.76388 12.1796 9.93619 13C8.76388 13.8204 6.06666 15.9364 6.06666 19.9333V21.6667H5.19999C5.08515 21.665 4.97113 21.6863 4.86456 21.7291C4.75798 21.7719 4.66099 21.8355 4.5792 21.9161C4.49741 21.9968 4.43247 22.0929 4.38814 22.1988C4.34381 22.3048 4.32098 22.4185 4.32098 22.5333C4.32098 22.6482 4.34381 22.7619 4.38814 22.8678C4.43247 22.9738 4.49741 23.0699 4.5792 23.1505C4.66099 23.2312 4.75798 23.2948 4.86456 23.3376C4.97113 23.3804 5.08515 23.4016 5.19999 23.4H6.78775C6.88135 23.4155 6.97684 23.4155 7.07044 23.4H18.9211C19.0147 23.4155 19.1102 23.4155 19.2038 23.4H20.8C20.9148 23.4016 21.0289 23.3804 21.1354 23.3376C21.242 23.2948 21.339 23.2312 21.4208 23.1505C21.5026 23.0699 21.5675 22.9738 21.6118 22.8678C21.6562 22.7619 21.679 22.6482 21.679 22.5333C21.679 22.4185 21.6562 22.3048 21.6118 22.1988C21.5675 22.0929 21.5026 21.9968 21.4208 21.9161C21.339 21.8355 21.242 21.7719 21.1354 21.7291C21.0289 21.6863 20.9148 21.665 20.8 21.6667H19.9333V19.9333C19.9333 15.9364 17.2361 13.8204 16.0638 13C17.2361 12.1796 19.9333 10.0636 19.9333 6.06666V4.33333H20.8C20.9148 4.33495 21.0289 4.31374 21.1354 4.27091C21.242 4.22808 21.339 4.16451 21.4208 4.08387C21.5026 4.00323 21.5675 3.90714 21.6118 3.80118C21.6562 3.69523 21.679 3.58152 21.679 3.46666C21.679 3.35181 21.6562 3.2381 21.6118 3.13214C21.5675 3.02618 21.5026 2.93009 21.4208 2.84946C21.339 2.76882 21.242 2.70524 21.1354 2.66241C21.0289 2.61959 20.9148 2.59837 20.8 2.59999H19.2004C19.1517 2.59186 19.1025 2.5879 19.0531 2.58815C19.0111 2.58906 18.9693 2.59302 18.9279 2.59999H7.06705C7.01839 2.59186 6.96912 2.5879 6.91979 2.58815ZM7.79999 6.06666H18.2C18.2 9.82222 14.2881 12.2569 14.2881 12.2569C14.1599 12.3339 14.0537 12.4428 13.98 12.5731C13.9063 12.7033 13.8676 12.8504 13.8676 13C13.8676 13.1496 13.9063 13.2967 13.98 13.4269C14.0537 13.5571 14.1599 13.6661 14.2881 13.7431C14.2881 13.7431 18.2 16.1778 18.2 19.9333H16.4667C16.4667 18.0189 14.9145 16.4667 13 16.4667C11.0855 16.4667 9.53333 18.0189 9.53333 19.9333H7.79999C7.79999 16.1778 11.7118 13.7431 11.7118 13.7431C11.8401 13.6661 11.9463 13.5571 12.02 13.4269C12.0937 13.2967 12.1324 13.1496 12.1324 13C12.1324 12.8504 12.0937 12.7033 12.02 12.5731C11.9463 12.4428 11.8401 12.3339 11.7118 12.2569C11.7118 12.2569 7.79999 9.82222 7.79999 6.06666ZM10.8333 8.66666C10.8333 9.86353 11.8031 10.8333 13 10.8333C14.1969 10.8333 15.1667 9.86353 15.1667 8.66666H10.8333Z" fill="white"/>
</svg>
