<svg width="24" height="24" viewBox="0 0 24 24" fill="none" xmlns="http://www.w3.org/2000/svg">
<g clip-path="url(#clip0_313_1412)">
<path d="M6.88001 0.959999C4.67087 0.959999 2.88 2.75086 2.88 4.96V19.04C2.88 21.2491 4.67087 23.04 6.88 23.04H15.84C15.5513 23.04 15.36 23.2313 15.36 23.52C15.36 23.8088 15.5513 24 15.84 24H23.52C23.8088 24 24 23.8088 24 23.52C24 23.2313 23.8088 23.04 23.4731 23.04C23.2339 23.04 23.04 22.8461 23.04 22.6069V21.6C23.04 20.9288 22.7513 20.3044 22.1269 19.8244C21.7469 19.4948 21.7469 18.9052 22.1269 18.5756C22.7513 18.0956 23.04 17.4713 23.04 16.8V15.84C23.04 15.5749 23.2549 15.36 23.52 15.36C23.8088 15.36 24 15.1687 24 14.88C24 14.5912 23.8088 14.4 23.52 14.4C22.1945 14.4 21.12 13.3255 21.12 12V4.96C21.12 2.75086 19.3291 0.959999 17.12 0.959999H6.88001ZM6.72 5.76C6.72 5.4949 6.93491 5.28 7.2 5.28H16.8C17.0651 5.28 17.28 5.4949 17.28 5.76C17.28 6.0251 17.0651 6.24 16.8 6.24H7.2C6.93491 6.24 6.72 6.0251 6.72 5.76ZM6.72 12C6.72 11.7349 6.93491 11.52 7.2 11.52H8.16C8.4251 11.52 8.64 11.7349 8.64 12C8.64 12.2651 8.4251 12.48 8.16001 12.48H7.20001C6.93491 12.48 6.72 12.2651 6.72 12ZM10.08 12C10.08 11.7349 10.2949 11.52 10.56 11.52H16.8C17.0651 11.52 17.28 11.7349 17.28 12C17.28 12.2651 17.0651 12.48 16.8 12.48H10.56C10.2949 12.48 10.08 12.2651 10.08 12ZM6.72 14.88C6.72 14.6149 6.93491 14.4 7.2 14.4H8.16C8.4251 14.4 8.64 14.6149 8.64 14.88C8.64 15.1451 8.4251 15.36 8.16001 15.36H7.20001C6.93491 15.36 6.72 15.1451 6.72 14.88ZM10.08 14.88C10.08 14.6149 10.2949 14.4 10.56 14.4H15.84C15.5513 14.4 15.36 14.5912 15.36 14.88C15.36 15.1687 15.5513 15.36 15.84 15.36H10.56C10.2949 15.36 10.08 15.1451 10.08 14.88ZM17.28 16.8C17.28 16.0047 17.9247 15.36 18.72 15.36H20.64C21.4353 15.36 22.08 16.0047 22.08 16.8C22.08 17.1844 21.9356 17.52 21.5531 17.8556L20.4 18.8156C20.2556 18.9112 20.2069 19.0556 20.2069 19.2C20.2069 19.4744 20.5063 19.6286 20.7128 19.8093L21.5531 20.5444C21.9356 20.88 22.08 21.1688 22.08 21.6V22.56C22.08 22.8251 21.8651 23.04 21.6 23.04C21.3349 23.04 21.1203 22.8187 21.0175 22.5743C20.8918 22.2756 20.667 21.9929 20.4371 21.7576C20.0176 21.3281 19.3424 21.3281 18.9229 21.7576C18.693 21.9929 18.4682 22.2756 18.3425 22.5743C18.2397 22.8187 18.0251 23.04 17.76 23.04C17.4949 23.04 17.28 22.8251 17.28 22.56V21.6C17.28 21.1688 17.4713 20.88 17.8556 20.5444L19.0069 19.5844C19.1513 19.4888 19.2 19.3444 19.2 19.2C19.2 18.9256 18.9007 18.7713 18.6943 18.5905L17.8556 17.8556C17.4713 17.52 17.28 17.1844 17.28 16.8ZM19.68 16.8C18.8847 16.8 18.3231 17.5311 19.0035 17.9428C19.0887 17.9943 19.173 18.0385 19.2518 18.0759C19.5238 18.2049 19.8362 18.2049 20.1083 18.0759C20.187 18.0385 20.2713 17.9943 20.3565 17.9428C21.0369 17.5311 20.4753 16.8 19.68 16.8ZM6.72 17.76C6.72 17.4949 6.93491 17.28 7.2 17.28H8.16C8.4251 17.28 8.64 17.4949 8.64 17.76C8.64 18.0251 8.4251 18.24 8.16001 18.24H7.20001C6.93491 18.24 6.72 18.0251 6.72 17.76ZM10.08 17.76C10.08 17.4949 10.2949 17.28 10.56 17.28H16.0896C16.26 17.28 16.4033 17.3914 16.4659 17.5499C16.5822 17.8442 16.4004 18.24 16.084 18.24H10.56C10.2949 18.24 10.08 18.0251 10.08 17.76Z" fill="url(#paint0_linear_313_1412)"/>
</g>
<defs>
<linearGradient id="paint0_linear_313_1412" x1="13.44" y1="-10.56" x2="35.6889" y2="8.17127" gradientUnits="userSpaceOnUse">
<stop stop-color="#269E65"/>
<stop offset="1" stop-color="#127143"/>
</linearGradient>
<clipPath id="clip0_313_1412">
<rect width="24" height="24" fill="white"/>
</clipPath>
</defs>
</svg>
