<svg width="16" height="16" viewBox="0 0 16 16" fill="none" xmlns="http://www.w3.org/2000/svg">
<path d="M14.6803 8.04069C14.6803 11.7224 11.6953 14.7074 8.01367 14.7074C4.332 14.7074 1.347 11.7224 1.347 8.04069C1.347 4.35902 4.332 1.37402 8.01367 1.37402C11.6953 1.37402 14.6803 4.35902 14.6803 8.04069Z" fill="url(#paint0_linear_64_2874)"/>
<path opacity="0.05" d="M7.33333 11.9999H8.66667C8.85067 11.9999 9 11.8506 9 11.6666V6.66659C9 6.48259 8.85067 6.33325 8.66667 6.33325H7.33333C7.14933 6.33325 7 6.48259 7 6.66659V11.6666C7 11.8506 7.14933 11.9999 7.33333 11.9999Z" fill="black"/>
<path opacity="0.07" d="M7.409 11.8333H8.59134C8.72501 11.8333 8.83367 11.725 8.83367 11.591V6.74233C8.83367 6.60867 8.72534 6.5 8.59134 6.5H7.409C7.27534 6.5 7.16667 6.60833 7.16667 6.74233V11.5913C7.16667 11.725 7.275 11.8333 7.409 11.8333Z" fill="black"/>
<path opacity="0.15" d="M8 6.33691C8.73417 6.33691 9.32934 5.79831 9.32934 5.13391C9.32934 4.46951 8.73417 3.93091 8 3.93091C7.26583 3.93091 6.67067 4.46951 6.67067 5.13391C6.67067 5.79831 7.26583 6.33691 8 6.33691Z" fill="url(#paint1_radial_64_2874)"/>
<path d="M8 5.91059C8.56667 5.91059 8.88334 5.55459 8.88334 5.11459C8.88334 4.67459 8.549 4.33325 8 4.33325C7.451 4.33325 7.11667 4.67459 7.11667 5.11459C7.11667 5.55459 7.43334 5.91059 8 5.91059Z" fill="white"/>
<path d="M8.66666 6.66675H7.33333V11.6667H8.66666V6.66675Z" fill="white"/>
<defs>
<linearGradient id="paint0_linear_64_2874" x1="3.29967" y1="3.32669" x2="12.7277" y2="12.7547" gradientUnits="userSpaceOnUse">
<stop stop-color="#33BEF0"/>
<stop offset="1" stop-color="#0A85D9"/>
</linearGradient>
<radialGradient id="paint1_radial_64_2874" cx="0" cy="0" r="1" gradientUnits="userSpaceOnUse" gradientTransform="translate(7.99974 5.13377) scale(1.32944 1.2031)">
<stop offset="0.516"/>
<stop offset="1" stop-opacity="0"/>
</radialGradient>
</defs>
</svg>
