<svg width="26" height="26" viewBox="0 0 26 26" fill="none" xmlns="http://www.w3.org/2000/svg">
<path d="M17.3333 3.25C15.5458 3.25 14.0833 4.7125 14.0833 6.5C14.0833 7.90833 14.9933 9.10034 16.25 9.55534V14.0833H20.5833V11.9167H18.4166V9.55534C19.6733 9.10034 20.5833 7.90833 20.5833 6.5C20.5833 4.7125 19.1208 3.25 17.3333 3.25ZM17.3333 5.41667C17.9291 5.41667 18.4166 5.90417 18.4166 6.5C18.4166 7.09583 17.9291 7.58333 17.3333 7.58333C16.7375 7.58333 16.25 7.09583 16.25 6.5C16.25 5.90417 16.7375 5.41667 17.3333 5.41667ZM6.49998 11.9167L1.08331 13.1164V20.9176L5.41665 19.5L15.3613 22.9806L24.3348 18.1818L23.0589 15.4565L15.2576 19.0345L14.8556 18.5055L16.0934 15.793L6.49998 11.9167Z" fill="white"/>
</svg>
