<svg width="131" height="104" viewBox="0 0 131 104" fill="none" xmlns="http://www.w3.org/2000/svg">
<g filter="url(#filter0_d_147_4235)">
<path d="M64.2861 27.89L74.5163 50H69.1717L67.4994 45.9056H58.8103L57.1381 50H51.7934L62.0236 27.89H64.2861ZM63.1713 35.3255L60.417 42.0404H65.9256L63.1713 35.3255Z" fill="url(#paint0_linear_147_4235)"/>
<path d="M64.2861 75.9433L74.5163 53.8333H69.1717L67.4994 57.9278H58.8103L57.1381 53.8333H51.7934L62.0236 75.9433H64.2861ZM63.1713 68.5078L60.417 61.7929H65.9256L63.1713 68.5078Z" fill="url(#paint1_linear_147_4235)"/>
<path d="M22.4883 34.0902V50H18.1086V42.2791L14.8999 45.9056H13.5884L10.3797 42.2791V50H6V34.0902H7.54578L14.2441 40.8752L20.9425 34.0902H22.4883Z" fill="url(#paint2_linear_147_4235)"/>
<path d="M35.8747 40.4307V43.7063H29.6448V46.2565H36.6944V50H25.2651V34.3241H36.6944V37.9506H29.6448V40.4307H35.8747Z" fill="url(#paint3_linear_147_4235)"/>
<path d="M51.3222 34.3241V38.1846H46.7083V49.9298H42.3286V38.1846H37.7147V34.3241H51.3222Z" fill="url(#paint4_linear_147_4235)"/>
<path d="M82.2223 34.3241V40.5243H87.8433V34.3241H92.223V50H87.8433V44.3848H82.2223V50H77.8426V34.3241H82.2223Z" fill="url(#paint5_linear_147_4235)"/>
<path d="M108.959 34.2773V43.7998C108.959 45.1569 108.638 46.3267 107.998 47.3094C107.358 48.292 106.499 49.0485 105.422 49.5789C104.36 50.0936 103.174 50.351 101.862 50.351C100.566 50.351 99.3795 50.0936 98.3021 49.5789C97.2247 49.0485 96.366 48.292 95.7258 47.3094C95.0856 46.3267 94.7655 45.1569 94.7655 43.7998V34.2773H99.1452V43.4957C99.1452 44.3068 99.3638 44.9775 99.801 45.5078C100.238 46.0225 100.925 46.2721 101.862 46.2565C102.799 46.2409 103.486 45.9835 103.923 45.4844C104.36 44.9697 104.579 44.3068 104.579 43.4957V34.2773H108.959Z" fill="url(#paint6_linear_147_4235)"/>
<path d="M117.801 33.9498C119.097 33.9498 120.222 34.1448 121.174 34.5347C122.142 34.9091 122.892 35.4394 123.422 36.1257C123.969 36.812 124.242 37.6075 124.242 38.5122C124.242 39.3077 124.047 39.994 123.657 40.5711C123.282 41.1482 122.79 41.6083 122.181 41.9515C122.665 42.1231 123.118 42.3492 123.539 42.63C123.961 42.8952 124.297 43.2461 124.547 43.6829C124.812 44.1196 124.945 44.6889 124.945 45.3908C124.945 46.2643 124.664 47.0832 124.102 47.8475C123.539 48.5962 122.767 49.2045 121.783 49.6724C120.799 50.1248 119.675 50.351 118.41 50.351C117.692 50.351 116.888 50.312 115.998 50.234C115.108 50.1716 114.257 50.0858 113.445 49.9766C112.649 49.8674 112.001 49.7582 111.501 49.649V34.5581C112.454 34.3709 113.461 34.2227 114.522 34.1136C115.584 34.0044 116.677 33.9498 117.801 33.9498ZM117.965 37.9038C117.169 37.9038 116.474 37.9662 115.881 38.091V40.7817H118.082C118.598 40.7817 119.035 40.6569 119.394 40.4073C119.753 40.1577 119.933 39.7912 119.933 39.3077C119.933 38.8865 119.745 38.5512 119.371 38.3016C119.011 38.0364 118.543 37.9038 117.965 37.9038ZM115.881 46.2097C116.209 46.3189 116.599 46.3969 117.052 46.4437C117.505 46.4749 117.856 46.4905 118.106 46.4905C118.746 46.4905 119.261 46.3657 119.652 46.1161C120.058 45.8666 120.261 45.5 120.261 45.0165C120.261 44.5485 120.034 44.2132 119.581 44.0104C119.129 43.8076 118.582 43.7063 117.942 43.7063H115.881V46.2097Z" fill="url(#paint7_linear_147_4235)"/>
<path d="M16.0611 60.4977V64.3582H10.487V69.6458H6.10727V53.97H17.2322V57.8304H10.487V60.4977H16.0611Z" fill="url(#paint8_linear_147_4235)"/>
<path d="M29.4588 65.7854V69.6458H19.786V65.7854H22.4325V57.8304H19.786V53.97H29.4588V57.8304H26.8122V65.7854H29.4588Z" fill="url(#paint9_linear_147_4235)"/>
<path d="M46.8146 53.97V69.8798H45.2688L36.8607 61.9483V69.6458H32.481V53.736H34.0268L42.4349 61.8079V53.97H46.8146Z" fill="url(#paint10_linear_147_4235)"/>
<path d="M92.1433 53.97V69.8798H90.5976L82.1895 61.9483V69.6458H77.8098V53.736H79.3556L87.7636 61.8079V53.97H92.1433Z" fill="url(#paint11_linear_147_4235)"/>
<path d="M104.941 53.619C105.769 53.619 106.534 53.736 107.237 53.97C107.939 54.2039 108.556 54.5471 109.087 54.9994V59.2343C108.462 58.7351 107.869 58.3608 107.307 58.1112C106.745 57.846 106.011 57.7135 105.105 57.7135C104.403 57.7135 103.747 57.8928 103.138 58.2516C102.545 58.6103 102.061 59.1017 101.686 59.7256C101.311 60.3339 101.124 61.028 101.124 61.8079C101.124 62.5878 101.311 63.2897 101.686 63.9136C102.061 64.5219 102.545 65.0055 103.138 65.3642C103.747 65.723 104.403 65.9023 105.105 65.9023C106.011 65.9023 106.745 65.7776 107.307 65.528C107.869 65.2628 108.462 64.8807 109.087 64.3815V68.6164C108.556 69.0687 107.939 69.4119 107.237 69.6458C106.534 69.8798 105.769 69.9968 104.941 69.9968C103.88 69.9968 102.849 69.8174 101.85 69.4587C100.866 69.0843 99.9762 68.5462 99.1799 67.8443C98.3992 67.1424 97.7747 66.2845 97.3062 65.2706C96.8534 64.2568 96.627 63.1025 96.627 61.8079C96.627 60.5133 96.8534 59.359 97.3062 58.3452C97.7747 57.3313 98.3992 56.4734 99.1799 55.7715C99.9762 55.0696 100.866 54.5393 101.85 54.1805C102.849 53.8062 103.88 53.619 104.941 53.619Z" fill="url(#paint12_linear_147_4235)"/>
<path d="M124.18 60.0765V63.3521H117.95V65.9023H125V69.6458H113.571V53.97H125V57.5965H117.95V60.0765H124.18Z" fill="url(#paint13_linear_147_4235)"/>
<path d="M103.821 72.0417C96.0051 86.3179 80.8317 96 63.3947 96C45.9576 96 30.7843 86.3179 22.968 72.0417H26.6724C34.1664 84.4746 47.8084 92.7907 63.3947 92.7907C78.981 92.7907 92.623 84.4746 100.117 72.0417H103.821Z" fill="url(#paint14_linear_147_4235)"/>
<path d="M105.694 31.7917C98.6323 15.443 82.3512 4 63.3947 4C44.4382 4 28.1571 15.443 21.0956 31.7917H24.6203C31.4681 17.2645 46.2559 7.20928 63.3947 7.20928C80.5334 7.20928 95.3212 17.2645 102.169 31.7917H105.694Z" fill="url(#paint15_linear_147_4235)"/>
</g>
<defs>
<filter id="filter0_d_147_4235" x="0" y="0" width="131" height="104" filterUnits="userSpaceOnUse" color-interpolation-filters="sRGB">
<feFlood flood-opacity="0" result="BackgroundImageFix"/>
<feColorMatrix in="SourceAlpha" type="matrix" values="0 0 0 0 0 0 0 0 0 0 0 0 0 0 0 0 0 0 127 0" result="hardAlpha"/>
<feOffset dy="2"/>
<feGaussianBlur stdDeviation="3"/>
<feComposite in2="hardAlpha" operator="out"/>
<feColorMatrix type="matrix" values="0 0 0 0 0 0 0 0 0 0 0 0 0 0 0 0 0 0 0.25 0"/>
<feBlend mode="normal" in2="BackgroundImageFix" result="effect1_dropShadow_147_4235"/>
<feBlend mode="normal" in="SourceGraphic" in2="effect1_dropShadow_147_4235" result="shape"/>
</filter>
<linearGradient id="paint0_linear_147_4235" x1="65.5" y1="4" x2="65.5" y2="96" gradientUnits="userSpaceOnUse">
<stop offset="0.295139" stop-color="#FFCB9A"/>
<stop offset="1" stop-color="#F0DFCF"/>
</linearGradient>
<linearGradient id="paint1_linear_147_4235" x1="65.5" y1="4" x2="65.5" y2="96" gradientUnits="userSpaceOnUse">
<stop offset="0.295139" stop-color="#FFCB9A"/>
<stop offset="1" stop-color="#F0DFCF"/>
</linearGradient>
<linearGradient id="paint2_linear_147_4235" x1="65.5" y1="4" x2="65.5" y2="96" gradientUnits="userSpaceOnUse">
<stop offset="0.295139" stop-color="#FFCB9A"/>
<stop offset="1" stop-color="#F0DFCF"/>
</linearGradient>
<linearGradient id="paint3_linear_147_4235" x1="65.5" y1="4" x2="65.5" y2="96" gradientUnits="userSpaceOnUse">
<stop offset="0.295139" stop-color="#FFCB9A"/>
<stop offset="1" stop-color="#F0DFCF"/>
</linearGradient>
<linearGradient id="paint4_linear_147_4235" x1="65.5" y1="4" x2="65.5" y2="96" gradientUnits="userSpaceOnUse">
<stop offset="0.295139" stop-color="#FFCB9A"/>
<stop offset="1" stop-color="#F0DFCF"/>
</linearGradient>
<linearGradient id="paint5_linear_147_4235" x1="65.5" y1="4" x2="65.5" y2="96" gradientUnits="userSpaceOnUse">
<stop offset="0.295139" stop-color="#FFCB9A"/>
<stop offset="1" stop-color="#F0DFCF"/>
</linearGradient>
<linearGradient id="paint6_linear_147_4235" x1="65.5" y1="4" x2="65.5" y2="96" gradientUnits="userSpaceOnUse">
<stop offset="0.295139" stop-color="#FFCB9A"/>
<stop offset="1" stop-color="#F0DFCF"/>
</linearGradient>
<linearGradient id="paint7_linear_147_4235" x1="65.5" y1="4" x2="65.5" y2="96" gradientUnits="userSpaceOnUse">
<stop offset="0.295139" stop-color="#FFCB9A"/>
<stop offset="1" stop-color="#F0DFCF"/>
</linearGradient>
<linearGradient id="paint8_linear_147_4235" x1="65.5" y1="4" x2="65.5" y2="96" gradientUnits="userSpaceOnUse">
<stop offset="0.295139" stop-color="#FFCB9A"/>
<stop offset="1" stop-color="#F0DFCF"/>
</linearGradient>
<linearGradient id="paint9_linear_147_4235" x1="65.5" y1="4" x2="65.5" y2="96" gradientUnits="userSpaceOnUse">
<stop offset="0.295139" stop-color="#FFCB9A"/>
<stop offset="1" stop-color="#F0DFCF"/>
</linearGradient>
<linearGradient id="paint10_linear_147_4235" x1="65.5" y1="4" x2="65.5" y2="96" gradientUnits="userSpaceOnUse">
<stop offset="0.295139" stop-color="#FFCB9A"/>
<stop offset="1" stop-color="#F0DFCF"/>
</linearGradient>
<linearGradient id="paint11_linear_147_4235" x1="65.5" y1="4" x2="65.5" y2="96" gradientUnits="userSpaceOnUse">
<stop offset="0.295139" stop-color="#FFCB9A"/>
<stop offset="1" stop-color="#F0DFCF"/>
</linearGradient>
<linearGradient id="paint12_linear_147_4235" x1="65.5" y1="4" x2="65.5" y2="96" gradientUnits="userSpaceOnUse">
<stop offset="0.295139" stop-color="#FFCB9A"/>
<stop offset="1" stop-color="#F0DFCF"/>
</linearGradient>
<linearGradient id="paint13_linear_147_4235" x1="65.5" y1="4" x2="65.5" y2="96" gradientUnits="userSpaceOnUse">
<stop offset="0.295139" stop-color="#FFCB9A"/>
<stop offset="1" stop-color="#F0DFCF"/>
</linearGradient>
<linearGradient id="paint14_linear_147_4235" x1="65.5" y1="4" x2="65.5" y2="96" gradientUnits="userSpaceOnUse">
<stop offset="0.295139" stop-color="#FFCB9A"/>
<stop offset="1" stop-color="#F0DFCF"/>
</linearGradient>
<linearGradient id="paint15_linear_147_4235" x1="65.5" y1="4" x2="65.5" y2="96" gradientUnits="userSpaceOnUse">
<stop offset="0.295139" stop-color="#FFCB9A"/>
<stop offset="1" stop-color="#F0DFCF"/>
</linearGradient>
</defs>
</svg>
