<svg width="22" height="22" viewBox="0 0 22 22" fill="none" xmlns="http://www.w3.org/2000/svg">
<path d="M7.39998 0.600006C3.64478 0.600006 0.599976 3.64481 0.599976 7.40001C0.599976 10.7544 3.03058 13.5346 6.22498 14.0922C6.29618 12.9058 6.61061 11.786 7.12341 10.7828C5.78341 10.4924 4.95074 9.71483 4.65154 8.51563H3.85935V7.71876H4.53591C4.52631 7.61636 4.52029 7.51281 4.52029 7.40001C4.52029 7.31121 4.52486 7.22151 4.52966 7.13751H3.85935V6.34532H4.63904C5.00464 4.77012 6.26504 3.88438 8.38904 3.88438C8.74024 3.88438 9.09727 3.92224 9.31248 3.97344V5.35157C9.06847 5.30917 8.79214 5.29063 8.42654 5.29063C7.47054 5.29063 6.79059 5.66132 6.45779 6.34532H8.94685V7.13751H6.24685C6.23725 7.22151 6.23123 7.31132 6.23123 7.39532C6.23123 7.50812 6.23638 7.61556 6.24998 7.71876H8.94529V8.40001C10.3213 7.14481 12.1114 6.34421 14.0906 6.22501C13.5338 3.03141 10.7544 0.600006 7.39998 0.600006ZM18.2 0.600006L15.8 3.00001L18.2 5.40001V3.80001H20.6V2.20001H18.2V0.600006ZM14.6 7.80001C10.8448 7.80001 7.79998 10.8448 7.79998 14.6C7.79998 18.3552 10.8448 21.4 14.6 21.4C18.3552 21.4 21.4 18.3552 21.4 14.6C21.4 10.8448 18.3552 7.80001 14.6 7.80001ZM6.49373 8.51563C6.76893 9.05083 7.28015 9.37036 7.95935 9.46876C8.22175 9.12956 8.50833 8.81083 8.81873 8.51563H6.49373ZM14.2 10.2H15V11.0281C16.3752 11.1641 17.3025 11.9769 17.3281 13.1297H15.7234C15.6858 12.6465 15.2268 12.3109 14.6156 12.3109C14.0044 12.3109 13.6031 12.6003 13.6031 13.0547C13.6031 13.4283 13.9058 13.6459 14.625 13.7875L15.5062 13.9578C16.855 14.2186 17.4609 14.8301 17.4609 15.9141C17.4609 17.2229 16.536 18.0462 15 18.1734V19H14.2V18.1766C12.7 18.0614 11.7654 17.2847 11.739 16.0703H13.3953C13.4377 16.5671 13.9355 16.8844 14.6547 16.8844C15.3035 16.8844 15.7484 16.5715 15.7484 16.1219C15.7484 15.7435 15.4495 15.5388 14.6687 15.3828L13.7703 15.2031C12.5207 14.9663 11.8765 14.2853 11.8765 13.2109C11.8765 11.9869 12.7816 11.1578 14.2 11.0266V10.2ZM3.79998 15.8V17.4H1.39998V19H3.79998V20.6L6.19998 18.2L3.79998 15.8Z" fill="white"/>
</svg>
