<svg width="28" height="28" viewBox="0 0 28 28" fill="none" xmlns="http://www.w3.org/2000/svg">
<path d="M5.25 10.5H22.75V20.5625C22.75 22.0124 21.5749 23.1875 20.125 23.1875H7.875C6.42513 23.1875 5.25 22.0124 5.25 20.5625V10.5ZM16.1875 13.5625C16.5498 13.5625 16.8438 13.2689 16.8438 12.9062C16.8438 12.5436 16.5498 12.25 16.1875 12.25H11.8125C11.4503 12.25 11.1562 12.5436 11.1562 12.9062C11.1562 13.2689 11.4503 13.5625 11.8125 13.5625H16.1875ZM23.625 8.33087C23.625 8.81431 23.2334 9.20587 22.75 9.20587H5.25C4.76656 9.20587 4.375 8.81431 4.375 8.33087V5.6875C4.375 5.20406 4.76656 4.8125 5.25 4.8125H22.75C23.2334 4.8125 23.625 5.20406 23.625 5.6875V8.33087Z" fill="white"/>
</svg>
