<svg width="21" height="22" viewBox="0 0 21 22" fill="none" xmlns="http://www.w3.org/2000/svg">
<path d="M20.076 12.4667H11.6573C11.144 12.4667 10.7333 12.8773 10.7333 13.3907V20.1593C10.7333 21.1787 11.5547 22 12.574 22H18.8C20.0173 22 21 21.0173 21 19.8V13.3907C21 12.8773 20.5893 12.4667 20.076 12.4667ZM17.7367 15.07H13.9967C13.74 15.07 13.5347 14.8573 13.5347 14.6007C13.5347 14.344 13.74 14.1313 13.9967 14.1313H17.7367C17.9933 14.1313 18.1987 14.344 18.1987 14.6007C18.1987 14.8573 17.9933 15.07 17.7367 15.07ZM20.2667 5.13334H15.8439V3.51047C15.7926 3.2758 15.6386 3.07047 15.4039 2.98247C15.1326 2.86514 14.8173 2.93114 14.6046 3.13647L12.4706 5.2778C12.2873 5.41714 12.1773 5.63714 12.1846 5.8718C12.1846 6.0918 12.2873 6.30447 12.4706 6.43647V6.4438L14.6046 8.5778C14.8173 8.78314 15.1326 8.84914 15.4039 8.7318C15.6386 8.6438 15.7926 8.43847 15.8439 8.2038V6.6H20.2667C20.6722 6.6 21 6.2722 21 5.86667C21 5.46114 20.6722 5.13334 20.2667 5.13334ZM5.60001 11C8.43801 11 10.7333 8.70467 10.7333 5.86667C10.7333 3.02867 8.43801 0.733337 5.60001 0.733337C2.76201 0.733337 0.466675 3.02867 0.466675 5.86667C0.466675 8.70467 2.76201 11 5.60001 11ZM4.86668 3.66667C4.86668 3.26334 5.19668 2.93334 5.60001 2.93334C6.00334 2.93334 6.33334 3.26334 6.33334 3.66667V8.06667C6.33334 8.47 6.00334 8.8 5.60001 8.8C5.19668 8.8 4.86668 8.47 4.86668 8.06667V3.66667ZM8.95794 16.2712L6.82394 14.1372C6.61128 13.9319 6.29594 13.8659 6.02461 13.9832C5.78994 14.0712 5.63594 14.2765 5.58461 14.5112V16.1333H1.20001C0.794475 16.1333 0.466675 16.4611 0.466675 16.8667C0.466675 17.2722 0.794475 17.6 1.20001 17.6H5.58461V19.2045C5.63594 19.4392 5.78994 19.6445 6.02461 19.7325C6.29594 19.8499 6.61128 19.7839 6.82394 19.5785L8.95794 17.4372C9.14128 17.2979 9.25128 17.0779 9.24394 16.8432C9.24394 16.6232 9.14128 16.4105 8.95794 16.2785V16.2712Z" fill="white"/>
</svg>
