<svg width="20" height="20" viewBox="0 0 20 20" fill="none" xmlns="http://www.w3.org/2000/svg">
<path d="M10.2588 1.61982C8.78755 1.58848 7.30998 1.94458 6.01928 2.64888C4.30428 3.59794 2.94996 5.15591 2.25402 6.9781C1.53902 8.79873 1.53846 10.8573 2.17346 12.6879C2.80221 14.5273 4.11927 16.103 5.78552 17.0739C7.44708 18.0549 9.45887 18.4281 11.3489 18.0828C13.2411 17.7575 15.0103 16.7506 16.2262 15.2728C17.4549 13.8065 18.1306 11.9021 18.1238 9.99995H16.8762C16.855 11.614 16.2626 13.2002 15.2148 14.4158C14.1767 15.6415 12.6872 16.4511 11.1188 16.6973C9.54471 16.962 7.89322 16.6229 6.5454 15.8001C5.19103 14.9842 4.13457 13.6785 3.65051 12.1807C3.15988 10.6929 3.18392 9.02035 3.78173 7.57441C4.36142 6.12285 5.46619 4.89326 6.83837 4.15889C8.21337 3.43764 9.84157 3.20998 11.3538 3.5406C12.7474 3.83857 14.022 4.61592 14.9463 5.69392L14.1846 6.81453L18.089 6.72297L16.7364 3.05903L16.0205 4.11311C14.8526 2.93712 13.3445 2.10347 11.7206 1.78157C11.2386 1.68368 10.7492 1.63027 10.2588 1.61982Z" fill="white"/>
</svg>
