<svg width="20" height="20" viewBox="0 0 20 20" fill="none" xmlns="http://www.w3.org/2000/svg">
<g filter="url(#filter0_d_125_1246)">
<path d="M8.40001 1.59998C4.43291 1.59998 1.20001 4.83287 1.20001 8.79998C1.20001 12.7671 4.43291 16 8.40001 16C9.84872 16 11.1969 15.5655 12.3281 14.825L17.3516 19.8484L19.0484 18.1515L14.0899 13.1929C15.0326 11.9753 15.6 10.4539 15.6 8.79998C15.6 4.83287 12.3671 1.59998 8.40001 1.59998ZM8.40001 3.19998C11.5025 3.19998 14 5.69748 14 8.79998C14 11.9025 11.5025 14.4 8.40001 14.4C5.29752 14.4 2.80001 11.9025 2.80001 8.79998C2.80001 5.69748 5.29752 3.19998 8.40001 3.19998Z" fill="white"/>
</g>
<defs>
<filter id="filter0_d_125_1246" x="-4.79999" y="-2.40002" width="29.8484" height="30.2484" filterUnits="userSpaceOnUse" color-interpolation-filters="sRGB">
<feFlood flood-opacity="0" result="BackgroundImageFix"/>
<feColorMatrix in="SourceAlpha" type="matrix" values="0 0 0 0 0 0 0 0 0 0 0 0 0 0 0 0 0 0 127 0" result="hardAlpha"/>
<feOffset dy="2"/>
<feGaussianBlur stdDeviation="3"/>
<feComposite in2="hardAlpha" operator="out"/>
<feColorMatrix type="matrix" values="0 0 0 0 0 0 0 0 0 0 0 0 0 0 0 0 0 0 0.25 0"/>
<feBlend mode="normal" in2="BackgroundImageFix" result="effect1_dropShadow_125_1246"/>
<feBlend mode="normal" in="SourceGraphic" in2="effect1_dropShadow_125_1246" result="shape"/>
</filter>
</defs>
</svg>
