<svg width="30" height="30" viewBox="0 0 30 30" fill="none" xmlns="http://www.w3.org/2000/svg">
<path d="M10.3125 5.625C8.82933 5.625 7.57407 6.61501 7.16949 7.96875H4.6875C4.17 7.96875 3.75 8.38875 3.75 8.90625C3.75 9.42375 4.17 9.84375 4.6875 9.84375H7.16949C7.57407 11.1975 8.82933 12.1875 10.3125 12.1875C11.7957 12.1875 13.0509 11.1975 13.4555 9.84375H25.3125C25.83 9.84375 26.25 9.42375 26.25 8.90625C26.25 8.38875 25.83 7.96875 25.3125 7.96875H13.4555C13.0509 6.61501 11.7957 5.625 10.3125 5.625ZM19.6875 11.7188C18.2043 11.7188 16.9491 12.7088 16.5445 14.0625H4.6875C4.17 14.0625 3.75 14.4825 3.75 15C3.75 15.5175 4.17 15.9375 4.6875 15.9375H16.5445C16.9491 17.2912 18.2043 18.2812 19.6875 18.2812C21.1707 18.2812 22.4259 17.2912 22.8305 15.9375H25.3125C25.83 15.9375 26.25 15.5175 26.25 15C26.25 14.4825 25.83 14.0625 25.3125 14.0625H22.8305C22.4259 12.7088 21.1707 11.7188 19.6875 11.7188ZM12.1875 17.8125C10.7043 17.8125 9.44907 18.8025 9.04449 20.1562H4.6875C4.17 20.1562 3.75 20.5763 3.75 21.0938C3.75 21.6112 4.17 22.0312 4.6875 22.0312H9.04449C9.44907 23.385 10.7043 24.375 12.1875 24.375C13.6707 24.375 14.9259 23.385 15.3305 22.0312H25.3125C25.83 22.0312 26.25 21.6112 26.25 21.0938C26.25 20.5763 25.83 20.1562 25.3125 20.1562H15.3305C14.9259 18.8025 13.6707 17.8125 12.1875 17.8125Z" fill="white"/>
</svg>
