<svg width="14" height="20" viewBox="0 0 14 20" fill="none" xmlns="http://www.w3.org/2000/svg">
<path d="M2 0C0.897 0 0 0.897 0 2V7C0 8.103 0.897 9 2 9H12C13.103 9 14 8.103 14 7V2C14 0.897 13.103 0 12 0H2ZM6 2H8C8.552 2 9 2.448 9 3C9 3.552 8.552 4 8 4H6C5.448 4 5 3.552 5 3C5 2.448 5.448 2 6 2ZM2 11C0.897 11 0 11.897 0 13V18C0 19.103 0.897 20 2 20H12C13.103 20 14 19.103 14 18V13C14 11.897 13.103 11 12 11H2ZM6 13H8C8.552 13 9 13.448 9 14C9 14.552 8.552 15 8 15H6C5.448 15 5 14.552 5 14C5 13.448 5.448 13 6 13Z" fill="white"/>
</svg>
