<svg width="20" height="22" viewBox="0 0 20 22" fill="none" xmlns="http://www.w3.org/2000/svg">
<path d="M19.5765 4.8611C19.5765 5.11523 19.4618 5.36905 19.2331 5.53607L14.9406 8.6711C14.3881 9.07447 13.6112 8.67937 13.6112 7.99543L13.6112 6.30554L6.56949 6.30554C5.67357 6.30554 4.94449 7.03463 4.94449 7.93054C4.94449 8.82646 5.67357 9.55554 6.56949 9.55554L13.4306 9.55554C15.9197 9.55554 17.9445 11.5803 17.9445 14.0694C17.9445 16.5586 15.9197 18.5833 13.4306 18.5833L6.38893 18.5833L6.38893 20.2732C6.38893 20.9575 5.61195 21.3526 5.05945 20.9489L0.767023 17.8138C0.309494 17.4798 0.309494 16.7979 0.767023 16.4639L5.05945 13.3289C5.61195 12.9255 6.38893 13.3206 6.38893 14.0045L6.38893 15.6944L13.4306 15.6944C14.3265 15.6944 15.0556 14.9653 15.0556 14.0694C15.0556 13.1735 14.3265 12.4444 13.4306 12.4444L6.56949 12.4444C4.08035 12.4444 2.0556 10.4197 2.0556 7.93054C2.0556 5.44141 4.08035 3.41666 6.56948 3.41666L13.6112 3.41665L13.6112 1.72677C13.6112 1.04246 14.3881 0.647373 14.9406 1.0511L19.2331 4.18613C19.4618 4.35315 19.5765 4.60697 19.5765 4.8611Z" fill="white"/>
</svg>
