<svg width="21" height="17" viewBox="0 0 21 17" fill="none" xmlns="http://www.w3.org/2000/svg">
<path d="M2.90186 5.56725C2.65029 5.56725 2.40923 5.45875 2.24254 5.26756L0.956731 3.79406C0.638668 3.43006 0.676293 2.87706 1.04029 2.55944C1.40517 2.24181 1.95773 2.27944 2.27492 2.64344L2.79729 3.24237L4.07392 1.26969C4.33598 0.864562 4.87804 0.748187 5.28404 1.01025C5.68961 1.27275 5.80554 1.81437 5.54304 2.22037L3.63642 5.16738C3.48723 5.39794 3.23873 5.54494 2.96486 5.56462C2.94386 5.56681 2.92286 5.56725 2.90186 5.56725ZM19.3125 5.1875H7.49998C7.01698 5.1875 6.62498 4.7955 6.62498 4.3125C6.62498 3.8295 7.01698 3.4375 7.49998 3.4375H19.3125C19.7955 3.4375 20.1875 3.8295 20.1875 4.3125C20.1875 4.7955 19.7955 5.1875 19.3125 5.1875ZM2.90186 11.2547C2.65029 11.2547 2.40923 11.1462 2.24254 10.9551L0.956731 9.48156C0.638668 9.11756 0.676293 8.56456 1.04029 8.24694C1.40517 7.92931 1.95773 7.9665 2.27492 8.33094L2.79729 8.92988L4.07392 6.95719C4.33598 6.55162 4.87804 6.43525 5.28404 6.69775C5.68961 6.96025 5.80554 7.50187 5.54304 7.90787L3.63642 10.8549C3.48723 11.0854 3.23873 11.2324 2.96486 11.2521C2.94386 11.2543 2.92286 11.2547 2.90186 11.2547ZM19.3125 10.875H7.49998C7.01698 10.875 6.62498 10.483 6.62498 10C6.62498 9.517 7.01698 9.125 7.49998 9.125H19.3125C19.7955 9.125 20.1875 9.517 20.1875 10C20.1875 10.483 19.7955 10.875 19.3125 10.875ZM3.56248 17H2.68748C2.20404 17 1.81248 16.6084 1.81248 16.125V15.25C1.81248 14.7666 2.20404 14.375 2.68748 14.375H3.56248C4.04592 14.375 4.43748 14.7666 4.43748 15.25V16.125C4.43748 16.6084 4.04592 17 3.56248 17ZM19.3125 16.5625H7.49998C7.01698 16.5625 6.62498 16.1705 6.62498 15.6875C6.62498 15.2045 7.01698 14.8125 7.49998 14.8125H19.3125C19.7955 14.8125 20.1875 15.2045 20.1875 15.6875C20.1875 16.1705 19.7955 16.5625 19.3125 16.5625Z" fill="white"/>
</svg>
