<svg width="22" height="22" viewBox="0 0 22 22" fill="none" xmlns="http://www.w3.org/2000/svg">
<path d="M5.0625 0C2.89181 0 1.125 1.76625 1.125 3.9375C1.125 6.10875 2.89181 7.875 5.0625 7.875C7.71075 7.875 10.683 4.8651 11.0138 4.52197C11.171 4.35885 11.25 4.14837 11.25 3.9375C11.25 3.72663 11.171 3.51643 11.0138 3.35303C10.683 3.0099 7.71075 0 5.0625 0ZM11.25 3.9375C11.25 6.10875 13.0168 7.875 15.1875 7.875C17.8358 7.875 20.808 4.8651 21.1388 4.52197C21.4532 4.19572 21.4532 3.67984 21.1388 3.35303C20.808 3.0099 17.8358 0 15.1875 0C13.0168 0 11.25 1.76625 11.25 3.9375ZM1.96875 9C0.883125 9 0 9.88313 0 10.9688V16.3125C0 19.4141 2.52338 21.9375 5.625 21.9375C7.05487 21.9375 8.35819 21.3973 9.35156 20.5148C8.43019 19.3605 7.875 17.901 7.875 16.3125V10.9688C7.875 10.2218 8.14203 9.5355 8.58472 9H1.96875ZM10.9688 9C9.88313 9 9 9.88313 9 10.9688V16.3125C9 19.4141 11.5234 21.9375 14.625 21.9375C17.7266 21.9375 20.25 19.4141 20.25 16.3125V10.9688C20.25 9.88313 19.3669 9 18.2812 9H10.9688Z" fill="#404040"/>
</svg>
