<svg width="25" height="23" viewBox="0 0 25 23" fill="none" xmlns="http://www.w3.org/2000/svg">
<path d="M10.3214 2.33986H9.82143H2.67857H0.892857C0.689222 2.33986 0.5 2.51302 0.5 2.75978C0.5 3.00655 0.689222 3.17971 0.892857 3.17971H1.78571H2.28571V3.67971V16.7258C2.28571 17.3779 2.80192 17.8986 3.43715 17.8986H5.27612L5.85285 16.9125L5.85328 16.9118L6.7169 17.4159L6.71648 17.4166L5.99678 18.6519L5.99669 18.6521L4.13096 21.8571L10.3214 2.33986ZM10.3214 2.33986V1.83986C10.3214 1.54276 10.4785 1.20439 10.7595 0.928771C11.0409 0.652716 11.3852 0.5 11.6769 0.5H13.3248C13.6164 0.5 13.9603 0.652627 14.2412 0.928554C14.5216 1.20403 14.6786 1.54245 14.6786 1.83986V2.33986H15.1786H22.3214H24.1071C24.3102 2.33986 24.5 2.51335 24.5 2.75978C24.5 3.00655 24.3108 3.17971 24.1071 3.17971H23.2143H22.7143V3.67971V16.7258C22.7143 17.3762 22.1909 17.8986 21.5628 17.8986H19.7238M10.3214 2.33986L19.7238 17.8986M19.7238 17.8986L19.1297 16.8838L19.1292 16.8829L18.2657 17.3872L18.2662 17.3881L19.0015 18.6502L19.0016 18.6503L20.869 21.8571C20.9896 22.0643 20.9189 22.326 20.7317 22.4416L20.7307 22.4422C20.6686 22.4807 20.6018 22.4982 20.5357 22.4982C20.4076 22.4982 20.2787 22.4322 20.2021 22.3008L17.7837 18.1472L17.7835 18.147L17.5481 17.7421L17.5465 17.7394L17.2707 17.8986H7.65206V18.0163L7.38391 17.8613L7.38231 17.864L7.2165 18.1487L7.21649 18.1488L4.79775 22.3028L4.79765 22.303C4.72181 22.4334 4.59301 22.5 4.46429 22.5C4.39714 22.5 4.32878 22.482 4.2676 22.444L4.26655 22.4434C4.08114 22.3289 4.00942 22.0663 4.13085 21.8573L19.7238 17.8986ZM7.45474 16.108L7.22484 17.0812C7.2264 17.0816 7.22793 17.082 7.22943 17.0823C7.30918 17.1013 7.32909 17.1111 7.33818 17.1167L7.96027 16.3434L7.95678 16.3398L7.91306 16.2948L7.85957 16.2619C7.70508 16.1671 7.54739 16.1299 7.46075 16.1094L7.45827 16.1088C7.45716 16.1086 7.45607 16.1083 7.45498 16.1081C7.4549 16.108 7.45482 16.108 7.45474 16.108ZM17.7668 17.0857L17.7542 17.0369L17.7549 17.0377L17.7573 17.0399L17.7607 17.0364L17.7525 17.0284L17.515 16.118C17.5141 16.1182 17.5132 16.1184 17.5123 16.1186C17.5075 16.1199 17.5018 16.1213 17.4955 16.1229C17.4274 16.1399 17.2786 16.1771 17.1404 16.2619L17.087 16.2948L17.0432 16.3398L17.0398 16.3434L17.6606 17.1175C17.6595 17.1182 17.66 17.1177 17.6633 17.1162C17.6662 17.115 17.6712 17.113 17.6789 17.1103C17.6988 17.1036 17.7212 17.0976 17.7668 17.0857ZM8.49518 17.1368L7.52362 17.3736C7.53634 17.4261 7.53951 17.4844 7.53163 17.5419L8.5222 17.6789C8.54736 17.4986 8.53877 17.3147 8.49518 17.1368ZM19.25 7.35943C19.25 6.59151 18.6383 5.9395 17.8571 5.9395C17.076 5.9395 16.4643 6.5915 16.4643 7.35943V13.7989C16.4643 14.5668 17.076 15.2189 17.8571 15.2189C18.6383 15.2189 19.25 14.5668 19.25 13.7989V7.35943ZM12.1071 8.27935C12.1071 7.51143 11.4955 6.85943 10.7143 6.85943C9.9331 6.85943 9.32143 7.51143 9.32143 8.27935V13.7989C9.32143 14.5668 9.9331 15.2189 10.7143 15.2189C11.4955 15.2189 12.1071 14.5668 12.1071 13.7989V8.27935ZM15.6786 9.19928C15.6786 8.43136 15.0669 7.77935 14.2857 7.77935C13.5045 7.77935 12.8929 8.43136 12.8929 9.19928V13.7989C12.8929 14.5668 13.5045 15.2189 14.2857 15.2189C15.0669 15.2189 15.6786 14.5668 15.6786 13.7989V9.19928ZM8.53571 11.9591C8.53571 11.1911 7.92404 10.5391 7.14286 10.5391C6.36167 10.5391 5.75 11.1911 5.75 11.9591V13.7989C5.75 14.5668 6.36167 15.2189 7.14286 15.2189C7.92404 15.2189 8.53571 14.5668 8.53571 13.7989V11.9591Z" fill="#202020" stroke="#404040"/>
</svg>
