<svg width="14" height="18" viewBox="0 0 14 18" fill="none" xmlns="http://www.w3.org/2000/svg">
<path d="M2.48389 0H11.5161C12.1747 0.000656116 12.806 0.240258 13.2717 0.666236C13.7374 1.09221 13.9993 1.66978 14 2.2722V16.5474C13.9998 16.8006 13.927 17.0493 13.7888 17.2686C13.6506 17.488 13.4519 17.6704 13.2126 17.7975C12.9732 17.9246 12.7016 17.9921 12.4248 17.9931C12.148 17.9941 11.8758 17.9287 11.6354 17.8033L7.11201 15.4427C7.07793 15.4248 7.03932 15.4154 7.00001 15.4154C6.96071 15.4154 6.9221 15.4248 6.88801 15.4427L2.36467 17.8074C2.12472 17.9345 1.85213 18.001 1.57484 18C1.29756 17.999 1.02556 17.9305 0.786736 17.8016C0.54634 17.6757 0.34683 17.4935 0.208607 17.2739C0.0703831 17.0542 -0.0015974 16.805 2.57492e-05 16.5515V2.2722C0.000742912 1.66978 0.262666 1.09221 0.728326 0.666236C1.19399 0.240258 1.82535 0.000656116 2.48389 0ZM5.19357 9.61759H6.3226V10.6504C6.3226 10.8148 6.39397 10.9724 6.52101 11.0886C6.64805 11.2048 6.82035 11.2701 7.00001 11.2701C7.17968 11.2701 7.35198 11.2048 7.47902 11.0886C7.60606 10.9724 7.67743 10.8148 7.67743 10.6504V9.61759H8.80646C8.98612 9.61759 9.15843 9.55231 9.28547 9.43609C9.41251 9.31988 9.48388 9.16226 9.48388 8.9979C9.48388 8.83355 9.41251 8.67593 9.28547 8.55972C9.15843 8.4435 8.98612 8.37821 8.80646 8.37821H7.67743V7.3454C7.67743 7.18105 7.60606 7.02342 7.47902 6.90721C7.35198 6.791 7.17968 6.72571 7.00001 6.72571C6.82035 6.72571 6.64805 6.791 6.52101 6.90721C6.39397 7.02342 6.3226 7.18105 6.3226 7.3454V8.37821H5.19357C5.0139 8.37821 4.8416 8.4435 4.71456 8.55972C4.58752 8.67593 4.51615 8.83355 4.51615 8.9979C4.51615 9.16226 4.58752 9.31988 4.71456 9.43609C4.8416 9.55231 5.0139 9.61759 5.19357 9.61759Z" fill="black"/>
</svg>
