<svg width="20" height="20" viewBox="0 0 20 20" fill="none" xmlns="http://www.w3.org/2000/svg">
<path d="M19.4644 9.05262L18.7651 8.63336C18.4674 8.45488 18.2659 8.16024 18.1751 7.8256C18.1736 7.81945 18.172 7.81329 18.1697 7.80714C18.0766 7.46942 18.1043 7.10939 18.2743 6.80245L18.6705 6.08931C19.0751 5.36003 18.5567 4.46227 17.7228 4.44842L16.8997 4.43457C16.5512 4.42842 16.2281 4.27379 15.9819 4.02762C15.9796 4.02531 15.9765 4.02223 15.9742 4.01992C15.7273 3.77375 15.5727 3.45065 15.5673 3.10216L15.5534 2.27902C15.5388 1.44357 14.6411 0.925071 13.9118 1.33049L13.1987 1.72667C12.8925 1.89668 12.5325 1.92438 12.194 1.83129C12.1879 1.82976 12.1817 1.82822 12.1756 1.82591C11.841 1.73436 11.5463 1.53358 11.3679 1.23586L10.9486 0.53658C10.5194 -0.17886 9.48315 -0.17886 9.0539 0.53658L8.63618 1.23279C8.45618 1.53281 8.15924 1.73513 7.8223 1.82745C7.81845 1.82822 7.81538 1.82976 7.81153 1.83053C7.47074 1.92438 7.10842 1.89668 6.79917 1.72513L6.08837 1.33049C5.3591 0.925071 4.46137 1.44357 4.44752 2.27748L4.43367 3.10062C4.42752 3.44911 4.2729 3.77221 4.02673 4.01839C4.02442 4.02069 4.02135 4.02377 4.01904 4.02608C3.77287 4.27302 3.44978 4.42765 3.1013 4.43303L2.27819 4.44688C1.44353 4.4615 0.925044 5.35926 1.33045 6.08855L1.72662 6.80168C1.89663 7.10862 1.92432 7.46788 1.83124 7.80637C1.8297 7.81252 1.82816 7.81868 1.82586 7.82483C1.73431 8.15947 1.53354 8.45411 1.23583 8.63259L0.536564 9.05185C-0.178855 9.48111 -0.178855 10.5181 0.536564 10.9466L1.23583 11.3666C1.53354 11.5451 1.73508 11.8398 1.82586 12.1744C1.8274 12.1806 1.82893 12.1867 1.83124 12.1929C1.92432 12.5313 1.89663 12.8906 1.72662 13.1976L1.33045 13.9122C0.925814 14.6415 1.4443 15.5393 2.27819 15.5531L3.1013 15.567C3.44978 15.5731 3.77287 15.7277 4.01904 15.9739C4.02135 15.9762 4.02442 15.9793 4.02673 15.9816C4.27367 16.2278 4.42829 16.5509 4.43367 16.8994L4.44752 17.7217C4.46137 18.5557 5.3591 19.0742 6.08837 18.6695L6.80148 18.2733C7.10765 18.1033 7.46767 18.0756 7.80614 18.1687C7.8123 18.1702 7.81845 18.1718 7.82461 18.1741C8.15924 18.2656 8.45387 18.4664 8.63234 18.7641L9.05159 19.4634C9.48084 20.1789 10.517 20.1789 10.9463 19.4634L11.3655 18.7641C11.544 18.4664 11.8386 18.2649 12.1733 18.1741C12.1794 18.1726 12.1856 18.171 12.1917 18.1687C12.5294 18.0756 12.8895 18.1033 13.1964 18.2733L13.9095 18.6695C14.6388 19.0742 15.5365 18.5557 15.5504 17.7217L15.5642 16.8994C15.5704 16.5509 15.725 16.2278 15.9712 15.9816C15.9735 15.9793 15.9765 15.9762 15.9788 15.9739C16.225 15.727 16.5481 15.5724 16.8966 15.567L17.7197 15.5531C18.5536 15.5393 19.0721 14.6415 18.6674 13.9122L18.2713 13.1991C18.1013 12.8921 18.0736 12.5329 18.1666 12.1944C18.1682 12.1882 18.1697 12.1821 18.172 12.1759C18.2636 11.8413 18.4643 11.5467 18.7621 11.3682L19.4613 10.9481C20.179 10.5189 20.179 9.48188 19.4644 9.05262ZM14.3903 8.2364L9.34391 13.2829C9.19929 13.4276 9.00389 13.5083 8.80004 13.5083C8.59618 13.5083 8.40002 13.4276 8.25617 13.2829L5.59988 10.6266C5.2991 10.3258 5.2991 9.8396 5.59988 9.53881C5.90067 9.23802 6.38685 9.23802 6.68763 9.53881L8.80004 11.6513L13.3026 7.14863C13.6033 6.84783 14.0895 6.84783 14.3903 7.14863C14.6911 7.44942 14.6911 7.93561 14.3903 8.2364Z" fill="#08AF5E"/>
</svg>
