<svg width="51" height="60" viewBox="0 0 51 60" fill="none" xmlns="http://www.w3.org/2000/svg">
<path d="M17 0V5.71429H34V0H17ZM25.5 8.57143C11.441 8.57143 0 20.1086 0 34.2857C0 48.4629 11.441 60 25.5 60C39.559 60 51 48.4629 51 34.2857C51 28.0208 48.758 22.2786 45.0511 17.8125L49.3343 12.6786L44.9958 9.00112L40.9395 13.8728C36.6475 10.5632 31.3069 8.57143 25.5 8.57143ZM25.5 14.2857V28.5714C28.6308 28.5714 31.1667 31.1286 31.1667 34.2857C31.1667 37.4429 28.6308 40 25.5 40C22.3692 40 19.8333 37.4429 19.8333 34.2857C19.8333 32.7086 20.4678 31.2798 21.4935 30.2455L11.4827 20.1507C15.0726 16.5278 20.0317 14.2857 25.5 14.2857Z" fill="white"/>
</svg>
