<svg width="14" height="16" viewBox="0 0 14 16" fill="none" xmlns="http://www.w3.org/2000/svg">
<path d="M4.45455 0C3.75136 0 3.18182 0.569545 3.18182 1.27273V11.4545C3.18182 12.1577 3.75136 12.7273 4.45455 12.7273H12.7273C13.4305 12.7273 14 12.1577 14 11.4545V4.13636C14 3.96773 13.9332 3.80607 13.8136 3.68643L10.3136 0.186435C10.1939 0.0667982 10.0323 0 9.86364 0H4.45455ZM9.54545 1.21183L12.7882 4.45455H10.1818C9.83055 4.45455 9.54545 4.16945 9.54545 3.81818V1.21183ZM1.27273 3.18182C0.569545 3.18182 0 3.75136 0 4.45455V14.6364C0 15.3395 0.569545 15.9091 1.27273 15.9091H9.54545C10.2486 15.9091 10.8182 15.3395 10.8182 14.6364V14H4.45455C3.05073 14 1.90909 12.8584 1.90909 11.4545V3.18182H1.27273Z" fill="#808080"/>
</svg>
