<svg width="16" height="18" viewBox="0 0 16 18" fill="none" xmlns="http://www.w3.org/2000/svg">
<path d="M6.40228 7.20795e-05C6.29645 -0.00133488 6.1914 0.0178683 6.09322 0.0565665C5.99504 0.0952648 5.90568 0.152687 5.83034 0.225498C5.755 0.298309 5.69518 0.385058 5.65435 0.480708C5.61352 0.576357 5.59249 0.679001 5.59249 0.782678H0.81024C0.704381 0.781211 0.599281 0.80037 0.501046 0.839042C0.402811 0.877713 0.313402 0.935126 0.238014 1.00794C0.162625 1.08076 0.102761 1.16753 0.0619014 1.26321C0.0210415 1.35889 0 1.46157 0 1.56528C0 1.669 0.0210415 1.77168 0.0619014 1.86736C0.102761 1.96304 0.162625 2.04981 0.238014 2.12262C0.313402 2.19544 0.402811 2.25285 0.501046 2.29152C0.599281 2.3302 0.704381 2.34936 0.81024 2.34789H15.1898C15.2956 2.34936 15.4007 2.3302 15.499 2.29152C15.5972 2.25285 15.6866 2.19544 15.762 2.12262C15.8374 2.04981 15.8972 1.96304 15.9381 1.86736C15.979 1.77168 16 1.669 16 1.56528C16 1.46157 15.979 1.35889 15.9381 1.26321C15.8972 1.16753 15.8374 1.08076 15.762 1.00794C15.6866 0.935126 15.5972 0.877713 15.499 0.839042C15.4007 0.80037 15.2956 0.781211 15.1898 0.782678H10.4075C10.4075 0.679001 10.3865 0.576357 10.3456 0.480708C10.3048 0.385058 10.245 0.298309 10.1697 0.225498C10.0943 0.152687 10.005 0.0952648 9.90678 0.0565665C9.8086 0.0178683 9.70354 -0.00133488 9.59772 7.20795e-05H6.40228ZM0.81024 3.9131V16.4348C0.81024 17.2996 1.52522 18 2.40796 18H13.592C14.4748 18 15.1898 17.2996 15.1898 16.4348V3.9131H0.81024ZM5.60341 7.82613C5.80772 7.82613 6.01206 7.90241 6.16823 8.05541L8 9.8499L9.83177 8.05541C10.1441 7.74941 10.6491 7.74941 10.9614 8.05541C11.2738 8.36141 11.2738 8.85606 10.9614 9.16206L9.12964 10.9566L10.9614 12.751C11.2738 13.057 11.2738 13.5517 10.9614 13.8577C10.8056 14.0103 10.6011 14.087 10.3966 14.087C10.1921 14.087 9.98754 14.0103 9.83177 13.8577L8 12.0632L6.16823 13.8577C6.01246 14.0103 5.80792 14.087 5.60341 14.087C5.3989 14.087 5.19437 14.0103 5.03859 13.8577C4.72624 13.5517 4.72624 13.057 5.03859 12.751L6.87036 10.9566L5.03859 9.16206C4.72624 8.85606 4.72624 8.36141 5.03859 8.05541C5.19477 7.90241 5.3991 7.82613 5.60341 7.82613Z" fill="#DE2424"/>
</svg>
