<svg width="27" height="20" viewBox="0 0 27 20" fill="none" xmlns="http://www.w3.org/2000/svg">
<path d="M23.3182 2.5C23.3182 2.5 20.5047 0.2575 17.1818 0L16.8824 0.61C19.8867 1.35875 21.265 2.43187 22.7045 3.75C20.2224 2.45937 17.7715 1.25 13.5 1.25C9.22848 1.25 6.77761 2.45937 4.29545 3.75C5.73505 2.43187 7.37468 1.24062 10.1176 0.61L9.81818 0C6.33211 0.335625 3.68182 2.5 3.68182 2.5C3.68182 2.5 0.539386 7.14062 0 16.25C3.16759 19.9706 7.97727 20 7.97727 20L8.98302 18.6344C7.27589 18.03 5.34784 16.9506 3.68182 15C5.66877 16.5312 8.66761 18.125 13.5 18.125C18.3324 18.125 21.3312 16.5312 23.3182 15C21.6522 16.9506 19.7241 18.03 18.017 18.6344L19.0227 20C19.0227 20 23.8324 19.9706 27 16.25C26.4606 7.14062 23.3182 2.5 23.3182 2.5ZM9.51136 13.75C8.3252 13.75 7.36364 12.6306 7.36364 11.25C7.36364 9.86938 8.3252 8.75 9.51136 8.75C10.6975 8.75 11.6591 9.86938 11.6591 11.25C11.6591 12.6306 10.6975 13.75 9.51136 13.75ZM17.4886 13.75C16.3025 13.75 15.3409 12.6306 15.3409 11.25C15.3409 9.86938 16.3025 8.75 17.4886 8.75C18.6748 8.75 19.6364 9.86938 19.6364 11.25C19.6364 12.6306 18.6748 13.75 17.4886 13.75Z" fill="#8C9EFF"/>
</svg>
