<svg width="18" height="14" viewBox="0 0 18 14" fill="none" xmlns="http://www.w3.org/2000/svg">
<path d="M15.5054 1.55253C13.9479 0.233636 11.4839 0.0100673 11.3784 0.00202491C11.2148 -0.0124507 11.0589 0.084054 10.9917 0.243287C10.9856 0.252937 10.9321 0.383218 10.8725 0.585877C11.9027 0.769236 13.1683 1.13756 14.3132 1.88547C14.4966 2.00449 14.5532 2.25862 14.44 2.45163C14.3651 2.57869 14.2383 2.64786 14.1068 2.64786C14.0365 2.64786 13.9647 2.62695 13.9005 2.58513C11.9317 1.30001 9.47385 1.23567 9 1.23567C8.52615 1.23567 6.06675 1.30001 4.09952 2.58513C3.9161 2.70576 3.67459 2.64625 3.56148 2.45324C3.44684 2.25862 3.5034 2.0061 3.68682 1.88547C4.83169 1.13917 6.09732 0.769236 7.12755 0.587486C7.06793 0.383218 7.01444 0.254545 7.00985 0.243287C6.94107 0.084054 6.78668 -0.0156673 6.6216 0.00202491C6.51613 0.0100673 4.05214 0.233636 2.47317 1.57022C1.64929 2.37282 0 7.06294 0 11.1177C0 11.1901 0.0183424 11.2593 0.0519703 11.322C1.1892 13.4258 4.29365 13.9759 5.00136 14C5.00442 14 5.009 14 5.01359 14C5.13893 14 5.25662 13.9373 5.32999 13.8311L6.04535 12.7953C4.11481 12.271 3.12891 11.3799 3.07235 11.3268C2.91033 11.1772 2.89504 10.9167 3.03872 10.7462C3.18088 10.5757 3.4285 10.5596 3.59052 10.7092C3.61345 10.7317 5.42935 12.353 9 12.353C12.5768 12.353 14.3927 10.7253 14.411 10.7092C14.573 10.5612 14.8191 10.5757 14.9628 10.7478C15.105 10.9183 15.0897 11.1772 14.9276 11.3268C14.8711 11.3799 13.8852 12.271 11.9547 12.7953L12.67 13.8311C12.7434 13.9373 12.8611 14 12.9864 14C12.991 14 12.9956 14 12.9986 14C13.7064 13.9759 16.8108 13.4258 17.948 11.322C17.9817 11.2593 18 11.1901 18 11.1177C18 7.06294 16.3507 2.37282 15.5054 1.55253ZM6.45652 9.47072C5.6999 9.47072 5.08696 8.73407 5.08696 7.82371C5.08696 6.91335 5.6999 6.1767 6.45652 6.1767C7.21315 6.1767 7.82609 6.91335 7.82609 7.82371C7.82609 8.73407 7.21315 9.47072 6.45652 9.47072ZM11.5435 9.47072C10.7869 9.47072 10.1739 8.73407 10.1739 7.82371C10.1739 6.91335 10.7869 6.1767 11.5435 6.1767C12.3001 6.1767 12.913 6.91335 12.913 7.82371C12.913 8.73407 12.3001 9.47072 11.5435 9.47072Z" fill="#808080"/>
</svg>
