<svg width="26" height="19" viewBox="0 0 26 19" fill="none" xmlns="http://www.w3.org/2000/svg">
<path d="M21.8225 2.10701C19.6303 0.317077 16.1625 0.0136627 16.014 0.00274809C15.7839 -0.0168973 15.5644 0.114073 15.4698 0.330175C15.4612 0.343271 15.3859 0.520082 15.302 0.795119C16.7519 1.04396 18.5332 1.54383 20.1445 2.55885C20.4026 2.72038 20.4822 3.06527 20.323 3.32721C20.2176 3.49966 20.0391 3.59352 19.8541 3.59352C19.7551 3.59352 19.654 3.56514 19.5636 3.50839C16.7928 1.7643 13.3336 1.67699 12.6667 1.67699C11.9998 1.67699 8.53838 1.7643 5.7697 3.50839C5.51155 3.6721 5.17165 3.59134 5.01245 3.3294C4.85111 3.06527 4.93071 2.72257 5.18886 2.55885C6.80016 1.54602 8.58141 1.04396 10.0314 0.797302C9.94746 0.520082 9.87217 0.345455 9.86572 0.330175C9.76891 0.114073 9.55163 -0.0212627 9.31929 0.00274809C9.17086 0.0136627 5.70301 0.317077 3.48075 2.13102C2.32122 3.22025 0 9.58541 0 15.0884C0 15.1866 0.0258152 15.2804 0.0731434 15.3656C1.67369 18.2207 6.04291 18.9673 7.03895 19C7.04325 19 7.04971 19 7.05616 19C7.23256 19 7.39821 18.9149 7.50147 18.7708L8.50827 17.3651C5.79121 16.6534 4.40365 15.4442 4.32405 15.3721C4.09601 15.1691 4.0745 14.8155 4.27672 14.5841C4.47679 14.3527 4.82529 14.3309 5.05333 14.5339C5.0856 14.5645 7.6413 16.7648 12.6667 16.7648C17.7006 16.7648 20.2563 14.5557 20.2822 14.5339C20.5102 14.3331 20.8565 14.3527 21.0588 14.5863C21.2588 14.8177 21.2373 15.1691 21.0093 15.3721C20.9297 15.4442 19.5421 16.6534 16.8251 17.3651L17.8319 18.7708C17.9351 18.9149 18.1008 19 18.2772 19C18.2836 19 18.2901 19 18.2944 19C19.2904 18.9673 23.6596 18.2207 25.2602 15.3656C25.3075 15.2804 25.3333 15.1866 25.3333 15.0884C25.3333 9.58541 23.0121 3.22025 21.8225 2.10701ZM9.08696 12.8531C8.02208 12.8531 7.15942 11.8534 7.15942 10.6179C7.15942 9.38241 8.02208 8.38267 9.08696 8.38267C10.1518 8.38267 11.0145 9.38241 11.0145 10.6179C11.0145 11.8534 10.1518 12.8531 9.08696 12.8531ZM16.2464 12.8531C15.1815 12.8531 14.3188 11.8534 14.3188 10.6179C14.3188 9.38241 15.1815 8.38267 16.2464 8.38267C17.3113 8.38267 18.1739 9.38241 18.1739 10.6179C18.1739 11.8534 17.3113 12.8531 16.2464 12.8531Z" fill="#4C48FF"/>
</svg>
