<svg width="20" height="20" viewBox="0 0 20 20" fill="none" xmlns="http://www.w3.org/2000/svg">
<path d="M4.93393 12.449H0.438996C0.152694 11.5393 0 10.5769 0 9.57618C0 8.57547 0.152694 7.61306 0.438996 6.70333H4.93393C4.82418 7.64658 4.77169 8.61856 4.77169 9.57618C4.77169 10.5338 4.82418 11.5058 4.93393 12.449ZM5.13911 13.8855C5.47313 15.8007 6.04096 17.534 6.82352 18.7549C4.28498 18.0032 2.19021 16.2173 1.02114 13.8855H5.13911ZM5.13911 5.2669H1.02114C2.19021 2.9351 4.28498 1.14914 6.82352 0.397411C6.04096 1.61837 5.47313 3.35166 5.13911 5.2669ZM11.5904 13.8855V16.9355C11.0178 18.2618 10.3212 19.071 9.64836 19.1476C9.61496 19.1524 9.57679 19.1524 9.54338 19.1524C9.50998 19.1524 9.47181 19.1524 9.43841 19.1476C8.34092 19.0231 7.18617 16.9642 6.59448 13.8855H11.5904ZM6.59448 5.2669C7.18617 2.18816 8.34092 0.129279 9.43841 0.0047882C9.47181 1.09698e-07 9.50998 0 9.54338 0C9.57679 0 9.61496 1.09698e-07 9.64836 0.0047882C10.7459 0.129279 11.9006 2.18816 12.4923 5.2669H6.59448ZM12.812 7.73755C12.6832 7.7567 12.5543 7.7998 12.435 7.85247C11.9197 8.09666 11.5904 8.61377 11.5904 9.17398V12.449H6.37021C6.26523 11.5489 6.2032 10.5865 6.2032 9.57618C6.2032 8.56589 6.26523 7.60349 6.37021 6.70333H12.7166C12.7547 7.03849 12.7881 7.38323 12.812 7.73755ZM13.9477 5.2669C13.6136 3.35166 13.0458 1.61837 12.2633 0.397411C14.8018 1.14914 16.8966 2.9351 18.0656 5.2669H13.9477ZM19.0868 9.57618C19.0868 10.4524 18.9675 11.2999 18.748 12.1091L14.2864 8.3217C14.2578 7.77586 14.2149 7.2348 14.1528 6.70333H18.6478C18.9341 7.61306 19.0868 8.57547 19.0868 9.57618ZM19.9695 14.8335C19.898 15.0298 19.7119 15.1591 19.5019 15.1591H17.097L18.58 18.4341C18.799 18.9173 18.5843 19.487 18.1014 19.7039L17.6295 19.9161C17.1499 20.1315 16.5874 19.918 16.3702 19.4382L14.902 16.1933L13.4228 17.9745C13.2892 18.1373 13.0697 18.1947 12.874 18.1229C12.6784 18.0511 12.5448 17.8644 12.5448 17.6537V9.17398C12.5448 8.98246 12.6593 8.8053 12.8311 8.7239C13.0076 8.6425 13.2176 8.67123 13.3655 8.79572L19.8264 14.2829C19.9838 14.4169 20.0411 14.6372 19.9695 14.8335Z" fill="#808080"/>
</svg>
