<svg width="16" height="16" viewBox="0 0 16 16" fill="none" xmlns="http://www.w3.org/2000/svg">
<path d="M3.94714 9.95923H0.351197C0.122155 9.23144 0 8.46151 0 7.66094C0 6.86037 0.122155 6.09045 0.351197 5.36266H3.94714C3.85935 6.11726 3.81735 6.89485 3.81735 7.66094C3.81735 8.42704 3.85935 9.20462 3.94714 9.95923ZM4.11129 11.1084C4.37851 12.6406 4.83277 14.0272 5.45882 15.004C3.42798 14.4026 1.75217 12.9738 0.816914 11.1084H4.11129ZM4.11129 4.21352H0.816914C1.75217 2.34808 3.42798 0.919313 5.45882 0.317929C4.83277 1.2947 4.37851 2.68133 4.11129 4.21352ZM9.27235 11.1084V13.5484C8.81427 14.6094 8.25694 15.2568 7.71869 15.3181C7.69197 15.3219 7.66143 15.3219 7.63471 15.3219C7.60799 15.3219 7.57745 15.3219 7.55073 15.3181C6.67274 15.2185 5.74894 13.5714 5.27558 11.1084H9.27235ZM5.27558 4.21352C5.74894 1.75053 6.67274 0.103423 7.55073 0.00383056C7.57745 8.77582e-08 7.60799 0 7.63471 0C7.66143 0 7.69197 8.77582e-08 7.71869 0.00383056C8.59668 0.103423 9.52048 1.75053 9.99383 4.21352H5.27558ZM10.2496 6.19004C10.1465 6.20536 10.0435 6.23984 9.94802 6.28197C9.53575 6.47733 9.27235 6.89102 9.27235 7.33918V9.95923H5.09617C5.01219 9.2391 4.96256 8.46917 4.96256 7.66094C4.96256 6.85271 5.01219 6.08279 5.09617 5.36266H10.1732C10.2038 5.63079 10.2305 5.90659 10.2496 6.19004ZM11.1581 4.21352C10.8909 2.68133 10.4366 1.2947 9.8106 0.317929C11.8414 0.919313 13.5173 2.34808 14.4525 4.21352H11.1581ZM15.2694 7.66094C15.2694 8.36192 15.174 9.03991 14.9984 9.68726L11.4292 6.65736C11.4063 6.22069 11.3719 5.78784 11.3223 5.36266H14.9182C15.1473 6.09045 15.2694 6.86037 15.2694 7.66094ZM15.9756 11.8668C15.9184 12.0239 15.7695 12.1273 15.6015 12.1273H13.6776L14.864 14.7473C15.0392 15.1338 14.8674 15.5896 14.4811 15.7632L14.1036 15.9328C13.72 16.1052 13.2699 15.9344 13.0962 15.5506L11.9216 12.9547L10.7382 14.3796C10.6313 14.5098 10.4557 14.5558 10.2992 14.4983C10.1427 14.4409 10.0358 14.2915 10.0358 14.1229V7.33918C10.0358 7.18596 10.1274 7.04424 10.2649 6.97912C10.4061 6.914 10.5741 6.93698 10.6924 7.03658L15.8611 11.4263C15.9871 11.5336 16.0329 11.7098 15.9756 11.8668Z" fill="#808080"/>
</svg>
