<svg width="20" height="18" viewBox="0 0 20 18" fill="none" xmlns="http://www.w3.org/2000/svg">
<path d="M18.6404 0C18.2923 0 17.9442 0.12327 17.6788 0.369699L17.2747 0.744978L19.1978 2.53069L19.6019 2.15541C20.1327 1.66256 20.1327 0.862556 19.6019 0.369699C19.3365 0.12327 18.9885 0 18.6404 0ZM1.53847 1.42857C0.688464 1.42857 0 2.06786 0 2.85714V15.7143C0 16.5036 0.688464 17.1429 1.53847 17.1429H15.3847C16.2347 17.1429 16.9231 16.5036 16.9231 15.7143V6.66295L15.3847 8.09152V15.7143H1.53847V5.71429H9.74763L14.363 1.42857H1.53847ZM16.1869 1.75502L8.05742 9.30385L7.69233 11.4286L9.9805 11.0896L18.11 3.54074L16.1869 1.75502Z" fill="#404040"/>
</svg>
