<svg width="16" height="16" viewBox="0 0 16 16" fill="none" xmlns="http://www.w3.org/2000/svg">
<path d="M14.7226 0.00166174C14.548 0.0139034 14.3705 0.0931183 14.2309 0.232533L13.6458 0.810015L15.1985 2.36824L15.7732 1.78041C16.0603 1.47881 16.0825 1.06404 15.7958 0.77773L15.1973 0.172835C15.0689 0.044649 14.8972 -0.0105799 14.7226 0.00166174ZM2.49892 0.405534C1.12108 0.405534 0 1.5249 0 2.90065V13.5049C0 14.8806 1.12108 16 2.49892 16H13.1193C14.4972 16 15.6182 14.8806 15.6182 13.5049V3.74921L9.13728 10.2209L7.07214 10.7198C6.93844 10.7597 6.79967 10.7795 6.65911 10.7795C6.1587 10.7795 5.69377 10.5266 5.41514 10.1027C5.16712 9.72566 5.10626 9.26491 5.2437 8.84604L5.7757 6.85774L12.2292 0.405534H2.49892ZM13.0632 1.33694L6.89643 7.50284L6.43825 9.21702C6.36266 9.39011 6.55864 9.58623 6.73232 9.51855L8.50157 9.09092L14.6689 2.93293L13.0632 1.33694Z" fill="#404040"/>
</svg>
