<svg width="25" height="25" viewBox="0 0 25 25" fill="none" xmlns="http://www.w3.org/2000/svg">
<path d="M22.9168 12.4997C22.9168 18.2523 18.2528 22.9163 12.5002 22.9163C6.74756 22.9163 2.0835 18.2523 2.0835 12.4997C2.0835 6.74707 6.74756 2.08301 12.5002 2.08301C18.2528 2.08301 22.9168 6.74707 22.9168 12.4997Z" fill="url(#paint0_linear_949_979)"/>
<path opacity="0.05" d="M17.2873 15.0785L14.7097 12.5003L17.2878 9.9222C17.6946 9.51543 17.6946 8.85605 17.2878 8.44928L16.5514 7.71283C16.1446 7.30605 15.4852 7.30605 15.0785 7.71283L12.4998 10.2904L9.92168 7.7123C9.51491 7.30553 8.85553 7.30553 8.44876 7.7123L7.7123 8.44876C7.30553 8.85553 7.30553 9.51491 7.7123 9.92168L10.2904 12.4998L7.7123 15.0779C7.30553 15.4847 7.30553 16.1441 7.7123 16.5508L8.44876 17.2873C8.85553 17.6941 9.51491 17.6941 9.92168 17.2873L12.4998 14.7092L15.0779 17.2873C15.4847 17.6941 16.1441 17.6941 16.5508 17.2873L17.2873 16.5508C17.6941 16.1446 17.6941 15.4852 17.2873 15.0785Z" fill="black"/>
<path opacity="0.07" d="M17.1037 15.2615L14.3417 12.4995L17.1037 9.73757C17.4089 9.43236 17.4089 8.93756 17.1037 8.63288L16.3672 7.89642C16.062 7.59121 15.5672 7.59121 15.2625 7.89642L12.5 10.6579L9.73805 7.8959C9.43285 7.59069 8.93805 7.59069 8.63337 7.8959L7.89691 8.63236C7.5917 8.93757 7.5917 9.43236 7.89691 9.73704L10.6584 12.4995L7.89639 15.2615C7.59118 15.5667 7.59118 16.0615 7.89639 16.3662L8.63285 17.1027C8.93805 17.4079 9.43284 17.4079 9.73753 17.1027L12.5 14.3412L15.262 17.1032C15.5672 17.4084 16.062 17.4084 16.3667 17.1032L17.1032 16.3667C17.4089 16.0615 17.4089 15.5667 17.1037 15.2615Z" fill="black"/>
<path d="M16.183 8.08047L16.9195 8.81693C17.1231 9.02057 17.1231 9.35026 16.9195 9.55339L9.55387 16.919C9.35023 17.1227 9.02054 17.1227 8.81742 16.919L8.08096 16.1826C7.87731 15.9789 7.87731 15.6492 8.08096 15.4461L15.4466 8.08047C15.6497 7.87682 15.9799 7.87682 16.183 8.08047Z" fill="white"/>
<path d="M16.9195 16.1826L16.183 16.919C15.9794 17.1227 15.6497 17.1227 15.4466 16.919L8.08096 9.55339C7.87731 9.34974 7.87731 9.02005 8.08096 8.81693L8.81742 8.08047C9.02106 7.87682 9.35075 7.87682 9.55387 8.08047L16.9195 15.4461C17.1231 15.6492 17.1231 15.9794 16.9195 16.1826Z" fill="white"/>
<defs>
<linearGradient id="paint0_linear_949_979" x1="5.13454" y1="5.13405" x2="19.8658" y2="19.8653" gradientUnits="userSpaceOnUse">
<stop stop-color="#F44F5A"/>
<stop offset="0.443" stop-color="#EE3D4A"/>
<stop offset="1" stop-color="#E52030"/>
</linearGradient>
</defs>
</svg>
