<svg width="23" height="22" viewBox="0 0 23 22" fill="none" xmlns="http://www.w3.org/2000/svg">
<path d="M5.22254 9.46434L5.22251 9.46437L5.50103 9.74198L5.73523 9.97543L5.61208 10.2823L1.47926 20.5808C1.26199 21.1222 1.80103 21.6694 2.35381 21.449L12.6858 17.3296L12.9912 17.2078L13.224 17.4399L13.5025 17.7175L13.5097 17.7247L13.5096 17.7248C13.5483 17.7649 13.5946 17.797 13.646 17.8191C13.6974 17.8413 13.7528 17.853 13.8089 17.8535C13.8651 17.8541 13.9207 17.8435 13.9726 17.8224C14.0244 17.8013 14.0714 17.7701 14.1109 17.7308L14.4638 18.085L14.1109 17.7308C14.1503 17.6915 14.1814 17.6448 14.2024 17.5936C14.2234 17.5423 14.2339 17.4875 14.2333 17.4322C14.2327 17.377 14.2211 17.3223 14.1991 17.2715C14.1771 17.2207 14.145 17.1747 14.1048 17.1362L14.0974 17.1291L14.0975 17.129L9.98085 13.0258L5.81749 8.87591L5.81261 8.87105L5.81264 8.87101C5.77358 8.83099 5.72677 8.79908 5.67494 8.77726C5.62316 8.75546 5.56746 8.7442 5.51115 8.74417L5.22254 9.46434ZM5.22254 9.46434L5.21768 9.45962M5.22254 9.46434L5.21768 9.45962M5.21768 9.45962C5.15791 9.40164 5.11704 9.32741 5.10003 9.24651C5.08302 9.16563 5.09059 9.08151 5.12183 9.00485C5.15307 8.92817 5.20666 8.86226 5.27599 8.81572C5.3453 8.7692 5.42712 8.74422 5.51098 8.74417L5.21768 9.45962ZM11.46 3.66806C11.46 4.89486 11.0623 6.14631 10.6334 7.1334C10.6373 6.24372 10.6386 5.24815 10.6307 4.56498C10.622 3.78398 9.98421 3.16806 9.21078 3.16806H7.82C7.33285 3.16806 6.94 2.77415 6.94 2.29254C6.94 1.81092 7.33285 1.41701 7.82 1.41701H9.2C9.98837 1.41701 10.5395 1.70067 10.898 2.09982C11.2642 2.50756 11.46 3.07084 11.46 3.66806ZM18.4 5.08507H18.9V4.58507V2.75104C18.9 2.02636 19.509 1.41701 20.24 1.41701H22.5V2.25104H20.24H19.74V2.75104V4.58507C19.74 5.30975 19.131 5.9191 18.4 5.9191H17.48H16.98V6.4191V7.33611C16.98 8.06079 16.371 8.67014 15.64 8.67014H15.5717C15.1149 8.67014 14.6848 8.82451 14.3298 9.079L14.2888 9.10843L14.2545 9.14546L12.608 10.9217L11.9919 10.3533L13.7555 8.45189L13.7851 8.42961C13.7853 8.42942 13.7856 8.42924 13.7858 8.42905C14.3007 8.04414 14.9277 7.83611 15.5717 7.83611H15.64H16.14V7.33611V6.4191C16.14 5.69442 16.749 5.08507 17.48 5.08507H18.4ZM15.85 12.3248C16.8392 11.8986 18.0917 11.5042 19.32 11.5042C19.9204 11.5042 20.4863 11.6997 20.8956 12.065C21.2961 12.4223 21.58 12.9709 21.58 13.7552V15.1307C21.58 15.6123 21.1872 16.0063 20.7 16.0063C20.2128 16.0063 19.82 15.6123 19.82 15.1307V13.7445C19.82 12.9696 19.1997 12.3361 18.4201 12.3275C17.7364 12.3197 16.7409 12.321 15.85 12.3248ZM15.8517 1.37552L15.18 2.04508L14.5083 1.37552L15.18 0.705961L15.8517 1.37552ZM3.89174 3.20955L3.22 3.87911L2.54826 3.20955L3.22 2.53999L3.89174 3.20955ZM1.38 9.38119L0.708259 8.71163L1.38 8.04207L2.05174 8.71163L1.38 9.38119ZM21.62 9.38119L20.9483 8.71163L21.62 8.04207L22.2917 8.71163L21.62 9.38119ZM18.6117 18.7988L17.94 19.4683L17.2683 18.7988L17.94 18.1292L18.6117 18.7988Z" fill="#202020" stroke="#404040"/>
</svg>
