<svg width="16" height="18" viewBox="0 0 16 18" fill="none" xmlns="http://www.w3.org/2000/svg">
<path d="M8.64 0C8.43124 0 8.22212 0.0788338 8.07188 0.236345L5.83187 2.58678C5.52083 2.91347 5.52297 3.44154 5.83625 3.7659C6.14985 4.08959 6.6555 4.0877 6.9675 3.76134L7.68 3.01389V11.0164C7.68 11.3831 7.392 11.6831 7.04 11.6831C6.688 11.6831 6.4 11.3831 6.4 11.0164V5.33242H2.56C1.1488 5.33242 0 6.52917 0 7.99928V15.3331C0 16.8032 1.1488 18 2.56 18H13.44C14.8512 18 16 16.8032 16 15.3331V7.99928C16 6.52917 14.8512 5.33242 13.44 5.33242H9.6V3.01389L10.3125 3.76134C10.469 3.92535 10.6742 4.00745 10.88 4.00745C11.0838 4.00745 11.2876 3.92691 11.4438 3.7659C11.7573 3.44154 11.7589 2.91347 11.4475 2.58678L9.2075 0.236345C9.0571 0.0788338 8.84876 0 8.64 0Z" fill="#08AF5E"/>
</svg>
