<svg width="17" height="18" viewBox="0 0 17 18" fill="none" xmlns="http://www.w3.org/2000/svg">
<path d="M13.8125 0.805176H3.1875C1.42773 0.805176 0 2.23013 0 3.98647V14.5908C0 16.3471 1.42773 17.7721 3.1875 17.7721H13.8125C15.5723 17.7721 17 16.3471 17 14.5908V3.98647C17 2.23013 15.5723 0.805176 13.8125 0.805176ZM13.3809 9.94374H11.7897V15.8194H9.13341V9.94374H8.10156V7.96308H9.13341V6.70127C9.13341 5.04945 9.82046 4.06804 11.7743 4.06804H13.7512V6.04105H12.6019C11.8433 6.04105 11.7922 6.32145 11.7922 6.85167L11.7897 7.96308H13.598L13.3809 9.94374Z" fill="#808080"/>
</svg>
