<svg width="22" height="22" viewBox="0 0 22 22" fill="none" xmlns="http://www.w3.org/2000/svg">
<path d="M17.875 0H4.125C1.84766 0 0 1.84766 0 4.125V17.875C0 20.1523 1.84766 22 4.125 22H17.875C20.1523 22 22 20.1523 22 17.875V4.125C22 1.84766 20.1523 0 17.875 0ZM17.3164 11.8495H15.2572V19.4681H11.8197V11.8495H10.4844V9.28125H11.8197V7.64513C11.8197 5.50331 12.7088 4.23077 15.2374 4.23077H17.7957V6.78906H16.3083C15.3266 6.78906 15.2605 7.15264 15.2605 7.84014L15.2572 9.28125H17.5974L17.3164 11.8495Z" fill="#456EFF"/>
</svg>
