<svg width="14" height="19" viewBox="0 0 14 19" fill="none" xmlns="http://www.w3.org/2000/svg">
<path d="M8.30773 0.699219C8.49134 0.699219 8.66743 0.772016 8.79727 0.901596C8.9271 1.03118 9.00004 1.20692 9.00004 1.39018C9.00004 4.88436 13.8462 7.60881 13.8462 12.4455C13.8462 16.1199 9.85608 18.4955 8.45106 18.6493C8.40393 18.6592 8.35589 18.6642 8.30773 18.6642C8.12412 18.6642 7.94803 18.5914 7.81819 18.4618C7.68836 18.3322 7.61542 18.1564 7.61542 17.9732C7.61547 17.8706 7.63844 17.7692 7.68264 17.6765C7.72685 17.5839 7.79119 17.5022 7.87098 17.4374V17.4361C8.50098 16.9262 9.69235 15.4468 9.69235 14.096C9.69235 11.8787 7.61542 11.0636 7.61542 11.0636C8.79996 14.4078 4.91858 14.8119 4.13766 18.123H4.1363C4.10219 18.2763 4.01678 18.4134 3.89413 18.5118C3.77148 18.6102 3.61892 18.6639 3.46158 18.6642C3.31578 18.6638 3.17382 18.6175 3.05593 18.5319C3.04344 18.5229 3.03127 18.5134 3.01942 18.5036C2.90675 18.4305 3.71933e-05 16.5118 3.71933e-05 12.4455C3.71933e-05 10.7854 0.831962 7.93391 1.43063 6.67089L1.43198 6.66684L1.43333 6.66414C1.48431 6.53524 1.57295 6.42463 1.68772 6.34666C1.8025 6.26868 1.93812 6.22695 2.07696 6.22689C2.23865 6.22704 2.39518 6.28367 2.51941 6.38695C2.64364 6.49024 2.72773 6.63366 2.7571 6.79234V6.79504C2.75879 6.80259 3.07677 8.21203 4.15388 8.99073C4.15388 5.73518 6.50886 2.37245 7.75064 0.98127C7.76927 0.95608 7.7896 0.932183 7.81149 0.909745C7.87589 0.843308 7.95299 0.790443 8.03823 0.754281C8.12347 0.718119 8.21511 0.699396 8.30773 0.699219Z" fill="#404040"/>
</svg>
