<svg width="25" height="22" viewBox="0 0 25 22" fill="none" xmlns="http://www.w3.org/2000/svg">
<path d="M20.29 0H4.71004C2.11463 0 0 2.1036 0 4.68546V17.3145C0 19.8964 2.11463 22 4.71004 22H20.29C22.8854 22 25 19.8964 25 17.3145V4.68546C25 2.1036 22.8854 0 20.29 0ZM10.5769 12.4348V9.56522H14.4231V12.4348H10.5769ZM14.4231 15.3043V18.1739H10.5769V15.3043H14.4231ZM10.5769 6.69565V3.82609H14.4231V6.69565H10.5769ZM3.84615 4.78261C3.84615 4.2072 4.22927 3.82609 4.80769 3.82609H7.69231V6.69565H4.80769C4.22927 6.69565 3.84615 6.31454 3.84615 5.73913V4.78261ZM3.84615 10.5217C3.84615 9.94633 4.22927 9.56522 4.80769 9.56522H7.69231V12.4348H4.80769C4.22927 12.4348 3.84615 12.0537 3.84615 11.4783V10.5217ZM3.84615 17.2174V16.2609C3.84615 15.6855 4.22927 15.3043 4.80769 15.3043H7.69231V18.1739H4.80769C4.22927 18.1739 3.84615 17.7928 3.84615 17.2174ZM21.1538 17.2174C21.1538 17.7928 20.7707 18.1739 20.1923 18.1739H17.3077V15.3043H20.1923C20.7707 15.3043 21.1538 15.6855 21.1538 16.2609V17.2174ZM21.1538 11.4783C21.1538 12.0537 20.7707 12.4348 20.1923 12.4348H17.3077V9.56522H20.1923C20.7707 9.56522 21.1538 9.94633 21.1538 10.5217V11.4783ZM21.1538 5.73913C21.1538 6.31454 20.7707 6.69565 20.1923 6.69565H17.3077V3.82609H20.1923C20.7707 3.82609 21.1538 4.2072 21.1538 4.78261V5.73913Z" fill="white"/>
</svg>
