<svg width="22" height="22" viewBox="0 0 22 22" fill="none" xmlns="http://www.w3.org/2000/svg">
<path d="M17.1186 21.9884L4.9028 22C2.21533 22.0024 0.014661 19.806 0.0116071 17.1186L2.03625e-06 4.9028C-0.00244112 2.21533 2.19395 0.014661 4.88142 0.0116071L17.0972 2.03625e-06C19.7847 -0.00244112 21.9853 2.19396 21.9884 4.88143L22 17.0972C22.003 19.7853 19.806 21.986 17.1186 21.9884Z" fill="url(#paint0_radial_31_1412)"/>
<path d="M17.1186 21.9884L4.9028 22C2.21533 22.0024 0.014661 19.806 0.0116071 17.1186L2.03625e-06 4.9028C-0.00244112 2.21533 2.19395 0.014661 4.88142 0.0116071L17.0972 2.03625e-06C19.7847 -0.00244112 21.9853 2.19396 21.9884 4.88143L22 17.0972C22.003 19.7853 19.806 21.986 17.1186 21.9884Z" fill="url(#paint1_radial_31_1412)"/>
<path d="M11.0003 15.2758C8.64327 15.2758 6.72479 13.358 6.72479 11.0003C6.72479 8.64266 8.64327 6.72479 11.0003 6.72479C13.3573 6.72479 15.2758 8.64266 15.2758 11.0003C15.2758 13.358 13.3573 15.2758 11.0003 15.2758ZM11.0003 7.94636C9.31636 7.94636 7.94636 9.31636 7.94636 11.0003C7.94636 12.6843 9.31636 14.0542 11.0003 14.0542C12.6842 14.0542 14.0542 12.6843 14.0542 11.0003C14.0542 9.31636 12.6842 7.94636 11.0003 7.94636Z" fill="white"/>
<path d="M15.5812 7.33557C16.0872 7.33557 16.4974 6.92539 16.4974 6.41939C16.4974 5.9134 16.0872 5.50321 15.5812 5.50321C15.0752 5.50321 14.665 5.9134 14.665 6.41939C14.665 6.92539 15.0752 7.33557 15.5812 7.33557Z" fill="white"/>
<path d="M14.665 18.9406H7.33557C4.97854 18.9406 3.06005 17.0227 3.06005 14.665V7.33557C3.06005 4.97793 4.97854 3.06005 7.33557 3.06005H14.665C17.0221 3.06005 18.9406 4.97793 18.9406 7.33557V14.665C18.9406 17.0227 17.0221 18.9406 14.665 18.9406ZM7.33557 4.28163C5.65163 4.28163 4.28163 5.65163 4.28163 7.33557V14.665C4.28163 16.349 5.65163 17.719 7.33557 17.719H14.665C16.349 17.719 17.719 16.349 17.719 14.665V7.33557C17.719 5.65163 16.349 4.28163 14.665 4.28163H7.33557Z" fill="white"/>
<defs>
<radialGradient id="paint0_radial_31_1412" cx="0" cy="0" r="1" gradientUnits="userSpaceOnUse" gradientTransform="translate(8.17846 22.0159) scale(27.4238 27.4238)">
<stop stop-color="#FFDD55"/>
<stop offset="0.328" stop-color="#FF543F"/>
<stop offset="0.348" stop-color="#FC5245"/>
<stop offset="0.504" stop-color="#E64771"/>
<stop offset="0.643" stop-color="#D53E91"/>
<stop offset="0.761" stop-color="#CC39A4"/>
<stop offset="0.841" stop-color="#C837AB"/>
</radialGradient>
<radialGradient id="paint1_radial_31_1412" cx="0" cy="0" r="1" gradientUnits="userSpaceOnUse" gradientTransform="translate(3.54013 -0.274668) scale(18.2094 12.133)">
<stop stop-color="#4168C9"/>
<stop offset="0.999" stop-color="#4168C9" stop-opacity="0"/>
</radialGradient>
</defs>
</svg>
