<svg width="24" height="24" viewBox="0 0 24 24" fill="none" xmlns="http://www.w3.org/2000/svg">
<mask id="path-1-inside-1_33_3043" fill="white">
<path d="M11.9782 0.000551414C11.9222 0.00346878 11.8674 0.0177243 11.8171 0.0424533C11.7668 0.0671823 11.7221 0.101869 11.6856 0.144411L10.0886 2.03155C10.0222 2.11596 9.99122 2.22286 10.0021 2.3297C10.0131 2.43653 10.0651 2.53494 10.1472 2.60416C10.2293 2.67337 10.3351 2.70797 10.4422 2.70066C10.5494 2.69335 10.6495 2.64469 10.7214 2.56496L11.5862 1.5434V6.36835H10.4071C10.2973 6.36835 10.1921 6.41194 10.1145 6.48954C10.0369 6.56715 9.99327 6.6724 9.99327 6.78214C9.99327 6.89189 10.0369 6.99714 10.1145 7.07474C10.1921 7.15235 10.2973 7.19594 10.4071 7.19594H13.5929C13.7027 7.19594 13.8079 7.15235 13.8855 7.07474C13.9631 6.99714 14.0067 6.89189 14.0067 6.78214C14.0067 6.6724 13.9631 6.56715 13.8855 6.48954C13.8079 6.41194 13.7027 6.36835 13.5929 6.36835H12.4138V0.413541C12.4137 0.328531 12.3874 0.24561 12.3386 0.176056C12.2897 0.106501 12.2206 0.0536875 12.1406 0.0247974C12.0886 0.00594196 12.0334 -0.00230239 11.9782 0.000551414ZM3.57947 5.00653C2.6112 5.00653 1.85399 6.09482 1.85399 7.48932C1.85918 7.59552 1.90506 7.69565 1.9821 7.76894C2.05915 7.84222 2.16145 7.88304 2.26778 7.88291C2.37753 7.88291 2.48277 7.83931 2.56038 7.76171C2.63798 7.68411 2.68157 7.57886 2.68157 7.46911C2.68157 6.50496 3.15327 5.81392 3.57947 5.81392H4.13793C4.55172 5.81392 5.03583 6.49255 5.03583 7.46911C5.0613 7.99396 4.8885 8.5092 4.55172 8.91255L1.9736 11.4907C1.91508 11.5486 1.87516 11.6226 1.85892 11.7033C1.84269 11.784 1.85089 11.8677 1.88247 11.9437C1.91405 12.0197 1.96758 12.0846 2.03622 12.13C2.10485 12.1754 2.18548 12.1993 2.26778 12.1987H5.45771C5.56745 12.1987 5.6727 12.1551 5.7503 12.0775C5.8279 11.9999 5.8715 11.8946 5.8715 11.7849C5.8715 11.6751 5.8279 11.5699 5.7503 11.4923C5.6727 11.4147 5.56745 11.3711 5.45771 11.3711H3.26913L5.14332 9.51709C5.63775 8.95994 5.89853 8.23373 5.8715 7.48932C5.8715 6.10723 5.11429 5.00653 4.14601 5.00653H3.57947ZM18.3556 8.37106C18.2459 8.37106 18.1406 8.41466 18.063 8.49226C17.9854 8.56986 17.9418 8.67511 17.9418 8.78486C17.9418 8.8946 17.9854 8.99986 18.063 9.07746C18.1406 9.15506 18.2459 9.19866 18.3556 9.19866H20.5321C20.8134 9.19866 21.1325 9.70333 21.1325 10.3778C21.1325 11.0523 20.8134 11.557 20.5321 11.557H19.2293C19.1195 11.557 19.0143 11.6006 18.9367 11.6782C18.8591 11.7558 18.8155 11.861 18.8155 11.9708C18.8155 12.0805 18.8591 12.1858 18.9367 12.2634C19.0143 12.341 19.1195 12.3846 19.2293 12.3846H20.5321C20.8134 12.3846 21.1325 12.8892 21.1325 13.5637C21.1325 14.2382 20.8134 14.7437 20.5321 14.7437H18.3556C18.2459 14.7437 18.1406 14.7873 18.063 14.8649C17.9854 14.9425 17.9418 15.0478 17.9418 15.1575C17.9418 15.2672 17.9854 15.3725 18.063 15.4501C18.1406 15.5277 18.2459 15.5713 18.3556 15.5713H20.5321C21.3307 15.5713 21.9601 14.6893 21.9601 13.5637C21.9792 12.9817 21.7801 12.4135 21.4017 11.9708C21.7794 11.5277 21.9784 10.9598 21.9601 10.3778C21.9601 9.25229 21.3307 8.37106 20.5321 8.37106H18.3556ZM8.13928 8.56988C8.02953 8.56988 7.92428 8.61347 7.84668 8.69108C7.76908 8.76868 7.72549 8.87393 7.72549 8.98368V13.3609H0.413793C0.304048 13.3609 0.198798 13.4045 0.121197 13.4821C0.0435959 13.5597 0 13.6649 0 13.7747V23.5862C0 23.6959 0.0435959 23.8012 0.121197 23.8788C0.198798 23.9564 0.304048 24 0.413793 24H23.5862C23.696 24 23.8012 23.9564 23.8788 23.8788C23.9564 23.8012 24 23.6959 24 23.5862V17.0236C24 16.9139 23.9564 16.8086 23.8788 16.731C23.8012 16.6534 23.696 16.6098 23.5862 16.6098H16.2745V8.98368C16.2745 8.87393 16.2309 8.76868 16.1533 8.69108C16.0757 8.61347 15.9705 8.56988 15.8607 8.56988H8.13928Z"/>
</mask>
<path d="M11.9782 0.000551414C11.9222 0.00346878 11.8674 0.0177243 11.8171 0.0424533C11.7668 0.0671823 11.7221 0.101869 11.6856 0.144411L10.0886 2.03155C10.0222 2.11596 9.99122 2.22286 10.0021 2.3297C10.0131 2.43653 10.0651 2.53494 10.1472 2.60416C10.2293 2.67337 10.3351 2.70797 10.4422 2.70066C10.5494 2.69335 10.6495 2.64469 10.7214 2.56496L11.5862 1.5434V6.36835H10.4071C10.2973 6.36835 10.1921 6.41194 10.1145 6.48954C10.0369 6.56715 9.99327 6.6724 9.99327 6.78214C9.99327 6.89189 10.0369 6.99714 10.1145 7.07474C10.1921 7.15235 10.2973 7.19594 10.4071 7.19594H13.5929C13.7027 7.19594 13.8079 7.15235 13.8855 7.07474C13.9631 6.99714 14.0067 6.89189 14.0067 6.78214C14.0067 6.6724 13.9631 6.56715 13.8855 6.48954C13.8079 6.41194 13.7027 6.36835 13.5929 6.36835H12.4138V0.413541C12.4137 0.328531 12.3874 0.24561 12.3386 0.176056C12.2897 0.106501 12.2206 0.0536875 12.1406 0.0247974C12.0886 0.00594196 12.0334 -0.00230239 11.9782 0.000551414ZM3.57947 5.00653C2.6112 5.00653 1.85399 6.09482 1.85399 7.48932C1.85918 7.59552 1.90506 7.69565 1.9821 7.76894C2.05915 7.84222 2.16145 7.88304 2.26778 7.88291C2.37753 7.88291 2.48277 7.83931 2.56038 7.76171C2.63798 7.68411 2.68157 7.57886 2.68157 7.46911C2.68157 6.50496 3.15327 5.81392 3.57947 5.81392H4.13793C4.55172 5.81392 5.03583 6.49255 5.03583 7.46911C5.0613 7.99396 4.8885 8.5092 4.55172 8.91255L1.9736 11.4907C1.91508 11.5486 1.87516 11.6226 1.85892 11.7033C1.84269 11.784 1.85089 11.8677 1.88247 11.9437C1.91405 12.0197 1.96758 12.0846 2.03622 12.13C2.10485 12.1754 2.18548 12.1993 2.26778 12.1987H5.45771C5.56745 12.1987 5.6727 12.1551 5.7503 12.0775C5.8279 11.9999 5.8715 11.8946 5.8715 11.7849C5.8715 11.6751 5.8279 11.5699 5.7503 11.4923C5.6727 11.4147 5.56745 11.3711 5.45771 11.3711H3.26913L5.14332 9.51709C5.63775 8.95994 5.89853 8.23373 5.8715 7.48932C5.8715 6.10723 5.11429 5.00653 4.14601 5.00653H3.57947ZM18.3556 8.37106C18.2459 8.37106 18.1406 8.41466 18.063 8.49226C17.9854 8.56986 17.9418 8.67511 17.9418 8.78486C17.9418 8.8946 17.9854 8.99986 18.063 9.07746C18.1406 9.15506 18.2459 9.19866 18.3556 9.19866H20.5321C20.8134 9.19866 21.1325 9.70333 21.1325 10.3778C21.1325 11.0523 20.8134 11.557 20.5321 11.557H19.2293C19.1195 11.557 19.0143 11.6006 18.9367 11.6782C18.8591 11.7558 18.8155 11.861 18.8155 11.9708C18.8155 12.0805 18.8591 12.1858 18.9367 12.2634C19.0143 12.341 19.1195 12.3846 19.2293 12.3846H20.5321C20.8134 12.3846 21.1325 12.8892 21.1325 13.5637C21.1325 14.2382 20.8134 14.7437 20.5321 14.7437H18.3556C18.2459 14.7437 18.1406 14.7873 18.063 14.8649C17.9854 14.9425 17.9418 15.0478 17.9418 15.1575C17.9418 15.2672 17.9854 15.3725 18.063 15.4501C18.1406 15.5277 18.2459 15.5713 18.3556 15.5713H20.5321C21.3307 15.5713 21.9601 14.6893 21.9601 13.5637C21.9792 12.9817 21.7801 12.4135 21.4017 11.9708C21.7794 11.5277 21.9784 10.9598 21.9601 10.3778C21.9601 9.25229 21.3307 8.37106 20.5321 8.37106H18.3556ZM8.13928 8.56988C8.02953 8.56988 7.92428 8.61347 7.84668 8.69108C7.76908 8.76868 7.72549 8.87393 7.72549 8.98368V13.3609H0.413793C0.304048 13.3609 0.198798 13.4045 0.121197 13.4821C0.0435959 13.5597 0 13.6649 0 13.7747V23.5862C0 23.6959 0.0435959 23.8012 0.121197 23.8788C0.198798 23.9564 0.304048 24 0.413793 24H23.5862C23.696 24 23.8012 23.9564 23.8788 23.8788C23.9564 23.8012 24 23.6959 24 23.5862V17.0236C24 16.9139 23.9564 16.8086 23.8788 16.731C23.8012 16.6534 23.696 16.6098 23.5862 16.6098H16.2745V8.98368C16.2745 8.87393 16.2309 8.76868 16.1533 8.69108C16.0757 8.61347 15.9705 8.56988 15.8607 8.56988H8.13928Z" fill="#202020"/>
<path d="M11.9782 0.000551414L11.9266 -0.998116L11.9261 -0.998093L11.9782 0.000551414ZM11.6856 0.144411L10.9265 -0.506587L10.9223 -0.501571L11.6856 0.144411ZM10.0886 2.03155L9.32528 1.38557L9.31374 1.39921L9.30269 1.41325L10.0886 2.03155ZM10.7214 2.56496L11.4639 3.23491L11.4745 3.22315L11.4847 3.21107L10.7214 2.56496ZM11.5862 1.5434H12.5862V-1.18567L10.823 0.897301L11.5862 1.5434ZM11.5862 6.36835V7.36835H12.5862V6.36835H11.5862ZM12.4138 6.36835H11.4138V7.36835H12.4138V6.36835ZM12.4138 0.413541H13.4138L13.4138 0.412512L12.4138 0.413541ZM12.1406 0.0247974L11.7997 0.964871L11.8008 0.965278L12.1406 0.0247974ZM1.85399 7.48932H0.853987V7.51375L0.85518 7.53814L1.85399 7.48932ZM2.26778 7.88291V6.88291L2.26659 6.88291L2.26778 7.88291ZM5.03583 7.46911H4.03583V7.49336L4.03701 7.51758L5.03583 7.46911ZM4.55172 8.91255L5.25883 9.61966L5.29057 9.58792L5.31934 9.55346L4.55172 8.91255ZM1.9736 11.4907L2.67684 12.2017L2.68071 12.1978L1.9736 11.4907ZM2.26778 12.1987V11.1987L2.26007 11.1987L2.26778 12.1987ZM3.26913 11.3711L2.56586 10.6602L0.836307 12.3711H3.26913V11.3711ZM5.14332 9.51709L5.84659 10.228L5.86969 10.2052L5.89127 10.1808L5.14332 9.51709ZM5.8715 7.48932H4.8715V7.50747L4.87216 7.52561L5.8715 7.48932ZM21.9601 13.5637L20.9607 13.5309L20.9601 13.5473V13.5637H21.9601ZM21.4017 11.9708L20.6406 11.3221L20.0869 11.9717L20.6415 12.6205L21.4017 11.9708ZM21.9601 10.3778H20.9601V10.3936L20.9606 10.4093L21.9601 10.3778ZM7.72549 13.3609V14.3609H8.72548V13.3609H7.72549ZM0 13.7747H-1H0ZM0 23.5862H-1H0ZM16.2745 16.6098H15.2745V17.6098H16.2745V16.6098ZM11.9261 -0.998093C11.7349 -0.988125 11.5477 -0.939419 11.3759 -0.854927L12.2584 0.939834C12.1871 0.974867 12.1095 0.995063 12.0302 0.999196L11.9261 -0.998093ZM11.3759 -0.854927C11.204 -0.770434 11.0512 -0.651919 10.9265 -0.506573L12.4447 0.795395C12.393 0.855658 12.3296 0.904799 12.2584 0.939834L11.3759 -0.854927ZM10.9223 -0.501571L9.32528 1.38557L10.852 2.67754L12.449 0.790393L10.9223 -0.501571ZM9.30269 1.41325C9.07592 1.7015 8.97002 2.06659 9.00734 2.43144L10.997 2.22795C11.0124 2.37913 10.9685 2.53041 10.8746 2.64986L9.30269 1.41325ZM9.00734 2.43144C9.04465 2.7963 9.22227 3.13238 9.5027 3.36876L10.7917 1.83955C10.9079 1.9375 10.9815 2.07677 10.997 2.22795L9.00734 2.43144ZM9.5027 3.36876C9.78312 3.60514 10.1444 3.72331 10.5103 3.69834L10.3742 1.70298C10.5258 1.69263 10.6755 1.7416 10.7917 1.83955L9.5027 3.36876ZM10.5103 3.69834C10.8762 3.67337 11.2181 3.5072 11.4639 3.23491L9.97904 1.89502C10.0809 1.78219 10.2225 1.71333 10.3742 1.70298L10.5103 3.69834ZM11.4847 3.21107L12.3495 2.1895L10.823 0.897301L9.95819 1.91886L11.4847 3.21107ZM10.5862 1.5434V6.36835H12.5862V1.5434H10.5862ZM11.5862 5.36835H10.4071V7.36835H11.5862V5.36835ZM10.4071 5.36835C10.0321 5.36835 9.67249 5.5173 9.40735 5.78244L10.8216 7.19665C10.7116 7.30658 10.5625 7.36835 10.4071 7.36835V5.36835ZM9.40735 5.78244C9.14222 6.04758 8.99327 6.40718 8.99327 6.78214H10.9933C10.9933 6.93761 10.9315 7.08671 10.8216 7.19665L9.40735 5.78244ZM8.99327 6.78214C8.99327 7.1571 9.14222 7.51671 9.40735 7.78185L10.8216 6.36764C10.9315 6.47757 10.9933 6.62667 10.9933 6.78214H8.99327ZM9.40735 7.78185C9.67249 8.04699 10.0321 8.19594 10.4071 8.19594V6.19594C10.5625 6.19594 10.7116 6.2577 10.8216 6.36764L9.40735 7.78185ZM10.4071 8.19594H13.5929V6.19594H10.4071V8.19594ZM13.5929 8.19594C13.9679 8.19594 14.3275 8.04699 14.5926 7.78185L13.1784 6.36764C13.2884 6.2577 13.4375 6.19594 13.5929 6.19594V8.19594ZM14.5926 7.78185C14.8578 7.5167 15.0067 7.1571 15.0067 6.78214H13.0067C13.0067 6.62668 13.0685 6.47758 13.1784 6.36764L14.5926 7.78185ZM15.0067 6.78214C15.0067 6.40719 14.8578 6.04758 14.5926 5.78244L13.1784 7.19665C13.0685 7.08671 13.0067 6.93761 13.0067 6.78214H15.0067ZM14.5926 5.78244C14.3275 5.5173 13.9679 5.36835 13.5929 5.36835V7.36835C13.4375 7.36835 13.2884 7.30658 13.1784 7.19665L14.5926 5.78244ZM13.5929 5.36835H12.4138V7.36835H13.5929V5.36835ZM13.4138 6.36835V0.413541H11.4138V6.36835H13.4138ZM13.4138 0.412512C13.4135 0.122063 13.3237 -0.161245 13.1568 -0.398886L11.5204 0.750997C11.4511 0.652465 11.4139 0.534999 11.4138 0.41457L13.4138 0.412512ZM13.1568 -0.398886C12.9898 -0.636528 12.7536 -0.816974 12.4805 -0.915684L11.8008 0.965278C11.6875 0.924349 11.5896 0.84953 11.5204 0.750997L13.1568 -0.398886ZM12.4816 -0.915275C12.304 -0.979698 12.1153 -1.00787 11.9266 -0.998116L12.0298 0.999219C11.9516 1.00326 11.8733 0.991582 11.7997 0.96487L12.4816 -0.915275ZM3.57947 4.00653C2.68673 4.00653 1.97813 4.51325 1.53256 5.15416C1.08839 5.79304 0.853987 6.62063 0.853987 7.48932H2.85399C2.85399 6.9635 2.99819 6.5497 3.1747 6.29581C3.34979 6.04396 3.50394 6.00653 3.57947 6.00653V4.00653ZM0.85518 7.53814C0.872919 7.90101 1.02967 8.24312 1.2929 8.49351L2.6713 7.04437C2.78045 7.14819 2.84544 7.29004 2.85279 7.44049L0.85518 7.53814ZM1.2929 8.49351C1.55614 8.7439 1.90567 8.88334 2.26897 8.88291L2.26659 6.88291C2.41723 6.88273 2.56216 6.94055 2.6713 7.04437L1.2929 8.49351ZM2.26778 8.88291C2.64275 8.88291 3.00235 8.73395 3.26749 8.46881L1.85327 7.05461C1.9632 6.94467 2.1123 6.88291 2.26778 6.88291V8.88291ZM3.26749 8.46881C3.53262 8.20368 3.68157 7.84407 3.68157 7.46911H1.68157C1.68157 7.31364 1.74333 7.16454 1.85327 7.05461L3.26749 8.46881ZM3.68157 7.46911C3.68157 7.14216 3.76292 6.9064 3.83432 6.78409C3.87025 6.72254 3.88894 6.71436 3.86779 6.73058C3.84749 6.74614 3.74867 6.81392 3.57947 6.81392V4.81392C2.83075 4.81392 2.34295 5.37174 2.10707 5.77583C1.83607 6.24008 1.68157 6.83192 1.68157 7.46911H3.68157ZM3.57947 6.81392H4.13793V4.81392H3.57947V6.81392ZM4.13793 6.81392C3.96455 6.81392 3.86495 6.74451 3.84692 6.73077C3.82658 6.71528 3.84559 6.72402 3.8816 6.78484C3.95286 6.90517 4.03583 7.1391 4.03583 7.46911H6.03583C6.03583 6.82256 5.87675 6.2289 5.60251 5.76578C5.36534 5.36527 4.87765 4.81392 4.13793 4.81392V6.81392ZM4.03701 7.51758C4.05031 7.79177 3.96004 8.06093 3.78411 8.27165L5.31934 9.55346C5.81696 8.95747 6.07229 8.19615 6.03465 7.42064L4.03701 7.51758ZM3.84461 8.20545L1.26649 10.7836L2.68071 12.1978L5.25883 9.61966L3.84461 8.20545ZM1.27037 10.7797C1.07044 10.9775 0.934026 11.2304 0.878565 11.5061L2.83928 11.9005C2.81629 12.0148 2.75972 12.1197 2.67683 12.2017L1.27037 10.7797ZM0.878565 11.5061C0.823104 11.7818 0.851115 12.0677 0.959019 12.3274L2.80592 11.56C2.85066 11.6676 2.86228 11.7862 2.83928 11.9005L0.878565 11.5061ZM0.959019 12.3274C1.06692 12.5871 1.24981 12.8087 1.48432 12.9639L2.58812 11.2961C2.68535 11.3604 2.76118 11.4523 2.80592 11.56L0.959019 12.3274ZM1.48432 12.9639C1.71883 13.1191 1.99429 13.2008 2.27549 13.1987L2.26007 11.1987C2.37666 11.1978 2.49088 11.2317 2.58812 11.2961L1.48432 12.9639ZM2.26778 13.1987H5.45771V11.1987H2.26778V13.1987ZM5.45771 13.1987C5.83267 13.1987 6.19227 13.0497 6.45741 12.7846L5.04319 11.3704C5.15313 11.2605 5.30223 11.1987 5.45771 11.1987V13.1987ZM6.45741 12.7846C6.72255 12.5195 6.8715 12.1598 6.8715 11.7849H4.8715C4.8715 11.6294 4.93325 11.4803 5.04319 11.3704L6.45741 12.7846ZM6.8715 11.7849C6.8715 11.4099 6.72255 11.0503 6.45741 10.7852L5.04319 12.1994C4.93326 12.0895 4.8715 11.9404 4.8715 11.7849H6.8715ZM6.45741 10.7852C6.19228 10.5201 5.83267 10.3711 5.45771 10.3711V12.3711C5.30223 12.3711 5.15312 12.3093 5.04319 12.1994L6.45741 10.7852ZM5.45771 10.3711H3.26913V12.3711H5.45771V10.3711ZM3.9724 12.082L5.84659 10.228L4.44005 8.80616L2.56586 10.6602L3.9724 12.082ZM5.89127 10.1808C6.55639 9.43135 6.90721 8.45442 6.87084 7.45302L4.87216 7.52561C4.88986 8.01303 4.71911 8.48853 4.39537 8.85333L5.89127 10.1808ZM6.8715 7.48932C6.8715 6.62539 6.6364 5.79891 6.19386 5.16015C5.75079 4.52063 5.04288 4.00653 4.14601 4.00653V6.00653C4.21742 6.00653 4.37226 6.04278 4.54986 6.29913C4.72799 6.55624 4.8715 6.97116 4.8715 7.48932H6.8715ZM4.14601 4.00653H3.57947V6.00653H4.14601V4.00653ZM18.3556 7.37106C17.9806 7.37106 17.621 7.52002 17.3559 7.78516L18.7701 9.19936C18.6602 9.3093 18.5111 9.37106 18.3556 9.37106V7.37106ZM17.3559 7.78516C17.0908 8.0503 16.9418 8.4099 16.9418 8.78486H18.9418C18.9418 8.94033 18.8801 9.08943 18.7701 9.19936L17.3559 7.78516ZM16.9418 8.78486C16.9418 9.15981 17.0908 9.51942 17.3559 9.78456L18.7701 8.37036C18.8801 8.48029 18.9418 8.62939 18.9418 8.78486H16.9418ZM17.3559 9.78456C17.621 10.0497 17.9806 10.1987 18.3556 10.1987V8.19866C18.5111 8.19866 18.6602 8.26042 18.7701 8.37036L17.3559 9.78456ZM18.3556 10.1987H20.5321V8.19866H18.3556V10.1987ZM20.5321 10.1987C20.298 10.1987 20.1519 10.0958 20.1047 10.0566C20.0541 10.0144 20.0465 9.98963 20.0602 10.0146C20.0864 10.0627 20.1325 10.1896 20.1325 10.3778H22.1325C22.1325 9.89157 22.0191 9.42889 21.8155 9.05599C21.7142 8.8705 21.5741 8.67742 21.3844 8.51954C21.1983 8.36459 20.9068 8.19866 20.5321 8.19866V10.1987ZM20.1325 10.3778C20.1325 10.5661 20.0864 10.693 20.0602 10.741C20.0465 10.766 20.0541 10.7413 20.1047 10.6991C20.1519 10.6598 20.298 10.557 20.5321 10.557V12.557C20.9068 12.557 21.1983 12.391 21.3844 12.2361C21.5741 12.0782 21.7142 11.8851 21.8155 11.6996C22.0191 11.3267 22.1325 10.8641 22.1325 10.3778H20.1325ZM20.5321 10.557H19.2293V12.557H20.5321V10.557ZM19.2293 10.557C18.8543 10.557 18.4947 10.7059 18.2295 10.9711L19.6438 12.3853C19.5338 12.4952 19.3847 12.557 19.2293 12.557V10.557ZM18.2295 10.9711C17.9644 11.2362 17.8155 11.5958 17.8155 11.9708H19.8155C19.8155 12.1262 19.7537 12.2753 19.6438 12.3853L18.2295 10.9711ZM17.8155 11.9708C17.8155 12.3457 17.9644 12.7053 18.2295 12.9705L19.6438 11.5563C19.7537 11.6662 19.8155 11.8153 19.8155 11.9708H17.8155ZM18.2295 12.9705C18.4947 13.2356 18.8543 13.3846 19.2293 13.3846V11.3846C19.3847 11.3846 19.5338 11.4463 19.6438 11.5563L18.2295 12.9705ZM19.2293 13.3846H20.5321V11.3846H19.2293V13.3846ZM20.5321 13.3846C20.298 13.3846 20.1519 13.2817 20.1047 13.2425C20.0541 13.2003 20.0465 13.1755 20.0602 13.2005C20.0864 13.2486 20.1325 13.3755 20.1325 13.5637H22.1325C22.1325 13.0775 22.0191 12.6148 21.8155 12.2419C21.7142 12.0564 21.5741 11.8633 21.3844 11.7055C21.1983 11.5505 20.9068 11.3846 20.5321 11.3846V13.3846ZM20.1325 13.5637C20.1325 13.752 20.0864 13.8793 20.06 13.9277C20.0462 13.9529 20.0537 13.9282 20.1043 13.8861C20.1512 13.8469 20.2975 13.7437 20.5321 13.7437V15.7437C20.9073 15.7437 21.199 15.5773 21.3849 15.4223C21.5744 15.2643 21.7144 15.0711 21.8157 14.8856C22.0191 14.5127 22.1325 14.05 22.1325 13.5637H20.1325ZM20.5321 13.7437H18.3556V15.7437H20.5321V13.7437ZM18.3556 13.7437C17.9806 13.7437 17.621 13.8927 17.3559 14.1578L18.7701 15.572C18.6602 15.6819 18.5111 15.7437 18.3556 15.7437V13.7437ZM17.3559 14.1578C17.0908 14.4229 16.9418 14.7825 16.9418 15.1575H18.9418C18.9418 15.313 18.8801 15.4621 18.7701 15.572L17.3559 14.1578ZM16.9418 15.1575C16.9418 15.5325 17.0908 15.8921 17.3559 16.1572L18.7701 14.743C18.8801 14.8529 18.9418 15.002 18.9418 15.1575H16.9418ZM17.3559 16.1572C17.621 16.4223 17.9806 16.5713 18.3556 16.5713V14.5713C18.5111 14.5713 18.6602 14.6331 18.7701 14.743L17.3559 16.1572ZM18.3556 16.5713H20.5321V14.5713H18.3556V16.5713ZM20.5321 16.5713C21.331 16.5713 21.9643 16.1255 22.3602 15.5696C22.7544 15.0159 22.9601 14.3041 22.9601 13.5637H20.9601C20.9601 13.9489 20.8511 14.2409 20.731 14.4096C20.6724 14.4919 20.6196 14.5338 20.587 14.5529C20.5577 14.57 20.5417 14.5713 20.5321 14.5713V16.5713ZM22.9596 13.5966C22.9869 12.7651 22.7024 11.9535 22.1618 11.3211L20.6415 12.6205C20.8578 12.8735 20.9716 13.1982 20.9607 13.5309L22.9596 13.5966ZM22.1627 12.6195C22.7017 11.9871 22.9858 11.1768 22.9596 10.3464L20.9606 10.4093C20.9711 10.7428 20.857 11.0682 20.6406 11.3221L22.1627 12.6195ZM22.9601 10.3778C22.9601 9.63744 22.7544 8.92571 22.36 8.37212C21.964 7.81627 21.3306 7.37106 20.5321 7.37106V9.37106C20.5321 9.37106 20.6128 9.36647 20.7311 9.53261C20.8511 9.70102 20.9601 9.99266 20.9601 10.3778H22.9601ZM20.5321 7.37106H18.3556V9.37106H20.5321V7.37106ZM8.13928 7.56988C7.76431 7.56988 7.40471 7.71884 7.13957 7.98397L8.55379 9.39818C8.44386 9.50811 8.29476 9.56988 8.13928 9.56988V7.56988ZM7.13957 7.98397C6.87443 8.24911 6.72549 8.60872 6.72549 8.98368H8.72548C8.72548 9.13914 8.66373 9.28824 8.55379 9.39818L7.13957 7.98397ZM6.72549 8.98368V13.3609H8.72548V8.98368H6.72549ZM7.72549 12.3609H0.413793V14.3609H7.72549V12.3609ZM0.413793 12.3609C0.0388304 12.3609 -0.320775 12.5098 -0.585913 12.775L0.828308 14.1892C0.718372 14.2991 0.569266 14.3609 0.413793 14.3609V12.3609ZM-0.585913 12.775C-0.85105 13.0401 -1 13.3997 -1 13.7747H1C1 13.9301 0.938242 14.0792 0.828308 14.1892L-0.585913 12.775ZM-1 13.7747V23.5862H1V13.7747H-1ZM-1 23.5862C-1 23.9612 -0.85105 24.3208 -0.585913 24.5859L0.828308 23.1717C0.938242 23.2816 1 23.4307 1 23.5862H-1ZM-0.585913 24.5859C-0.320775 24.851 0.0388304 25 0.413793 25V23C0.569266 23 0.718372 23.0618 0.828308 23.1717L-0.585913 24.5859ZM0.413793 25H23.5862V23H0.413793V25ZM23.5862 25C23.9612 25 24.3208 24.851 24.5859 24.5859L23.1717 23.1717C23.2816 23.0618 23.4307 23 23.5862 23V25ZM24.5859 24.5859C24.8511 24.3208 25 23.9612 25 23.5862H23C23 23.4307 23.0618 23.2816 23.1717 23.1717L24.5859 24.5859ZM25 23.5862V17.0236H23V23.5862H25ZM25 17.0236C25 16.6487 24.8511 16.2891 24.5859 16.0239L23.1717 17.4381C23.0618 17.3282 23 17.1791 23 17.0236H25ZM24.5859 16.0239C24.3208 15.7588 23.9612 15.6098 23.5862 15.6098V17.6098C23.4307 17.6098 23.2816 17.5481 23.1717 17.4381L24.5859 16.0239ZM23.5862 15.6098H16.2745V17.6098H23.5862V15.6098ZM17.2745 16.6098V8.98368H15.2745V16.6098H17.2745ZM17.2745 8.98368C17.2745 8.60872 17.1256 8.24911 16.8604 7.98397L15.4462 9.39818C15.3363 9.28824 15.2745 9.13914 15.2745 8.98368H17.2745ZM16.8604 7.98397C16.5953 7.71884 16.2357 7.56988 15.8607 7.56988V9.56988C15.7052 9.56988 15.5561 9.50811 15.4462 9.39818L16.8604 7.98397ZM15.8607 7.56988H8.13928V9.56988H15.8607V7.56988Z" fill="#404040" mask="url(#path-1-inside-1_33_3043)"/>
</svg>
