<svg width="26" height="23" viewBox="0 0 26 23" fill="none" xmlns="http://www.w3.org/2000/svg">
<path d="M24.2609 7.91304C25.1974 7.91304 25.9565 8.67213 25.9565 9.6087V13C25.9565 13.9366 25.1974 14.6957 24.2609 14.6957H10.7391C9.80256 14.6957 9.04348 13.9366 9.04348 13V9.6087C9.04348 8.67213 9.80256 7.91304 10.7391 7.91304H24.2609ZM6.21739 7.91304C7.15396 7.91304 7.91304 8.67213 7.91304 9.6087V13C7.91304 13.9366 7.15396 14.6957 6.21739 14.6957H1.69565C0.759087 14.6957 0 13.9366 0 13V9.6087C0 8.67213 0.759087 7.91304 1.69565 7.91304H6.21739ZM24.2609 0C25.1974 0 25.9565 0.759087 25.9565 1.69565V5.08696C25.9565 6.02352 25.1974 6.78261 24.2609 6.78261H10.7391C9.80256 6.78261 9.04348 6.02352 9.04348 5.08696V1.69565C9.04348 0.759087 9.80256 0 10.7391 0H24.2609ZM6.21739 0C7.15396 0 7.91304 0.759087 7.91304 1.69565V5.08696C7.91304 6.02352 7.15396 6.78261 6.21739 6.78261H1.69565C0.759087 6.78261 0 6.02352 0 5.08696V1.69565C0 0.759087 0.759087 0 1.69565 0H6.21739ZM24.2609 15.8261C25.1974 15.8261 25.9565 16.5852 25.9565 17.5217V20.913C25.9565 21.8496 25.1974 22.6087 24.2609 22.6087H10.7391C9.80256 22.6087 9.04348 21.8496 9.04348 20.913V17.5217C9.04348 16.5852 9.80256 15.8261 10.7391 15.8261H24.2609ZM6.21739 15.8261C7.15396 15.8261 7.91304 16.5852 7.91304 17.5217V20.913C7.91304 21.8496 7.15396 22.6087 6.21739 22.6087H1.69565C0.759087 22.6087 0 21.8496 0 20.913V17.5217C0 16.5852 0.759087 15.8261 1.69565 15.8261H6.21739Z" fill="#808080"/>
</svg>
