<svg width="34" height="34" viewBox="0 0 34 34" fill="none" xmlns="http://www.w3.org/2000/svg">
<path d="M17.0001 1.41602C12.2914 1.41602 8.50008 5.20729 8.50008 9.91602V11.3327C6.94175 11.3327 5.66675 12.6077 5.66675 14.166V28.3327C5.66675 29.891 6.94175 31.166 8.50008 31.166H25.5001C27.0584 31.166 28.3334 29.891 28.3334 28.3327V14.166C28.3334 12.6077 27.0584 11.3327 25.5001 11.3327V9.91602C25.5001 5.20729 21.7088 1.41602 17.0001 1.41602ZM17.0001 4.24935C20.2247 4.24935 22.6667 6.69141 22.6667 9.91602V11.3327H11.3334V9.91602C11.3334 6.69141 13.7755 4.24935 17.0001 4.24935ZM17.0001 18.416C18.5584 18.416 19.8334 19.691 19.8334 21.2493C19.8334 22.8077 18.5584 24.0827 17.0001 24.0827C15.4417 24.0827 14.1667 22.8077 14.1667 21.2493C14.1667 19.691 15.4417 18.416 17.0001 18.416Z" fill="#808080"/>
</svg>
