<svg width="24" height="24" viewBox="0 0 24 24" fill="none" xmlns="http://www.w3.org/2000/svg">
<path d="M13.6531 0.000519977C13.4355 0.00787141 13.2292 0.0991385 13.0775 0.255202C12.9257 0.411265 12.8402 0.620015 12.8389 0.83772V1.77521L7.45884 3.07026C7.27641 3.11525 7.11425 3.21994 6.99813 3.36768C6.882 3.51542 6.81858 3.69773 6.81795 3.88565V6.17378C6.81795 6.39582 6.90614 6.60877 7.06312 6.76577C7.22011 6.92278 7.43302 7.01098 7.65503 7.01098C7.87704 7.01098 8.08996 6.92278 8.24694 6.76577C8.40392 6.60877 8.49212 6.39582 8.49212 6.17378V4.53209L12.8389 3.49431V20.585L8.49212 19.5461V18.1399C8.49212 17.9178 8.40392 17.7049 8.24694 17.5479C8.08996 17.3909 7.87704 17.3027 7.65503 17.3027C7.43302 17.3027 7.22011 17.3909 7.06312 17.5479C6.90614 17.7049 6.81795 17.9178 6.81795 18.1399V20.2045C6.81858 20.3924 6.882 20.5748 6.99813 20.7225C7.11425 20.8702 7.27641 20.9749 7.45884 21.0199L12.8389 22.3041V23.1631C12.8405 23.2848 12.8683 23.4048 12.9205 23.5149C12.9726 23.6249 13.0478 23.7224 13.141 23.8008C13.2341 23.8792 13.3431 23.9366 13.4604 23.9692C13.5777 24.0017 13.7007 24.0086 13.8209 23.9894L23.3079 22.315C23.5021 22.2808 23.678 22.1792 23.8046 22.028C23.9312 21.8769 24.0004 21.6859 24 21.4887V2.51212C24.0004 2.31492 23.9312 2.12391 23.8046 1.97275C23.678 1.82158 23.5021 1.71997 23.3079 1.68582L13.8209 0.011421C13.7655 0.00219745 13.7092 -0.00145451 13.6531 0.000519977ZM4.20423 7.84818C4.08993 7.84468 3.97613 7.86464 3.86984 7.90682C3.76355 7.94901 3.66703 8.01252 3.58623 8.09346L0.237885 11.4423C0.0852401 11.6013 0 11.8132 0 12.0336C0 12.2541 0.0852401 12.466 0.237885 12.625L3.58623 15.9738C3.70523 16.0931 3.85744 16.1737 4.02296 16.205C4.18848 16.2364 4.35961 16.217 4.51398 16.1496C4.66834 16.0821 4.79876 15.9696 4.88817 15.8268C4.97759 15.684 5.02185 15.5175 5.01516 15.3492V12.8376H9.5243C9.74631 12.8376 9.95923 12.7494 10.1162 12.5924C10.2732 12.4354 10.3614 12.2224 10.3614 12.0004C10.3614 11.7784 10.2732 11.5654 10.1162 11.4084C9.95923 11.2514 9.74631 11.1632 9.5243 11.1632H5.01516V8.65159C5.00671 8.43991 4.91833 8.23931 4.76784 8.09022C4.61736 7.94112 4.41595 7.85464 4.20423 7.84818Z" fill="white"/>
</svg>
