<svg width="24" height="22" viewBox="0 0 24 22" fill="none" xmlns="http://www.w3.org/2000/svg">
<path d="M7.62784 5.80676C7.79877 5.7743 7.97636 5.7573 8.16 5.7573C9.3072 5.7573 10.2773 6.40307 10.7352 7.3501C9.9202 7.60204 9.20637 8.08785 8.67359 8.72849C8.67453 8.6917 8.675 8.6548 8.675 8.61779C8.675 7.54542 8.27784 6.56239 7.62784 5.80676ZM7.6758 11.568C7.64134 11.5438 7.60662 11.5199 7.57163 11.4963C7.60728 11.4565 7.64221 11.416 7.6764 11.3749C7.67547 11.4116 7.675 11.4485 7.675 11.4854C7.675 11.513 7.67527 11.5406 7.6758 11.568ZM13.1854 7.3212C13.6503 6.39022 14.6157 5.7573 15.75 5.7573C15.9682 5.7573 16.1767 5.78281 16.3768 5.83085C15.7384 6.58334 15.355 7.55545 15.355 8.61779C15.355 8.6559 15.3555 8.6939 15.3565 8.73177C14.7997 8.06304 14.0453 7.56321 13.1854 7.3212ZM16.445 11.4804C16.4147 11.501 16.3845 11.5218 16.3546 11.5429C16.3549 11.5237 16.355 11.5046 16.355 11.4854C16.355 11.4483 16.3545 11.4113 16.3536 11.3744C16.3835 11.4102 16.414 11.4456 16.445 11.4804ZM0.544195 17.9435C0.519945 17.9286 0.505535 17.9186 0.5 17.9146V16.2498C0.5 14.1553 2.21272 12.4484 4.32 12.4484C6.00625 12.4484 7.43556 13.5386 7.93955 15.0499C7.03356 15.9505 6.43133 17.1486 6.28169 18.4817C5.75965 18.561 5.11252 18.6174 4.32 18.6174C2.88303 18.6174 1.92787 18.4418 1.3323 18.2661C1.03453 18.1783 0.826269 18.0904 0.692091 18.0241C0.624954 17.9909 0.576301 17.9632 0.544195 17.9435ZM23.5 16.2498V17.9146C23.4945 17.9186 23.4801 17.9286 23.4558 17.9435C23.4237 17.9632 23.375 17.9909 23.3079 18.0241C23.1737 18.0904 22.9655 18.1783 22.6677 18.2661C22.0721 18.4418 21.117 18.6174 19.68 18.6174C18.8986 18.6174 18.2624 18.5692 17.7486 18.4948C17.5981 17.1484 16.9816 15.9378 16.0624 15.0344C16.5734 13.5324 18.0018 12.4484 19.68 12.4484C21.789 12.4484 23.5 14.1551 23.5 16.2498ZM8.195 20.7823V19.1324C8.195 17.0378 9.90772 15.331 12.015 15.331C14.124 15.331 15.835 17.0377 15.835 19.1324V20.7823C15.7786 20.8233 14.8071 21.5 12.015 21.5C9.22292 21.5 8.25137 20.8233 8.195 20.7823ZM6.26 2.38968C6.26 1.34793 7.10848 0.5 8.16 0.5C9.21152 0.5 10.06 1.34793 10.06 2.38968C10.06 3.43144 9.21152 4.27936 8.16 4.27936C7.10848 4.27936 6.26 3.43143 6.26 2.38968ZM13.85 2.38968C13.85 1.34793 14.6985 0.5 15.75 0.5C16.8015 0.5 17.65 1.34793 17.65 2.38968C17.65 3.43143 16.8015 4.27936 15.75 4.27936C14.6985 4.27936 13.85 3.43143 13.85 2.38968ZM1.955 8.61779C1.955 7.31279 3.01911 6.25017 4.335 6.25017C5.65089 6.25017 6.715 7.31279 6.715 8.61779C6.715 9.92278 5.65089 10.9854 4.335 10.9854C3.01911 10.9854 1.955 9.92278 1.955 8.61779ZM17.315 8.61779C17.315 7.31279 18.3791 6.25017 19.695 6.25017C21.0109 6.25017 22.075 7.31279 22.075 8.61779C22.075 9.92278 21.0109 10.9854 19.695 10.9854C18.3791 10.9854 17.315 9.92278 17.315 8.61779ZM9.635 11.4854C9.635 10.1804 10.6991 9.11779 12.015 9.11779C13.3309 9.11779 14.395 10.1804 14.395 11.4854C14.395 12.7904 13.3309 13.853 12.015 13.853C10.6991 13.853 9.635 12.7904 9.635 11.4854Z" fill="#202020" stroke="#404040"/>
</svg>
