<svg width="14" height="11" viewBox="0 0 14 11" fill="none" xmlns="http://www.w3.org/2000/svg">
<path d="M0.644592 6.47099e-05C0.560376 -0.0011479 0.476762 0.0146928 0.398611 0.046666C0.32046 0.0786392 0.249329 0.126107 0.189353 0.186312C0.129378 0.246516 0.0817526 0.318257 0.0492461 0.397363C0.0167397 0.47647 0 0.561365 0 0.647116C0 0.732866 0.0167397 0.817762 0.0492461 0.896869C0.0817526 0.975975 0.129378 1.04772 0.189353 1.10792C0.249329 1.16812 0.32046 1.21559 0.398611 1.24757C0.476762 1.27954 0.560376 1.29538 0.644592 1.29417H13.3554C13.4396 1.29538 13.5232 1.27954 13.6014 1.24757C13.6795 1.21559 13.7507 1.16812 13.8106 1.10792C13.8706 1.04772 13.9182 0.975975 13.9508 0.896869C13.9833 0.817762 14 0.732866 14 0.647116C14 0.561365 13.9833 0.47647 13.9508 0.397363C13.9182 0.318257 13.8706 0.246516 13.8106 0.186312C13.7507 0.126107 13.6795 0.0786392 13.6014 0.046666C13.5232 0.0146928 13.4396 -0.0011479 13.3554 6.47099e-05H0.644592ZM0.644592 4.85295C0.560376 4.85174 0.476762 4.86758 0.398611 4.89955C0.32046 4.93152 0.249329 4.97899 0.189353 5.0392C0.129378 5.0994 0.0817526 5.17114 0.0492461 5.25025C0.0167397 5.32935 0 5.41425 0 5.5C0 5.58575 0.0167397 5.67065 0.0492461 5.74975C0.0817526 5.82886 0.129378 5.9006 0.189353 5.9608C0.249329 6.02101 0.32046 6.06848 0.398611 6.10045C0.476762 6.13242 0.560376 6.14826 0.644592 6.14705H13.3554C13.4396 6.14826 13.5232 6.13242 13.6014 6.10045C13.6795 6.06848 13.7507 6.02101 13.8106 5.9608C13.8706 5.9006 13.9182 5.82886 13.9508 5.74975C13.9833 5.67065 14 5.58575 14 5.5C14 5.41425 13.9833 5.32935 13.9508 5.25025C13.9182 5.17114 13.8706 5.0994 13.8106 5.0392C13.7507 4.97899 13.6795 4.93152 13.6014 4.89955C13.5232 4.86758 13.4396 4.85174 13.3554 4.85295H0.644592ZM0.644592 9.70583C0.560376 9.70462 0.476762 9.72046 0.398611 9.75243C0.32046 9.78441 0.249329 9.83188 0.189353 9.89208C0.129378 9.95228 0.0817526 10.024 0.0492461 10.1031C0.0167397 10.1822 0 10.2671 0 10.3529C0 10.4386 0.0167397 10.5235 0.0492461 10.6026C0.0817526 10.6817 0.129378 10.7535 0.189353 10.8137C0.249329 10.8739 0.32046 10.9214 0.398611 10.9533C0.476762 10.9853 0.560376 11.0011 0.644592 10.9999H13.3554C13.4396 11.0011 13.5232 10.9853 13.6014 10.9533C13.6795 10.9214 13.7507 10.8739 13.8106 10.8137C13.8706 10.7535 13.9182 10.6817 13.9508 10.6026C13.9833 10.5235 14 10.4386 14 10.3529C14 10.2671 13.9833 10.1822 13.9508 10.1031C13.9182 10.024 13.8706 9.95228 13.8106 9.89208C13.7507 9.83188 13.6795 9.78441 13.6014 9.75243C13.5232 9.72046 13.4396 9.70462 13.3554 9.70583H0.644592Z" fill="white"/>
</svg>
