<svg width="18" height="19" viewBox="0 0 18 19" fill="none" xmlns="http://www.w3.org/2000/svg">
<path d="M8.54883 0.00165632C8.43388 0.00841761 8.31728 0.0362684 8.20703 0.0865673C7.20103 0.544565 5.54342 1.60533 5.10742 3.74366C4.62042 6.13375 6.16445 8.60917 8.56445 8.86597C10.9695 9.12277 13 7.22449 13 4.84553C13 2.17337 10.817 1.30889 10 1.30889L9.4375 0.453857C9.2365 0.148272 8.89369 -0.0186275 8.54883 0.00165632ZM9 11.9228C5.996 11.9228 0 13.4474 0 16.4724V17.989C0 18.5471 0.448 19 1 19H17C17.552 19 18 18.5471 18 17.989V16.4724C18 13.4474 12.004 11.9228 9 11.9228Z" fill="#808080"/>
</svg>
