<svg width="23" height="25" viewBox="0 0 23 25" fill="none" xmlns="http://www.w3.org/2000/svg">
<path d="M11.5 0C6.68882 0 1.68457 1.08032 1.68457 1.08032L1.68049 1.08439C1.20696 1.17884 0.780836 1.4337 0.474502 1.80568C0.168169 2.17766 0.000508998 2.64382 0 3.125V9.375C0 20.2062 10.477 24.7335 10.477 24.7335C10.7895 24.9082 11.1417 25 11.5 25C11.8569 24.9993 12.2077 24.9075 12.5189 24.7335H12.523C12.523 24.7335 23 20.2062 23 9.375V3.125C23.0002 2.64255 22.8324 2.17497 22.5252 1.80208C22.218 1.42918 21.7904 1.17408 21.3154 1.08032C21.3154 1.08032 16.3112 0 11.5 0ZM11.5 4.16667C13.2302 4.16667 14.6364 5.56771 14.6364 7.29167V9.375H15.6818C16.2589 9.375 16.7273 9.84167 16.7273 10.4167V15.625C16.7273 16.2 16.2589 16.6667 15.6818 16.6667H7.31818C6.74109 16.6667 6.27273 16.2 6.27273 15.625V10.4167C6.27273 9.84167 6.74109 9.375 7.31818 9.375H8.36364V7.29167C8.36364 5.56771 9.76977 4.16667 11.5 4.16667ZM11.5 6.25C10.924 6.25 10.4545 6.71771 10.4545 7.29167V9.375H12.5455V7.29167C12.5455 6.71771 12.076 6.25 11.5 6.25Z" fill="#AD5151"/>
</svg>
