<svg width="23" height="23" viewBox="0 0 23 23" fill="none" xmlns="http://www.w3.org/2000/svg">
<path d="M11.5 0C5.14855 0 0 5.14855 0 11.5C0 17.8514 5.14855 23 11.5 23C17.8514 23 23 17.8514 23 11.5C23 5.14855 17.8514 0 11.5 0ZM11.5 3.1625C13.5642 3.1625 15.2375 4.83575 15.2375 6.9C15.2375 8.96425 13.5642 10.6375 11.5 10.6375C9.43575 10.6375 7.7625 8.96425 7.7625 6.9C7.7625 4.83575 9.43575 3.1625 11.5 3.1625ZM11.5 20.7C8.3145 20.7 5.5085 19.0808 3.8571 16.6209C5.14625 14.7464 9.2529 13.8 11.5 13.8C13.7471 13.8 17.8538 14.7464 19.1429 16.6209C17.4915 19.0808 14.6855 20.7 11.5 20.7ZM19.5489 12.6477C19.5489 12.6477 17.9158 12.7374 16.9636 11.7863C16.0114 10.8353 16.1023 9.20115 16.1023 9.20115C16.1023 9.20115 17.7353 9.11145 18.6875 10.0625C19.6397 11.0135 19.5489 12.6477 19.5489 12.6477Z" fill="white"/>
</svg>
