<svg width="18" height="18" viewBox="0 0 18 18" fill="none" xmlns="http://www.w3.org/2000/svg">
<path d="M6.23077 0C4.70077 0 3.46154 1.2888 3.46154 2.88V3.6L4.5 4.32H3.46154V5.04L4.84615 5.4L3.46154 6.12V8.01L4.5 8.28L3.46154 8.55V11.16L13.1538 11.52V15.12C13.1538 16.1136 12.6104 16.92 11.9423 16.92C11.2742 16.92 10.7308 16.1136 10.7308 15.12C10.7308 14.1264 11.2742 13.32 11.9423 13.32H12.1154V12.24H1.38462C0.619615 12.24 0 13.5288 0 15.12C0 16.7112 0.619615 18 1.38462 18H11.7692C13.2992 18 14.5385 16.7112 14.5385 15.12V10.44L13.5 9.72H14.5385V7.92L12.8077 7.56L14.5385 6.84V3.2182C14.5385 3.0742 14.542 2.85846 14.5662 2.66766C14.587 2.47326 14.6317 2.28251 14.6906 2.09531C14.926 1.35011 15.449 0.713053 16.1171 0.349453C16.1898 0.309853 16.2661 0.273572 16.3422 0.241172C16.003 0.0863719 15.6254 0 15.2308 0H6.23077ZM17.1481 0.802969C16.9128 0.849769 16.6845 0.943538 16.4768 1.06594C15.9991 1.36114 15.6498 1.84298 15.5113 2.37937C15.4767 2.51258 15.452 2.64968 15.4451 2.78648C15.4347 2.92328 15.4382 3.0454 15.4451 3.2182L15.4904 4.18711L15.5593 5.76H18V2.88C18 2.0628 17.6743 1.32497 17.1481 0.802969ZM5.88462 5.4H12.1154V6.48H5.88462V5.4ZM5.88462 7.56H9.69231V8.64H5.88462V7.56Z" fill="white"/>
</svg>
