<svg width="16" height="16" viewBox="0 0 16 16" fill="none" xmlns="http://www.w3.org/2000/svg">
<path d="M5.53846 0C4.17846 0 3.07692 1.1456 3.07692 2.56V3.2L4 3.84H3.07692V4.48L4.30769 4.8L3.07692 5.44V7.12L4 7.36L3.07692 7.6V9.92L11.6923 10.24V13.44C11.6923 14.3232 11.2092 15.04 10.6154 15.04C10.0215 15.04 9.53846 14.3232 9.53846 13.44C9.53846 12.5568 10.0215 11.84 10.6154 11.84H10.7692V10.88H1.23077C0.550769 10.88 0 12.0256 0 13.44C0 14.8544 0.550769 16 1.23077 16H10.4615C11.8215 16 12.9231 14.8544 12.9231 13.44V9.28L12 8.64H12.9231V7.04L11.3846 6.72L12.9231 6.08V2.86063C12.9231 2.73263 12.9262 2.54085 12.9477 2.37125C12.9662 2.19845 13.006 2.0289 13.0583 1.8625C13.2675 1.2001 13.7325 0.633825 14.3263 0.310625C14.3909 0.275425 14.4587 0.243175 14.5264 0.214375C14.2249 0.076775 13.8892 0 13.5385 0H5.53846ZM15.2428 0.71375C15.0336 0.75535 14.8306 0.8387 14.646 0.9475C14.2214 1.2099 13.9109 1.6382 13.7879 2.115C13.7571 2.2334 13.7351 2.35527 13.729 2.47687C13.7197 2.59847 13.7228 2.70703 13.729 2.86063L13.7692 3.72187L13.8305 5.12H16V2.56C16 1.8336 15.7105 1.17775 15.2428 0.71375ZM5.23077 4.8H10.7692V5.76H5.23077V4.8ZM5.23077 6.72H8.61539V7.68H5.23077V6.72Z" fill="#808080"/>
</svg>
