<svg width="22" height="22" viewBox="0 0 22 22" fill="none" xmlns="http://www.w3.org/2000/svg">
<path d="M7.61538 0C5.74538 0 4.23077 1.5752 4.23077 3.52V4.4L5.5 5.28H4.23077V6.16L5.92308 6.6L4.23077 7.48V9.79L5.5 10.12L4.23077 10.45V13.64L16.0769 14.08V18.48C16.0769 19.6944 15.4127 20.68 14.5962 20.68C13.7796 20.68 13.1154 19.6944 13.1154 18.48C13.1154 17.2656 13.7796 16.28 14.5962 16.28H14.8077V14.96H1.69231C0.757308 14.96 0 16.5352 0 18.48C0 20.4248 0.757308 22 1.69231 22H14.3846C16.2546 22 17.7692 20.4248 17.7692 18.48V12.76L16.5 11.88H17.7692V9.68L15.6538 9.24L17.7692 8.36V3.93336C17.7692 3.75736 17.7735 3.49367 17.8031 3.26047C17.8285 3.02287 17.8832 2.78974 17.9552 2.56094C18.2428 1.65014 18.8822 0.871509 19.6987 0.427109C19.7875 0.378709 19.8808 0.334366 19.9739 0.294766C19.5592 0.105566 19.0977 0 18.6154 0H7.61538ZM20.9588 0.981406C20.6711 1.03861 20.3921 1.15321 20.1383 1.30281C19.5545 1.66361 19.1275 2.25252 18.9583 2.90812C18.916 3.07092 18.8858 3.2385 18.8773 3.4057C18.8646 3.5729 18.8689 3.72216 18.8773 3.93336L18.9327 5.11758L19.017 7.04H22V3.52C22 2.5212 21.6019 1.61941 20.9588 0.981406ZM7.19231 6.6H14.8077V7.92H7.19231V6.6ZM7.19231 9.24H11.8462V10.56H7.19231V9.24Z" fill="#202020"/>
</svg>
