<svg width="25" height="25" viewBox="0 0 25 25" fill="none" xmlns="http://www.w3.org/2000/svg">
<path d="M3.94737 8.55263C1.76776 8.55263 0 10.3197 0 12.5C0 14.6796 1.76776 16.4474 3.94737 16.4474C6.12763 16.4474 7.89474 14.6796 7.89474 12.5C7.89474 10.3204 6.12763 8.55263 3.94737 8.55263Z" fill="#3DD9EB"/>
<path d="M21.0526 0C18.873 0 17.1053 1.76776 17.1053 3.94737C17.1053 6.12697 18.873 7.89474 21.0526 7.89474C23.2329 7.89474 25 6.12697 25 3.94737C25 1.76776 23.2329 0 21.0526 0Z" fill="#3DD9EB"/>
<path d="M21.0526 17.1053C18.873 17.1053 17.1053 18.8724 17.1053 21.0526C17.1053 23.2322 18.873 25 21.0526 25C23.2329 25 25 23.2322 25 21.0526C25 18.873 23.2329 17.1053 21.0526 17.1053Z" fill="#3DD9EB"/>
<path d="M17.6441 5.93947L13.2059 11.1842H7.66974C7.81579 11.5961 7.89474 12.0388 7.89474 12.5C7.89474 12.9612 7.81579 13.4039 7.6704 13.8158H13.2059L17.6441 19.0612C18.0967 18.2882 18.8053 17.6829 19.6526 17.3612L15.5395 12.5L19.652 7.63882C18.8046 7.31776 18.0967 6.71184 17.6441 5.93947Z" fill="#6C19FF"/>
<path d="M7.66974 11.1842H3.94737V13.8158H7.6704C7.81579 13.4046 7.89474 12.9612 7.89474 12.5C7.89474 12.0388 7.81579 11.5961 7.66974 11.1842Z" fill="#00B3D7"/>
<path d="M20.0487 3.09737L17.6441 5.93947C18.0967 6.7125 18.8046 7.31776 19.6526 7.63947L22.0572 4.79803L20.0487 3.09737Z" fill="#00B3D7"/>
<path d="M19.6526 17.3612C18.8053 17.6829 18.0967 18.2882 17.6441 19.0612L20.0487 21.9026L22.0572 20.2026L19.6526 17.3612Z" fill="#00B3D7"/>
</svg>
