<svg width="16" height="17" viewBox="0 0 16 17" fill="none" xmlns="http://www.w3.org/2000/svg">
<path d="M8 9.15703C5.28494 9.15703 0 10.62 0 13.3026C0 14.4139 0.687921 15.4216 1.79605 15.9339C3.24582 16.6044 5.58861 17 8.00999 17C10.2103 17 12.4758 16.6733 14.1953 15.9313C15.2914 15.4576 16 14.4263 16 13.3032C16 10.6207 10.7151 9.15703 8 9.15703ZM8 0C6.94028 0 5.92397 0.414711 5.17463 1.1529C4.4253 1.89109 4.00433 2.89229 4.00433 3.93625C4.00433 4.98021 4.4253 5.98141 5.17463 6.7196C5.92397 7.45779 6.94028 7.8725 8 7.8725C9.05972 7.8725 10.076 7.45779 10.8254 6.7196C11.5747 5.98141 11.9957 4.98021 11.9957 3.93625C11.9957 2.89229 11.5747 1.89109 10.8254 1.1529C10.076 0.414711 9.05972 0 8 0Z" fill="#08AF5E"/>
</svg>
