<svg width="50" height="50" viewBox="0 0 50 50" fill="none" xmlns="http://www.w3.org/2000/svg">
<rect width="50" height="50" rx="25" fill="#2DAEFD"/>
<path fill-rule="evenodd" clip-rule="evenodd" d="M31.8409 25.8696C31.2008 25.8696 30.694 26.394 30.5647 27.021C30.0045 29.7354 27.502 31.7826 24.5 31.7826C21.0861 31.7826 18.3182 29.135 18.3182 25.8696C18.3182 22.6041 21.0861 19.9565 24.5 19.9565C24.9947 19.9565 25.4743 20.0148 25.9345 20.1219C26.4161 20.234 26.542 20.823 26.1962 21.1765V21.1765C25.7578 21.6246 26.0892 22.3783 26.7157 22.3583L29.0411 22.2841C29.981 22.2541 30.7009 21.4375 30.6128 20.5012L30.4534 18.8064C30.3862 18.0929 29.5152 17.7842 29.0136 18.2961V18.2961C28.7533 18.5618 28.351 18.6213 28.0102 18.4722C26.9419 18.0046 25.7535 17.7391 24.5 17.7391C19.8063 17.7391 16 21.3799 16 25.8696C16 30.3592 19.8063 34 24.5 34C28.7837 34 32.3282 30.9675 32.9148 27.0249C33.009 26.3917 32.4811 25.8696 31.8409 25.8696V25.8696Z" fill="white"/>
</svg>
