<svg width="16" height="16" viewBox="0 0 16 16" fill="none" xmlns="http://www.w3.org/2000/svg">
<path d="M2.18182 7.27323e-05C0.985476 7.27323e-05 0 0.985545 0 2.18188V13.8182C0 15.0233 0.976727 16 2.18182 16H14.5455C15.3491 16 16 15.3491 16 14.5455V4.36369C16 3.56006 15.3491 2.90915 14.5455 2.90915H2.18182C1.77089 2.90915 1.45455 2.59281 1.45455 2.18188C1.45455 1.77095 1.77089 1.45461 2.18182 1.45461H13.0909C13.1873 1.45597 13.283 1.43817 13.3724 1.40223C13.4618 1.3663 13.5432 1.31294 13.6119 1.24527C13.6805 1.17761 13.735 1.09697 13.7722 1.00806C13.8094 0.919144 13.8285 0.823724 13.8285 0.727342C13.8285 0.630961 13.8094 0.53554 13.7722 0.446626C13.735 0.357713 13.6805 0.277078 13.6119 0.20941C13.5432 0.141741 13.4618 0.0883885 13.3724 0.0524514C13.283 0.0165143 13.1873 -0.00129021 13.0909 7.27323e-05H2.18182ZM13.0909 8.00004C13.8945 8.00004 14.5455 8.65094 14.5455 9.45458C14.5455 10.2582 13.8945 10.9091 13.0909 10.9091C12.2873 10.9091 11.6364 10.2582 11.6364 9.45458C11.6364 8.65094 12.2873 8.00004 13.0909 8.00004Z" fill="#08AF5E"/>
</svg>
