<svg width="14" height="19" viewBox="0 0 14 19" fill="none" xmlns="http://www.w3.org/2000/svg">
<path d="M13 16.1671H12V13.5861C12 13.0571 11.789 12.5491 11.414 12.1749L8.414 9.18071L11.414 6.18655C11.789 5.81228 12 5.30428 12 4.77531V2.19435H13C13.552 2.19435 14 1.74722 14 1.19629C14 0.645369 13.552 0.198242 13 0.198242H1C0.448 0.198242 0 0.645369 0 1.19629C0 1.74722 0.448 2.19435 1 2.19435H2V4.77531C2 5.30428 2.211 5.81228 2.586 6.18655L5.586 9.18071L2.586 12.1749C2.211 12.5491 2 13.0571 2 13.5861V16.1671H1C0.448 16.1671 0 16.6142 0 17.1651C0 17.716 0.448 18.1632 1 18.1632H13C13.552 18.1632 14 17.716 14 17.1651C14 16.6142 13.552 16.1671 13 16.1671Z" fill="#404040"/>
</svg>
