<svg width="18" height="18" viewBox="0 0 18 18" fill="none" xmlns="http://www.w3.org/2000/svg">
<path d="M6.3 0C4.81949 0 3.6 1.22255 3.6 2.70677C3.6 3.02423 3.66655 3.32491 3.76875 3.60902H0V7.21804H0.9V17.1429H8.1V7.21804H9.9V17.1429H17.1V7.21804H18V3.60902H14.2312C14.3335 3.32491 14.4 3.02423 14.4 2.70677C14.4 1.22255 13.1805 0 11.7 0C11.0083 0 10.38 0.274403 9.9 0.710174V0.690789L9.79453 0.796522L9 1.59304L8.20547 0.796522L8.1 0.690789V0.710174C7.61999 0.274403 6.99174 0 6.3 0ZM6.3 1.80451C6.80772 1.80451 7.2 2.19778 7.2 2.70677C7.2 3.21576 6.80772 3.60902 6.3 3.60902C5.79228 3.60902 5.4 3.21576 5.4 2.70677C5.4 2.19778 5.79228 1.80451 6.3 1.80451ZM11.7 1.80451C12.2077 1.80451 12.6 2.19778 12.6 2.70677C12.6 3.21576 12.2077 3.60902 11.7 3.60902C11.1923 3.60902 10.8 3.21576 10.8 2.70677C10.8 2.19778 11.1923 1.80451 11.7 1.80451Z" fill="#404040"/>
</svg>
