<svg width="18" height="19" viewBox="0 0 18 19" fill="none" xmlns="http://www.w3.org/2000/svg">
<path d="M16.5202 0.706164C16.3953 0.694772 16.2691 0.697188 16.1419 0.714944C14.0812 1.00348 9.65394 1.63922 5.11786 6.99234H3.2424C2.92983 6.99234 2.63084 7.12052 2.41375 7.34528L0.343001 9.49628C0.00790915 9.83072 -0.092303 10.3297 0.0896553 10.7676C0.270713 11.2054 0.695179 11.4875 1.16989 11.4875H3.3849C3.08649 11.8239 2.92974 12.1817 2.7621 12.5884C2.57649 13.0387 2.41297 13.5353 2.273 14.0055C1.99306 14.9458 1.80677 15.7877 1.80677 15.7877C1.77387 15.9354 1.77883 16.089 1.8212 16.2342C1.86356 16.3795 1.94197 16.5117 2.04915 16.6187C2.15633 16.7257 2.28882 16.8039 2.43436 16.8462C2.5799 16.8885 2.73377 16.8934 2.88173 16.8606C2.88173 16.8606 3.72531 16.6747 4.66747 16.3953C5.13855 16.2556 5.63608 16.0924 6.08726 15.9071C6.49476 15.7398 6.85329 15.5834 7.19036 15.2855V17.4962C7.19036 17.97 7.47301 18.3946 7.91169 18.5744C8.06032 18.6364 8.21513 18.6639 8.36736 18.6639C8.66552 18.6639 8.95377 18.5536 9.15555 18.3514L11.3178 16.3847C11.5574 16.1672 11.6943 15.8594 11.6943 15.5366V13.556C17.0556 9.02925 17.6941 4.60999 17.9839 2.55339C18.0551 2.04274 17.8878 1.54086 17.523 1.17675C17.2487 0.902995 16.8946 0.740341 16.5202 0.706164ZM13.0455 4.29526C13.7913 4.29526 14.3966 4.8994 14.3966 5.6438C14.3966 6.38819 13.7913 6.99234 13.0455 6.99234C12.2996 6.99234 11.6943 6.38819 11.6943 5.6438C11.6943 4.8994 12.2996 4.29526 13.0455 4.29526ZM9.44232 7.89137C10.1882 7.89137 10.7935 8.49552 10.7935 9.23991C10.7935 9.98431 10.1882 10.5885 9.44232 10.5885C8.69647 10.5885 8.09115 9.98431 8.09115 9.23991C8.09115 8.49552 8.69647 7.89137 9.44232 7.89137ZM5.06508 12.3373L6.33884 13.6086L6.02568 13.9212C6.042 13.9049 5.7614 14.0963 5.40111 14.2443C5.04083 14.3922 4.58873 14.542 4.15374 14.671C4.04507 14.7032 4.05099 14.6959 3.94614 14.7254C3.97567 14.6207 3.96839 14.6267 4.00067 14.5182C4.12992 14.084 4.27998 13.6328 4.42819 13.2733C4.57641 12.9137 4.76824 12.6336 4.75191 12.6499L5.06508 12.3373Z" fill="#404040"/>
</svg>
