<svg width="33" height="25" viewBox="0 0 33 25" fill="none" xmlns="http://www.w3.org/2000/svg">
<path d="M28.1379 3.53879C25.3516 1.29661 20.9438 0.916529 20.7551 0.902857C20.4625 0.878247 20.1836 1.04231 20.0633 1.31301C20.0523 1.32942 19.9566 1.5509 19.85 1.89543C21.693 2.20715 23.957 2.83333 26.0051 4.10481C26.3332 4.30715 26.4344 4.73918 26.232 5.06731C26.098 5.28333 25.8711 5.4009 25.6359 5.4009C25.5102 5.4009 25.3816 5.36536 25.2668 5.29426C21.7449 3.1095 17.348 3.00012 16.5004 3.00012C15.6527 3.00012 11.2531 3.1095 7.73398 5.29426C7.40586 5.49934 6.97383 5.39817 6.77148 5.07004C6.56641 4.73918 6.66758 4.30989 6.9957 4.10481C9.04375 2.83606 11.3078 2.20715 13.1508 1.89817C13.0441 1.5509 12.9484 1.33215 12.9402 1.31301C12.8172 1.04231 12.541 0.872779 12.2457 0.902857C12.057 0.916529 7.64922 1.29661 4.82461 3.56887C3.35078 4.93333 0.400391 12.9068 0.400391 19.8001C0.400391 19.9232 0.433203 20.0407 0.49336 20.1474C2.52773 23.724 8.08125 24.6591 9.34727 24.7001C9.35273 24.7001 9.36094 24.7001 9.36914 24.7001C9.59336 24.7001 9.80391 24.5935 9.93516 24.413L11.2148 22.6521C7.76133 21.7607 5.99766 20.2458 5.89648 20.1556C5.60664 19.9013 5.5793 19.4583 5.83633 19.1685C6.09062 18.8786 6.53359 18.8513 6.82344 19.1056C6.86445 19.1439 10.1129 21.9001 16.5004 21.9001C22.8988 21.9001 26.1473 19.1329 26.1801 19.1056C26.4699 18.854 26.9102 18.8786 27.1672 19.1712C27.4215 19.4611 27.3941 19.9013 27.1043 20.1556C27.0031 20.2458 25.2395 21.7607 21.7859 22.6521L23.0656 24.413C23.1969 24.5935 23.4074 24.7001 23.6316 24.7001C23.6398 24.7001 23.648 24.7001 23.6535 24.7001C24.9195 24.6591 30.473 23.724 32.5074 20.1474C32.5676 20.0407 32.6004 19.9232 32.6004 19.8001C32.6004 12.9068 29.65 4.93333 28.1379 3.53879ZM11.9504 17.0001C10.5969 17.0001 9.50039 15.7478 9.50039 14.2001C9.50039 12.6525 10.5969 11.4001 11.9504 11.4001C13.3039 11.4001 14.4004 12.6525 14.4004 14.2001C14.4004 15.7478 13.3039 17.0001 11.9504 17.0001ZM21.0504 17.0001C19.6969 17.0001 18.6004 15.7478 18.6004 14.2001C18.6004 12.6525 19.6969 11.4001 21.0504 11.4001C22.4039 11.4001 23.5004 12.6525 23.5004 14.2001C23.5004 15.7478 22.4039 17.0001 21.0504 17.0001Z" fill="#404040"/>
</svg>
