<svg width="30" height="30" viewBox="0 0 30 30" fill="none" xmlns="http://www.w3.org/2000/svg">
<path d="M30 4.58333V25.4167C30 27.9417 27.9417 30 25.4167 30H20.8333V18.3333H23.85C24.275 18.3333 24.6333 18.0167 24.6833 17.6L24.9917 15.1C25.025 14.8667 24.95 14.625 24.7917 14.45C24.6333 14.2667 24.4083 14.1667 24.1667 14.1667H20.8333V11.25C20.8333 10.3333 21.5833 9.58333 22.5 9.58333H24.1667C24.625 9.58333 25 9.20833 25 8.75V5.93333C25 5.50833 24.6667 5.15 24.2417 5.10833C24.1917 5.1 23.0167 5 21.525 5C17.8583 5 15.8333 7.18333 15.8333 11.1417V14.1667H12.5C12.0417 14.1667 11.6667 14.5417 11.6667 15V17.5C11.6667 17.9583 12.0417 18.3333 12.5 18.3333H15.8333V30H4.58333C2.05833 30 0 27.9417 0 25.4167V4.58333C0 2.05833 2.05833 0 4.58333 0H25.4167C27.9417 0 30 2.05833 30 4.58333Z" fill="#404040"/>
</svg>
