<svg width="31" height="29" viewBox="0 0 31 29" fill="none" xmlns="http://www.w3.org/2000/svg">
<path d="M30.2961 0.586089C29.7711 0.140889 28.9465 0.0771889 28.0939 0.419489H28.0925C27.1958 0.779289 2.70978 11.2821 1.71298 11.7112C1.53168 11.7742 -0.0517244 12.365 0.111376 13.681C0.256976 14.8675 1.52958 15.3589 1.68498 15.4156L7.91008 17.5471C8.32308 18.9219 9.84558 23.9941 10.1823 25.0777C10.3923 25.7532 10.7346 26.6408 11.3345 26.8235C11.8609 27.0265 12.3845 26.841 12.7233 26.575L16.5292 23.0449L22.6731 27.8364L22.8194 27.9239C23.2366 28.1087 23.6363 28.2011 24.0178 28.2011C24.3125 28.2011 24.5953 28.1458 24.8655 28.0352C25.786 27.6572 26.1542 26.7801 26.1927 26.6807L30.7819 2.82679C31.0619 1.55279 30.6727 0.904589 30.2961 0.586089ZM13.4002 18.3997L11.3002 23.9997L9.20018 16.9997L25.3002 5.09969L13.4002 18.3997Z" fill="#404040"/>
</svg>
