<svg width="35" height="28" viewBox="0 0 35 28" fill="none" xmlns="http://www.w3.org/2000/svg">
<path d="M34.0409 3.88844C32.8214 4.42984 31.5143 4.79336 30.1402 4.95836C31.5427 4.11789 32.6203 2.78758 33.1256 1.20461C31.8159 1.98062 30.3593 2.54523 28.815 2.84945C27.5775 1.52945 25.8141 0.707031 23.8624 0.707031C20.1138 0.707031 17.0742 3.74406 17.0742 7.49266C17.0742 8.02375 17.1361 8.54195 17.2521 9.03953C11.6112 8.75594 6.61219 6.05406 3.2632 1.94711C2.67797 2.95258 2.34539 4.11789 2.34539 5.36055C2.34539 7.71437 3.54164 9.79234 5.36437 11.0118C4.25062 10.9757 3.20391 10.6689 2.28867 10.161C2.28867 10.1894 2.28867 10.2177 2.28867 10.2461C2.28867 13.5358 4.62961 16.2763 7.73109 16.9028C7.16391 17.0575 6.5632 17.14 5.94445 17.14C5.50617 17.14 5.08078 17.0987 4.6657 17.0162C5.53195 19.7104 8.03789 21.6775 11.0053 21.7316C8.685 23.5518 5.75883 24.6346 2.57742 24.6346C2.02828 24.6346 1.48945 24.6037 0.960938 24.5392C3.96188 26.4677 7.53 27.5891 11.3637 27.5891C23.847 27.5891 30.6738 17.2483 30.6738 8.28156C30.6738 7.98766 30.6661 7.69117 30.6558 7.40242C31.9809 6.44594 33.1308 5.24969 34.0409 3.88844Z" fill="#404040"/>
</svg>
