<svg width="34" height="26" viewBox="0 0 34 26" fill="none" xmlns="http://www.w3.org/2000/svg">
<path d="M33.0206 4.6002C32.7098 2.84082 31.2291 1.55957 29.5106 1.15957C26.9391 0.600195 22.1798 0.200195 17.0306 0.200195C11.8845 0.200195 7.04906 0.600195 4.47445 1.15957C2.75906 1.55957 1.27523 2.75957 0.964453 4.6002C0.650625 6.6002 0.339844 9.4002 0.339844 13.0002C0.339844 16.6002 0.650625 19.4002 1.04063 21.4002C1.35445 23.1596 2.83524 24.4408 4.55063 24.8408C7.28063 25.4002 11.9606 25.8002 17.1098 25.8002C22.2591 25.8002 26.9391 25.4002 29.6691 24.8408C31.3845 24.4408 32.8652 23.2408 33.1791 21.4002C33.4898 19.4002 33.8798 16.5189 33.9591 13.0002C33.8006 9.4002 33.4106 6.6002 33.0206 4.6002ZM12.8198 18.6002V7.4002L22.3352 13.0002L12.8198 18.6002Z" fill="#404040"/>
</svg>
