<svg width="19" height="19" viewBox="0 0 19 19" fill="none" xmlns="http://www.w3.org/2000/svg">
<path d="M7.22222 0.399902C3.24025 0.399902 0 3.63384 0 7.60805C0 11.5823 3.24025 14.8162 7.22222 14.8162C8.65734 14.8162 9.99281 14.3915 11.1183 13.6681L15.7901 18.3309C16.391 18.9306 17.3655 18.9306 17.966 18.3309C18.5669 17.7312 18.5669 16.759 17.966 16.1593L13.2941 11.4965C14.0189 10.3732 14.4444 9.04037 14.4444 7.60805C14.4444 3.63384 11.2042 0.399902 7.22222 0.399902ZM7.22222 3.28316C9.61133 3.28316 11.5556 5.2236 11.5556 7.60805C11.5556 9.99251 9.61133 11.9329 7.22222 11.9329C4.83311 11.9329 2.88889 9.99251 2.88889 7.60805C2.88889 5.2236 4.83311 3.28316 7.22222 3.28316Z" fill="#404040"/>
</svg>
