<svg width="24" height="23" viewBox="0 0 24 23" fill="none" xmlns="http://www.w3.org/2000/svg">
<path d="M6.9285 0.633374L7.02186 3.16863C6.08438 3.70348 5.24649 4.38218 4.54397 5.17944L2.67694 4.76129L1.39171 5.91939L1.64711 6.19393M6.9285 0.633374L7.09477 1.10492L7.4417 0.982594M6.9285 0.633374L7.42817 0.614976L7.4417 0.982594M6.9285 0.633374L8.12938 0.209953C8.51314 0.0745712 8.94249 0.197711 9.18797 0.513903L10.3372 1.99236C10.8629 1.90732 11.4017 1.86059 11.9523 1.86059C12.506 1.86059 13.0478 1.90811 13.5764 1.99412L15.1815 0L0.663109 13.8004M7.4417 0.982594L7.52152 3.15023L7.53266 3.45285L7.26963 3.60292C6.37886 4.11112 5.5843 4.7551 4.91911 5.51L4.72346 5.73202L4.43469 5.66735L2.56767 5.2492L2.56703 5.24906C2.37552 5.2059 2.18481 5.29191 2.09413 5.44412L2.09405 5.44427L1.64711 6.19393M7.4417 0.982594L8.29564 0.6815L8.29572 0.681472C8.48124 0.616025 8.68273 0.678462 8.79302 0.820522L8.7932 0.820757L9.94242 2.29922L10.1244 2.53329L10.417 2.48594C10.918 2.4049 11.4301 2.36059 11.9523 2.36059C12.4773 2.36059 12.9922 2.40564 13.4961 2.48763L13.7834 2.53438L13.9659 2.30763L15.3489 0.589439L16.2158 0.895738L16.216 0.895818C16.3982 0.960074 16.5009 1.12393 16.4921 1.28954L16.3924 3.14711L16.3759 3.4549L16.6435 3.60792C17.5334 4.11691 18.3274 4.76085 18.9914 5.5158L19.1834 5.73403L19.468 5.67525L21.6763 5.21924L22.1328 5.98483C22.1328 5.98494 22.1329 5.98506 22.133 5.98517C22.2205 6.13279 22.2003 6.31779 22.0773 6.44555L22.0772 6.44565L20.7757 7.79849L20.559 8.02371L20.6665 8.31715C21.0019 9.23246 21.1878 10.216 21.1952 11.2419L21.1974 11.5443L21.4663 11.6827L23.4417 12.6999L23.286 13.5548L23.286 13.5552C23.2562 13.7195 23.1143 13.8614 22.9181 13.8849L21.0252 14.1107L20.726 14.1463L20.6177 14.4275C20.2548 15.3703 19.732 16.2383 19.0801 17.0012L18.8804 17.2349L18.9988 17.5186L19.8329 19.5168L19.1446 20.0769C18.9991 20.1953 18.7859 20.209 18.6244 20.1074L17.0185 19.0964L16.7692 18.9394L16.5111 19.0815C15.6274 19.5677 14.6568 19.9198 13.6244 20.1024L13.3316 20.1542L13.2373 20.4361L12.5467 22.5H11.6296C11.4308 22.5 11.2701 22.3752 11.2192 22.2136L11.2191 22.2134L10.6599 20.4425L10.5687 20.1537L10.2707 20.1007C9.23868 19.9172 8.26867 19.5642 7.38566 19.0773L7.13238 18.9376L6.88503 19.0875L4.97049 20.248L4.26594 19.6746L4.26563 19.6744C4.12349 19.5589 4.08271 19.3763 4.1499 19.2232L4.15004 19.2229L4.89594 17.5195L5.02153 17.2327L4.81837 16.9945C4.16717 16.2309 3.64538 15.3619 3.28334 14.4184L3.17725 14.1419L2.88382 14.102L0.663109 13.8004M1.64711 6.19393L3.13729 7.79579L3.34644 8.02062L3.24051 8.30884C2.90422 9.22385 2.7177 10.2076 2.70926 11.2335L2.70673 11.5414L2.43071 11.6777L0.728629 12.5184C0.557879 12.6028 0.476579 12.7762 0.506063 12.938L0.506078 12.9381L0.663109 13.8004M1.64711 6.19393L0.663109 13.8004M12.0098 8.2111L12.245 8.21514L12.3981 8.03655L13.9755 6.19593L14.5023 6.51728L14.0075 8.57277L13.9384 8.85989L14.1564 9.05902C14.2795 9.17137 14.3931 9.29402 14.4984 9.42629L14.6448 9.61032L14.88 9.61487L17.3478 9.66264L17.4139 10.2357L15.4397 11.1461L15.1753 11.268L15.1509 11.5582C15.137 11.7236 15.109 11.8854 15.0686 12.0441L15.0075 12.2835L15.1606 12.4775L16.6443 14.3567L16.2134 14.7741L14.2351 13.8389L13.9821 13.7193L13.7479 13.8723C13.6096 13.9627 13.4593 14.0428 13.2985 14.1148L13.0788 14.2133L13.0188 14.4464L12.4236 16.7569L11.797 16.6878L11.322 14.6249L11.2572 14.3437L10.9813 14.2591C10.82 14.2096 10.6618 14.1447 10.5046 14.0677L10.2953 13.9651L10.0821 14.0595L7.83229 15.0559L7.50989 14.5578L8.8747 12.9149L9.06447 12.6865L8.95467 12.4106C8.89207 12.2533 8.84184 12.0956 8.80758 11.9367L8.75654 11.6999L8.53914 11.5932L6.35573 10.5213L6.55278 9.97671L8.75251 9.98655L9.03513 9.98782L9.18197 9.74633C9.27141 9.59922 9.36796 9.46262 9.47378 9.33882L9.63434 9.15099L9.58265 8.90935L9.08676 6.59118L9.67648 6.39214L11.039 8.06395L11.2166 8.28191L11.4952 8.24335C11.6512 8.22175 11.799 8.20809 11.9452 8.20767C11.9459 8.20772 11.9467 8.20778 11.9476 8.20785L11.9703 8.20947C11.9805 8.21011 11.9941 8.21083 12.0098 8.2111ZM19.8768 11.3059C19.8768 7.04046 16.3143 3.60946 11.9523 3.60946C7.59024 3.60946 4.02766 7.04046 4.02766 11.3059C4.02766 15.5708 7.59022 19.0023 11.9523 19.0023C16.3143 19.0023 19.8768 15.5708 19.8768 11.3059ZM14.3084 11.3059C14.3084 10.0229 13.2372 9.00676 11.9523 9.00676C10.6673 9.00676 9.5961 10.0229 9.5961 11.3059C9.5961 12.5888 10.6673 13.605 11.9523 13.605C13.2372 13.605 14.3084 12.5888 14.3084 11.3059Z" fill="black" stroke="#404040"/>
</svg>
