<svg width="24" height="24" viewBox="0 0 24 24" fill="none" xmlns="http://www.w3.org/2000/svg">
<path d="M9.9 0C9.4026 0 9 0.4032 9 0.9V1.25742C9 1.83702 8.65351 2.3535 8.08711 2.5875C7.54831 2.8143 6.93597 2.69318 6.52617 2.28398L6.27305 2.03086C6.10445 1.86166 5.87552 1.76602 5.63672 1.76602C5.39792 1.76602 5.16842 1.86109 4.99922 2.02969L2.02969 4.99922C1.86049 5.16782 1.76602 5.39792 1.76602 5.63672C1.76602 5.87552 1.86166 6.10385 2.03086 6.27305L2.28281 6.52617C2.69261 6.93657 2.81281 7.54875 2.57461 8.11875C2.35381 8.65395 1.83642 9 1.25742 9H0.9C0.4026 9 0 9.4032 0 9.9V14.1C0 14.5968 0.4026 15 0.9 15H1.25742C1.83642 15 2.3541 15.3459 2.5875 15.9129C2.8125 16.4517 2.69201 17.0652 2.28281 17.475L2.03086 17.7281C1.86166 17.8967 1.76602 18.1251 1.76602 18.3645C1.76602 18.6027 1.86109 18.8328 2.02969 19.002L4.99922 21.9715C5.16782 22.1401 5.39792 22.2352 5.63672 22.2352C5.87552 22.2352 6.10385 22.1395 6.27305 21.9703L6.52617 21.7184C6.93717 21.3086 7.54935 21.1878 8.11875 21.4266C8.65335 21.6462 9 22.163 9 22.7426V23.1C9 23.5968 9.4026 24 9.9 24H14.1C14.5974 24 15 23.5968 15 23.1V22.7426C15 22.163 15.3465 21.6465 15.9129 21.4125C16.4529 21.1875 17.0646 21.3074 17.4738 21.716L17.727 21.9691C17.8956 22.1383 18.1245 22.234 18.3633 22.234C18.6021 22.234 18.8316 22.1389 19.0008 21.9703L21.9703 19.0008C22.1395 18.8322 22.234 18.6021 22.234 18.3633C22.234 18.1245 22.1383 17.8962 21.9691 17.727L21.7172 17.4738C21.3074 17.0634 21.1872 16.4513 21.4254 15.8813C21.6462 15.3461 22.1636 15 22.7426 15H23.1C23.5974 15 24 14.5968 24 14.1V9.9C24 9.4032 23.5974 9 23.1 9H22.7426C22.1636 9 21.6459 8.65411 21.4125 8.08711C21.1875 7.54831 21.308 6.9348 21.7172 6.525L21.9691 6.27188C22.1383 6.10328 22.234 5.87495 22.234 5.63555C22.234 5.39735 22.1389 5.16725 21.9703 4.99805L19.0008 2.02852C18.8322 1.85992 18.6021 1.76484 18.3633 1.76484C18.1245 1.76484 17.8962 1.86049 17.727 2.02969L17.4738 2.28164C17.0634 2.69204 16.4519 2.81284 15.8813 2.57344C15.3467 2.35384 15 1.83702 15 1.25742V0.9C15 0.4032 14.5974 0 14.1 0H9.9ZM11.1 5.77148V9.18516C10.5685 9.34376 10.0859 9.58338 9.75234 9.95859C9.2374 10.5379 9 11.275 9 12C9 12.2195 9.06551 12.4345 9.11016 12.6516L6.15586 14.3461C5.86432 13.6206 5.7 12.8298 5.7 12C5.7 8.827 8.0481 6.20922 11.1 5.77148ZM12.9 5.77148C15.9519 6.20922 18.3 8.827 18.3 12C18.3 12.8298 18.1357 13.6206 17.8441 14.3461L14.8887 12.6563C14.934 12.4377 15 12.2211 15 12C15 11.275 14.7626 10.5379 14.2477 9.95859C13.9141 9.58338 13.4315 9.34376 12.9 9.18516V5.77148ZM12 10.8C12.475 10.8 12.7173 10.9457 12.9023 11.1539C13.0874 11.3621 13.2 11.675 13.2 12C13.2 12.325 13.0874 12.6379 12.9023 12.8461C12.7173 13.0543 12.475 13.2 12 13.2C11.525 13.2 11.2827 13.0543 11.0977 12.8461C10.9126 12.6379 10.8 12.325 10.8 12C10.8 11.675 10.9126 11.3621 11.0977 11.1539C11.2827 10.9457 11.525 10.8 12 10.8ZM9.99727 14.2172C10.5094 14.6767 11.1918 15 12 15C12.8056 15 13.4851 14.6776 13.9969 14.2207L16.9395 15.9023C15.7856 17.3611 14.0043 18.3 12 18.3C9.99507 18.3 8.21319 17.3607 7.05938 15.9012L9.99727 14.2172Z" fill="white"/>
</svg>
