<svg width="24" height="17" viewBox="0 0 24 17" fill="none" xmlns="http://www.w3.org/2000/svg">
<path d="M15.6396 0.00103883C15.0694 -0.0208474 14.5404 0.30471 14.3074 0.824508C14.0717 1.34431 14.1731 1.95165 14.5678 2.36749L18.8796 7.01831H1.42401C0.916904 7.0101 0.448173 7.27547 0.193249 7.71319C-0.0644163 8.14818 -0.0644163 8.68986 0.193249 9.12485C0.448173 9.56258 0.916904 9.82795 1.42401 9.81974H18.8796L14.5678 14.4706C14.217 14.8372 14.0936 15.3624 14.2416 15.8467C14.3896 16.3309 14.7871 16.6975 15.2805 16.8069C15.7767 16.9163 16.292 16.7495 16.6291 16.3747L24 8.41902L16.6291 0.463385C16.377 0.184336 16.0179 0.0147175 15.6396 0.00103883Z" fill="#202020"/>
</svg>
