<svg width="23" height="23" viewBox="0 0 23 23" fill="none" xmlns="http://www.w3.org/2000/svg">
<path d="M11.5 0C8.45001 0 5.52494 1.2116 3.36827 3.36827C1.2116 5.52494 0 8.45001 0 11.5C0 14.55 1.2116 17.4751 3.36827 19.6317C5.52494 21.7884 8.45001 23 11.5 23C14.55 23 17.4751 21.7884 19.6317 19.6317C21.7884 17.4751 23 14.55 23 11.5C23 8.45001 21.7884 5.52494 19.6317 3.36827C17.4751 1.2116 14.55 0 11.5 0Z" fill="#29B6F6"/>
<path d="M17.2213 6.325L15.0673 17.3225C15.0673 17.3225 14.9747 17.825 14.3514 17.825C14.0202 17.825 13.8495 17.6674 13.8495 17.6674L9.1839 13.796L6.90115 12.6454L3.97152 11.8663C3.97152 11.8663 3.45 11.7156 3.45 11.2844C3.45 10.925 3.98647 10.7536 3.98647 10.7536L16.2432 5.88455C16.2432 5.88455 16.6175 5.74942 16.8906 5.75C17.0585 5.75 17.25 5.82188 17.25 6.0375C17.25 6.18125 17.2213 6.325 17.2213 6.325Z" fill="white"/>
<path d="M10.925 15.2404L8.95505 17.1804C8.95505 17.1804 8.86938 17.2466 8.75495 17.2494C8.71528 17.2506 8.67273 17.2443 8.62903 17.2247L9.18333 13.7948L10.925 15.2404Z" fill="#B0BEC5"/>
<path d="M14.8908 8.1627C14.7936 8.0362 14.6142 8.0132 14.4877 8.10923L6.9 12.65C6.9 12.65 8.11095 16.0379 8.29553 16.6244C8.48068 17.2115 8.62903 17.2253 8.62903 17.2253L9.18333 13.7954L14.8367 8.5652C14.9632 8.46917 14.9868 8.2892 14.8908 8.1627Z" fill="#CFD8DC"/>
</svg>
