<svg width="19" height="22" viewBox="0 0 19 22" fill="none" xmlns="http://www.w3.org/2000/svg">
<path d="M7.58634 18.1433C9.08248 18.1433 10.2958 16.9096 10.2958 15.3884V14.2865V1.10193H13.1179C13.1011 1.02479 13.0789 0.949862 13.0653 0.871074C13.0415 0.734435 13.0236 0.598347 13.0111 0.460055V0H9.21199V14.2865C9.21199 15.8077 7.99872 17.0413 6.50258 17.0413C6.03439 17.0413 5.60035 16.9096 5.21561 16.697C5.67513 17.5543 6.55839 18.1433 7.58634 18.1433Z" fill="#3DD9EB"/>
<path d="M15.0199 4.04242C14.588 3.43967 14.2808 2.73829 14.1491 1.973C14.1252 1.83636 14.1074 1.70028 14.0949 1.56198V1.10193H13.1179C13.3839 2.30413 14.0721 3.33994 15.0199 4.04242Z" fill="#F55376"/>
<path d="M6.50258 11.5317C5.00645 11.5317 3.79317 12.7653 3.79317 14.2865C3.79317 15.3317 4.37244 16.2298 5.21561 16.697C5.00645 16.3058 4.87694 15.8645 4.87694 15.3884C4.87694 13.8672 6.09021 12.6336 7.58634 12.6336C7.77221 12.6336 7.9532 12.6529 8.12823 12.6893V8.80496C7.94886 8.78953 7.7695 8.77686 7.58634 8.77686C7.40319 8.77686 7.22383 8.78953 7.04446 8.80441V11.5868C6.86943 11.551 6.68845 11.5317 6.50258 11.5317Z" fill="#F55376"/>
<path d="M16.3957 5.35152C16.8655 5.64959 17.3814 5.85179 17.9162 5.97466V5.00551C16.995 5.00716 16.0933 4.7449 15.312 4.24904C15.2112 4.18512 15.1163 4.11295 15.0204 4.04187C15.3927 4.56253 15.8571 5.00992 16.3957 5.35152Z" fill="#3DD9EB"/>
<path d="M7.04446 8.80441V7.70248C6.8651 7.6876 6.68574 7.67493 6.50258 7.67493C2.91153 7.67493 0 10.6353 0 14.2865C0 16.3934 0.972678 18.2656 2.48236 19.476C1.60885 18.351 1.08376 16.9333 1.08376 15.3884C1.08376 11.9229 3.70755 9.0854 7.04446 8.80441Z" fill="#3DD9EB"/>
<path d="M17.9157 5.97466V8.58237C16.0868 8.58237 14.3929 7.99229 13.0106 6.98788L13.0122 14.2865L13.0046 14.2766C13.0046 14.2799 13.0052 14.2832 13.0052 14.2865C13.0052 17.9377 10.0936 20.8981 6.50258 20.8981C4.98314 20.8981 3.58888 20.3642 2.48236 19.476C3.67287 21.011 5.51419 22 7.58634 22C11.1774 22 14.0889 19.0397 14.0889 15.3884C14.0889 15.3851 14.0884 15.3818 14.0884 15.3785L14.096 15.3884L14.0949 8.08926C15.4772 9.09367 17.1711 9.68375 19 9.68375V6.10744C18.6326 6.10854 18.2706 6.05565 17.9157 5.97466Z" fill="#F55376"/>
<path d="M13.0052 14.2865C13.0052 14.2832 13.0046 14.2799 13.0046 14.2766L13.0122 14.2865L13.0111 6.98733C14.3935 7.99174 16.0874 8.58182 17.9162 8.58182V5.9741C17.3814 5.85124 16.8655 5.64904 16.3957 5.35096C15.8571 5.00937 15.3927 4.56198 15.0204 4.04187C14.0721 3.33939 13.3845 2.30358 13.1184 1.10138H10.2958V14.2865V15.3884C10.2958 16.9096 9.08248 18.1433 7.58634 18.1433C6.55839 18.1433 5.67513 17.5543 5.21561 16.697C4.37244 16.2298 3.79317 15.3317 3.79317 14.2865C3.79317 12.7653 5.00645 11.5317 6.50258 11.5317C6.68845 11.5317 6.86943 11.551 7.04446 11.5873V8.80496C3.70755 9.0854 1.08376 11.9229 1.08376 15.3884C1.08376 16.9333 1.60885 18.351 2.48236 19.476C3.58888 20.3642 4.98314 20.8981 6.50258 20.8981C10.0936 20.8981 13.0052 17.9377 13.0052 14.2865Z" fill="#2100C4"/>
</svg>
