<svg width="20" height="21" viewBox="0 0 20 21" fill="none" xmlns="http://www.w3.org/2000/svg">
<path d="M10 0.529053C4.489 0.529053 0 5.0093 0 10.5096C0 16.0098 4.489 20.4901 10 20.4901C15.511 20.4901 20 16.0098 20 10.5096C20 5.0093 15.511 0.529053 10 0.529053ZM10 2.52516C14.4301 2.52516 18 6.08808 18 10.5096C18 14.9311 14.4301 18.494 10 18.494C5.56988 18.494 2 14.9311 2 10.5096C2 6.08808 5.56988 2.52516 10 2.52516ZM9 4.52126V10.9228L13.293 15.2074L14.707 13.7961L11 10.0963V4.52126H9Z" fill="#808080"/>
</svg>
