<svg width="22" height="22" viewBox="0 0 22 22" fill="none" xmlns="http://www.w3.org/2000/svg">
<path d="M8.62033 6.09644L15.5027 15.9036H13.673L6.80289 6.09644H8.62033ZM22 3.66667V18.3333C22 20.3586 20.3586 22 18.3333 22H3.66667C1.64144 22 0 20.3586 0 18.3333V3.66667C0 1.64144 1.64144 0 3.66667 0H18.3333C20.3586 0 22 1.64144 22 3.66667ZM17.7687 17.1111L12.6524 9.79L16.8349 4.88889H15.2326L11.9277 8.75111L9.23022 4.88889H4.52467L9.34144 11.7737L4.774 17.1111H6.40322L10.0711 12.8138L13.0753 17.1111H17.7687Z" fill="#202020"/>
</svg>
