<svg width="18" height="18" viewBox="0 0 18 18" fill="none" xmlns="http://www.w3.org/2000/svg">
<path d="M7.21525 5.11689L12.377 12.4579H11.0048L5.85217 5.11689H7.21525ZM17.25 3.29811V14.2767C17.25 15.7926 16.0189 17.0213 14.5 17.0213H3.5C1.98108 17.0213 0.75 15.7926 0.75 14.2767V3.29811C0.75 1.78215 1.98108 0.553467 3.5 0.553467H14.5C16.0189 0.553467 17.25 1.78215 17.25 3.29811ZM14.0765 13.3618L10.2393 7.88166L13.3762 4.21299H12.1744L9.69575 7.10401L7.67267 4.21299H4.1435L7.75608 9.36651L4.3305 13.3618H5.55242L8.30333 10.1451L10.5565 13.3618H14.0765Z" fill="#808080"/>
</svg>
