<svg width="18" height="16" viewBox="0 0 18 16" fill="none" xmlns="http://www.w3.org/2000/svg">
<path d="M9.00015 8.6709e-06C8.85906 -0.000650988 8.72037 0.0364355 8.59854 0.107405C8.4767 0.178374 8.37618 0.28063 8.30743 0.40352L0.105757 14.8023C0.0361788 14.9237 -0.000283855 15.0612 1.66399e-06 15.2011C0.000287182 15.341 0.0373109 15.4783 0.107385 15.5995C0.177459 15.7206 0.278137 15.8214 0.399391 15.8917C0.520644 15.9619 0.658241 15.9993 0.798475 16H17.2014C17.3417 15.9993 17.4793 15.962 17.6006 15.8917C17.7219 15.8215 17.8226 15.7207 17.8926 15.5996C17.9627 15.4784 17.9997 15.341 18 15.2011C18.0003 15.0612 17.9638 14.9237 17.8941 14.8023L9.69286 0.40352C9.62412 0.28063 9.52359 0.178373 9.40176 0.107404C9.27992 0.0364343 9.14123 -0.000651833 9.00015 8.6709e-06Z" fill="url(#paint0_linear_30_1226)"/>
<path d="M1.38034 14.8L9.00037 1.60001L16.6196 14.8H1.38034Z" fill="url(#paint1_linear_30_1226)"/>
<path d="M9.00559 14C8.73773 14.0095 8.47682 13.9139 8.27892 13.7336C8.18763 13.6528 8.11482 13.5534 8.06542 13.442C8.01602 13.3307 7.99118 13.2101 7.99258 13.0884C7.98921 12.9657 8.01344 12.8438 8.06347 12.7317C8.11351 12.6196 8.18808 12.52 8.28172 12.4404C8.48288 12.2689 8.74115 12.1789 9.00559 12.188C9.26989 12.1775 9.5281 12.2689 9.72665 12.4432C9.81766 12.5239 9.88993 12.6235 9.93842 12.7349C9.9869 12.8463 10.0104 12.967 10.0074 13.0884C10.0107 13.2108 9.98764 13.3325 9.93968 13.4452C9.89173 13.5579 9.82003 13.659 9.72945 13.7416C9.53117 13.9186 9.27143 14.0113 9.00559 14ZM9.89669 6.2884L9.70379 11.1584C9.7009 11.23 9.67036 11.2977 9.61856 11.3474C9.56676 11.397 9.49771 11.4248 9.42587 11.4248H8.55202C8.48003 11.4248 8.41086 11.3969 8.35903 11.3471C8.3072 11.2973 8.27676 11.2294 8.2741 11.1576L8.09163 6.288C8.09022 6.25071 8.09637 6.21352 8.1097 6.17866C8.12302 6.14379 8.14327 6.11196 8.16921 6.08508C8.19515 6.05819 8.22627 6.0368 8.26069 6.02218C8.29511 6.00757 8.33214 6.00002 8.36955 6H9.61917C9.6566 6.00001 9.69365 6.00756 9.72808 6.0222C9.76251 6.03685 9.79363 6.05828 9.81955 6.08522C9.84547 6.11215 9.86566 6.14404 9.87892 6.17895C9.89217 6.21387 9.89822 6.2511 9.89669 6.2884Z" fill="url(#paint2_radial_30_1226)"/>
<defs>
<linearGradient id="paint0_linear_30_1226" x1="3.59845" y1="0.396809" x2="10.3654" y2="19.0364" gradientUnits="userSpaceOnUse">
<stop stop-color="#6D6D6D"/>
<stop offset="0.126" stop-color="#626262"/>
<stop offset="0.987" stop-color="#464646"/>
<stop offset="0.998" stop-color="#454545"/>
</linearGradient>
<linearGradient id="paint1_linear_30_1226" x1="6.327" y1="0.482424" x2="9.40742" y2="17.5507" gradientUnits="userSpaceOnUse">
<stop stop-color="#FFDA1C"/>
<stop offset="1" stop-color="#FEB705"/>
</linearGradient>
<radialGradient id="paint2_radial_30_1226" cx="0" cy="0" r="1" gradientUnits="userSpaceOnUse" gradientTransform="translate(6.66835 5.9124) scale(8.96831 8.94519)">
<stop stop-color="#4B4B4B"/>
<stop offset="0.531" stop-color="#393939"/>
<stop offset="1" stop-color="#252525"/>
</radialGradient>
</defs>
</svg>
