<svg width="18" height="18" viewBox="0 0 18 18" fill="none" xmlns="http://www.w3.org/2000/svg">
<path d="M16.5 9C16.5 13.1419 13.1419 16.5 9 16.5C4.85813 16.5 1.5 13.1419 1.5 9C1.5 4.85813 4.85813 1.5 9 1.5C13.1419 1.5 16.5 4.85813 16.5 9Z" fill="url(#paint0_linear_1477_7894)"/>
<path d="M9.00526 12.75C8.73076 12.75 8.50426 12.6668 8.32576 12.5003C8.14726 12.3338 8.05801 12.1324 8.05801 11.8954C8.05801 11.6483 8.14801 11.4458 8.32839 11.2879C8.50839 11.13 8.73414 11.0512 9.00526 11.0512C9.27976 11.0512 9.50476 11.1311 9.67951 11.2905C9.85464 11.4503 9.94201 11.6516 9.94201 11.8954C9.94201 12.1425 9.85539 12.3465 9.68214 12.5078C9.50889 12.669 9.28314 12.75 9.00526 12.75ZM9.83851 5.52037L9.65814 10.086C9.65251 10.2255 9.53776 10.3358 9.39826 10.3358H8.58114C8.44126 10.3358 8.32651 10.2251 8.32126 10.0852L8.15064 5.52C8.14501 5.37263 8.26314 5.25 8.41051 5.25H9.57901C9.72639 5.25 9.84451 5.37262 9.83851 5.52037Z" fill="url(#paint1_radial_1477_7894)"/>
<defs>
<linearGradient id="paint0_linear_1477_7894" x1="3.69675" y1="3.69675" x2="14.3033" y2="14.3033" gradientUnits="userSpaceOnUse">
<stop stop-color="#FFDA1C"/>
<stop offset="1" stop-color="#FEB705"/>
</linearGradient>
<radialGradient id="paint1_radial_1477_7894" cx="0" cy="0" r="1" gradientUnits="userSpaceOnUse" gradientTransform="translate(6.82089 5.16788) scale(8.38612 8.38613)">
<stop stop-color="#4B4B4B"/>
<stop offset="0.531" stop-color="#393939"/>
<stop offset="1" stop-color="#252525"/>
</radialGradient>
</defs>
</svg>
