<svg width="26" height="26" viewBox="0 0 26 26" fill="none" xmlns="http://www.w3.org/2000/svg">
<path d="M23.8332 13.0003C23.8332 18.983 18.9825 23.8337 12.9998 23.8337C7.01713 23.8337 2.1665 18.983 2.1665 13.0003C2.1665 7.01762 7.01713 2.16699 12.9998 2.16699C18.9825 2.16699 23.8332 7.01762 23.8332 13.0003Z" fill="url(#paint0_linear_949_985)"/>
<path d="M13.0074 18.4163C12.6109 18.4163 12.2837 18.2961 12.0259 18.0556C11.7681 17.8151 11.6392 17.5242 11.6392 17.1819C11.6392 16.8249 11.7692 16.5324 12.0297 16.3044C12.2897 16.0763 12.6158 15.9626 13.0074 15.9626C13.4039 15.9626 13.7289 16.078 13.9813 16.3082C14.2343 16.5389 14.3605 16.8298 14.3605 17.1819C14.3605 17.5388 14.2354 17.8335 13.9851 18.0664C13.7349 18.2993 13.4088 18.4163 13.0074 18.4163ZM14.211 7.97355L13.9505 14.5683C13.9423 14.7698 13.7766 14.9291 13.5751 14.9291H12.3948C12.1927 14.9291 12.027 14.7693 12.0194 14.5673L11.773 7.97301C11.7648 7.76013 11.9355 7.58301 12.1483 7.58301H13.8362C14.049 7.58301 14.2197 7.76013 14.211 7.97355Z" fill="url(#paint1_radial_949_985)"/>
<defs>
<linearGradient id="paint0_linear_949_985" x1="5.33959" y1="5.34008" x2="20.6601" y2="20.6606" gradientUnits="userSpaceOnUse">
<stop stop-color="#FFDA1C"/>
<stop offset="1" stop-color="#FEB705"/>
</linearGradient>
<radialGradient id="paint1_radial_949_985" cx="0" cy="0" r="1" gradientUnits="userSpaceOnUse" gradientTransform="translate(9.8522 7.46438) scale(12.1133 12.1133)">
<stop stop-color="#4B4B4B"/>
<stop offset="0.531" stop-color="#393939"/>
<stop offset="1" stop-color="#252525"/>
</radialGradient>
</defs>
</svg>
