<svg width="30" height="24" viewBox="0 0 30 24" fill="none" xmlns="http://www.w3.org/2000/svg">
<path d="M10.8218 0C4.86982 0 0 4 0 9C0 11.8667 1.55564 14.3333 4.05818 16L2.70545 20L6.96655 17.4C8.11636 17.8 9.46909 18 10.8218 18C16.7738 18 21.6436 14 21.6436 9C21.6436 4 16.7738 0 10.8218 0Z" fill="#8BC34A"/>
<path d="M12.1745 15.3333C12.1745 11.2667 16.0975 8 20.9673 8C21.1702 8 21.3731 8 21.576 8C21.5084 7.53333 21.3731 7.06667 21.2378 6.66667C21.1702 6.66667 21.0349 6.66667 20.9673 6.66667C15.3535 6.66667 10.8218 10.5333 10.8218 15.3333C10.8218 16.2667 11.0247 17.1333 11.2953 18C11.7687 18 12.2422 17.9333 12.7156 17.8667C12.3775 17.0667 12.1745 16.2 12.1745 15.3333Z" fill="#7CB342"/>
<path d="M29.76 15.3333C29.76 11.2667 25.8371 8 20.9673 8C16.0975 8 12.1745 11.2667 12.1745 15.3333C12.1745 19.4 16.0975 22.6667 20.9673 22.6667C22.1847 22.6667 23.3345 22.4667 24.3491 22.1333L27.7309 24L26.784 20.8C28.6102 19.4667 29.76 17.5333 29.76 15.3333Z" fill="#CFD8DC"/>
<path d="M8.11636 6C8.11636 6.73333 7.50764 7.33333 6.76364 7.33333C6.01964 7.33333 5.41091 6.73333 5.41091 6C5.41091 5.26667 6.01964 4.66667 6.76364 4.66667C7.50764 4.66667 8.11636 5.26667 8.11636 6ZM14.88 4.66667C14.136 4.66667 13.5273 5.26667 13.5273 6C13.5273 6.73333 14.136 7.33333 14.88 7.33333C15.624 7.33333 16.2327 6.73333 16.2327 6C16.2327 5.26667 15.624 4.66667 14.88 4.66667Z" fill="#33691E"/>
<path d="M18.9382 13.6667C18.9382 14.2 18.4647 14.6667 17.9236 14.6667C17.3825 14.6667 16.9091 14.2 16.9091 13.6667C16.9091 13.1333 17.3825 12.6667 17.9236 12.6667C18.4647 12.6667 18.9382 13.1333 18.9382 13.6667ZM24.0109 12.6667C23.4698 12.6667 22.9964 13.1333 22.9964 13.6667C22.9964 14.2 23.4698 14.6667 24.0109 14.6667C24.552 14.6667 25.0255 14.2 25.0255 13.6667C25.0255 13.1333 24.552 12.6667 24.0109 12.6667Z" fill="#546E7A"/>
</svg>
