<svg width="22" height="22" viewBox="0 0 22 22" fill="none" xmlns="http://www.w3.org/2000/svg">
<path d="M11 0C4.93475 0 7.09849e-05 4.9347 7.09849e-05 11C7.09849e-05 12.8939 0.48933 14.7563 1.41715 16.3996L0.0177666 21.3926C-0.0281463 21.5567 0.0163318 21.7327 0.13494 21.8546C0.226288 21.9488 0.350635 22 0.47833 22C0.516591 22 0.55533 21.9952 0.593113 21.9861L5.80423 20.6953C7.39539 21.5495 9.18743 22 11 22C17.0653 22 22 17.0653 22 11C22 4.9347 17.0653 0 11 0ZM16.5335 14.8816C16.2982 15.533 15.1695 16.1274 14.6272 16.2073C14.1403 16.2786 13.5243 16.3092 12.848 16.0968C12.4382 15.9677 11.9121 15.7965 11.2382 15.509C8.40548 14.301 6.55557 11.4845 6.41401 11.2984C6.27292 11.1124 5.26092 9.78665 5.26092 8.41452C5.26092 7.04239 5.99027 6.36757 6.24949 6.08826C6.5087 5.80896 6.81431 5.73913 7.00274 5.73913C7.19118 5.73913 7.37913 5.74152 7.54413 5.74917C7.71774 5.75778 7.95065 5.68365 8.17974 6.22791C8.41504 6.78652 8.97987 8.15865 9.04969 8.29878C9.12048 8.43843 9.16735 8.60152 9.07361 8.78757C8.97987 8.97361 8.933 9.08983 8.79143 9.25291C8.64987 9.416 8.49491 9.61639 8.3677 9.7417C8.22613 9.88087 8.07931 10.0315 8.24383 10.3108C8.40835 10.5901 8.97509 11.5031 9.81491 12.2425C10.8934 13.1923 11.8035 13.487 12.0857 13.6266C12.3679 13.7663 12.5329 13.7428 12.6974 13.5568C12.8619 13.3703 13.4033 12.7423 13.5912 12.4635C13.7792 12.1847 13.9676 12.2306 14.2269 12.3238C14.4861 12.4166 15.8745 13.091 16.1566 13.2306C16.4388 13.3703 16.6272 13.4401 16.698 13.5563C16.7688 13.672 16.7688 14.2307 16.5335 14.8816Z" fill="#08AF5E"/>
</svg>
