<svg width="25" height="17" viewBox="0 0 25 17" fill="none" xmlns="http://www.w3.org/2000/svg">
<path d="M24.4389 14.11C24.1895 15.3 23.1297 16.2067 21.8204 16.3767C19.7631 16.66 16.3342 17 12.4688 17C8.66584 17 5.23691 16.66 3.11721 16.3767C1.80798 16.2067 0.74813 15.3 0.498753 14.11C0.249377 12.8067 0 10.88 0 8.5C0 6.12 0.249377 4.19333 0.498753 2.89C0.74813 1.7 1.80798 0.793334 3.11721 0.623334C5.17456 0.34 8.60349 0 12.4688 0C16.3342 0 19.7007 0.34 21.8204 0.623334C23.1297 0.793334 24.1895 1.7 24.4389 2.89C24.6883 4.19333 25 6.12 25 8.5C24.9377 10.88 24.6883 12.8067 24.4389 14.11Z" fill="#FF3D00"/>
<path d="M9.97506 12.4667V4.53333L17.4564 8.5L9.97506 12.4667Z" fill="white"/>
</svg>
