<svg width="25" height="23" viewBox="0 0 25 23" fill="none" xmlns="http://www.w3.org/2000/svg">
<path d="M11.6769 0C10.7706 0 9.82143 0.911649 9.82143 1.83986H2.67857H0.892857C0.399107 1.83986 0 2.25106 0 2.75978C0 3.2685 0.399107 3.67971 0.892857 3.67971H1.78571V16.7258C1.78571 17.6457 2.51751 18.3986 3.43715 18.3986H5.56292L6.28488 17.1642L5.56466 18.4004L3.69873 21.6057C3.44516 22.0418 3.58069 22.6076 4.00391 22.8688C4.14766 22.9581 4.30804 23 4.46429 23C4.76786 23 5.06288 22.8414 5.22984 22.5544L7.64858 18.4004L7.81599 18.1129L7.65206 18.3986H17.3479L17.1143 17.9907L17.3514 18.3986L19.7702 22.5526C19.938 22.8406 20.233 22.9982 20.5357 22.9982C20.692 22.9982 20.8506 22.9563 20.9944 22.867C21.4176 22.6058 21.5548 22.0418 21.3013 21.6057L19.4336 18.3986L18.6977 17.1355L19.4371 18.3986H21.5628C22.4736 18.3986 23.2143 17.6457 23.2143 16.7258V3.67971H24.1071C24.6009 3.67971 25 3.2685 25 2.75978C25 2.25106 24.6 1.83986 24.1071 1.83986H22.3214H15.1786C15.1786 0.911649 14.2311 0 13.3248 0H11.6769ZM17.8571 6.4395C18.3482 6.4395 18.75 6.85346 18.75 7.35943V13.7989C18.75 14.3049 18.3482 14.7189 17.8571 14.7189C17.3661 14.7189 16.9643 14.3049 16.9643 13.7989V7.35943C16.9643 6.85346 17.3661 6.4395 17.8571 6.4395ZM10.7143 7.35943C11.2054 7.35943 11.6071 7.77339 11.6071 8.27935V13.7989C11.6071 14.3049 11.2054 14.7189 10.7143 14.7189C10.2232 14.7189 9.82143 14.3049 9.82143 13.7989V8.27935C9.82143 7.77339 10.2232 7.35943 10.7143 7.35943ZM14.2857 8.27935C14.7768 8.27935 15.1786 8.69332 15.1786 9.19928V13.7989C15.1786 14.3049 14.7768 14.7189 14.2857 14.7189C13.7946 14.7189 13.3929 14.3049 13.3929 13.7989V9.19928C13.3929 8.69332 13.7946 8.27935 14.2857 8.27935ZM7.14286 11.0391C7.63393 11.0391 8.03571 11.4531 8.03571 11.9591V13.7989C8.03571 14.3049 7.63393 14.7189 7.14286 14.7189C6.65179 14.7189 6.25 14.3049 6.25 13.7989V11.9591C6.25 11.4531 6.65179 11.0391 7.14286 11.0391ZM7.33991 16.5946C7.42804 16.6155 7.51632 16.6379 7.598 16.6881L7.60149 16.6917C7.51843 16.6402 7.42943 16.6158 7.33991 16.5946ZM17.6409 16.6018C17.5585 16.6233 17.4753 16.6444 17.3985 16.6917L17.402 16.6881C17.4776 16.6417 17.5596 16.6231 17.6409 16.6018ZM8.00956 17.2558C8.03776 17.3709 8.04357 17.491 8.02699 17.6098C8.04323 17.4913 8.03724 17.3701 8.00956 17.2558Z" fill="#5E868D"/>
</svg>
