<svg width="27" height="26" viewBox="0 0 27 26" fill="none" xmlns="http://www.w3.org/2000/svg">
<path d="M3.11538 0C1.39725 0 0 1.39932 0 3.12V5.35844C0.827135 4.61536 1.917 4.16 3.11538 4.16H18.6923C19.8907 4.16 20.9806 4.61536 21.8077 5.35844V3.12C21.8077 1.39932 20.4104 0 18.6923 0H3.11538ZM3.11538 5.72C1.39673 5.72 0 7.1188 0 8.84V17.68C0 19.4012 1.39673 20.8 3.11538 20.8H15.0577C15.0577 17.0716 18.0848 14.04 21.8077 14.04V8.84C21.8077 7.1188 20.411 5.72 18.6923 5.72H3.11538ZM10.9049 8.84101C11.0832 8.84101 11.2615 8.93896 11.3389 9.13656L12.1928 11.3252L14.5354 11.4634C14.9586 11.4878 15.1308 12.0207 14.8031 12.2901L12.9889 13.78L13.5821 16.054C13.6891 16.4648 13.2376 16.7936 12.8804 16.5648L10.9038 15.2973L8.92935 16.5648C8.57212 16.7942 8.12062 16.4648 8.22758 16.054L8.81982 13.78L7.00556 12.2901C6.6774 12.0207 6.85113 11.4883 7.2743 11.4634L9.61591 11.3252L10.4708 9.13656C10.5479 8.93896 10.7266 8.84101 10.9049 8.84101ZM21.8077 15.6C18.9415 15.6 16.6154 17.9296 16.6154 20.8C16.6154 23.6704 18.9415 26 21.8077 26C24.6738 26 27 23.6704 27 20.8C27 17.9296 24.6738 15.6 21.8077 15.6ZM21.4183 17.68C21.8492 17.68 22.1971 18.0284 22.1971 18.46V20.8L23.4435 21.7364C23.7862 21.9964 23.8582 22.485 23.5986 22.8282C23.4481 23.031 23.2148 23.14 22.976 23.14C22.815 23.14 22.6486 23.0876 22.5085 22.9836L20.9508 21.8136C20.7535 21.668 20.6394 21.4344 20.6394 21.19V18.46C20.6394 18.0284 20.9873 17.68 21.4183 17.68Z" fill="#5E868D"/>
</svg>
