<svg width="22" height="21" viewBox="0 0 22 21" fill="none" xmlns="http://www.w3.org/2000/svg">
<path d="M1.62963 0C0.729667 0 0 0.723288 0 1.61538V15.3462C0 16.2382 0.729667 16.9615 1.62963 16.9615H12.5437L12.2222 21L17.0562 16.9615H20.3704C21.2703 16.9615 22 16.2382 22 15.3462V1.61538C22 0.723288 21.2703 0 20.3704 0H1.62963ZM11 2.82692C11.9 2.82692 12.6296 3.55021 12.6296 4.44231C12.6296 5.3344 11.9 6.05769 11 6.05769C10.1 6.05769 9.37037 5.3344 9.37037 4.44231C9.37037 3.55021 10.1 2.82692 11 2.82692ZM10.5926 7.67308H12.2222V13.3269H9.77778V8.48077L10.5926 7.67308Z" fill="#5E868D"/>
</svg>
