<svg width="24" height="22" viewBox="0 0 24 22" fill="none" xmlns="http://www.w3.org/2000/svg">
<path d="M19.4784 0H4.52164C2.03005 0 0 2.1036 0 4.68546V17.3145C0 19.8964 2.03005 22 4.52164 22H19.4784C21.97 22 24 19.8964 24 17.3145V4.68546C24 2.1036 21.97 0 19.4784 0ZM10.1538 12.4348V9.56522H13.8462V12.4348H10.1538ZM13.8462 15.3043V18.1739H10.1538V15.3043H13.8462ZM10.1538 6.69565V3.82609H13.8462V6.69565H10.1538ZM3.69231 4.78261C3.69231 4.2072 4.0601 3.82609 4.61538 3.82609H7.38462V6.69565H4.61538C4.0601 6.69565 3.69231 6.31454 3.69231 5.73913V4.78261ZM3.69231 10.5217C3.69231 9.94633 4.0601 9.56522 4.61538 9.56522H7.38462V12.4348H4.61538C4.0601 12.4348 3.69231 12.0537 3.69231 11.4783V10.5217ZM3.69231 17.2174V16.2609C3.69231 15.6855 4.0601 15.3043 4.61538 15.3043H7.38462V18.1739H4.61538C4.0601 18.1739 3.69231 17.7928 3.69231 17.2174ZM20.3077 17.2174C20.3077 17.7928 19.9399 18.1739 19.3846 18.1739H16.6154V15.3043H19.3846C19.9399 15.3043 20.3077 15.6855 20.3077 16.2609V17.2174ZM20.3077 11.4783C20.3077 12.0537 19.9399 12.4348 19.3846 12.4348H16.6154V9.56522H19.3846C19.9399 9.56522 20.3077 9.94633 20.3077 10.5217V11.4783ZM20.3077 5.73913C20.3077 6.31454 19.9399 6.69565 19.3846 6.69565H16.6154V3.82609H19.3846C19.9399 3.82609 20.3077 4.2072 20.3077 4.78261V5.73913Z" fill="#5E868D"/>
</svg>
