<svg width="25" height="20" viewBox="0 0 25 20" fill="none" xmlns="http://www.w3.org/2000/svg">
<path d="M23.5 6.68937H17V1.5437C17 0.693459 16.3262 0 15.5 0H9.5C8.67383 0 8 0.693459 8 1.5437V4.6311H1.5C0.673828 4.6311 0 5.32456 0 6.17481V19.4854C0 19.7688 0.224609 20 0.5 20H24.5C24.7773 20 25 19.7688 25 19.4854V8.23307C25 7.38283 24.3262 6.68937 23.5 6.68937ZM6 11.3205H3.5C3.5 11.1155 3.5 10.9607 3.55078 10.8059C3.59961 10.6511 3.65039 10.4964 3.69922 10.3436C3.75 10.1888 3.84961 10.0341 4 9.93155C4.09961 9.77678 4.25 9.67426 4.40039 9.51949L4.75 9.20995C4.84961 9.10744 4.90039 9.05517 4.94922 9.00492C5 8.95467 5.05078 8.85015 5.09961 8.7999C5.15039 8.74764 5.15039 8.64513 5.15039 8.59287C5.15039 8.49036 5.15039 8.44011 5.15039 8.28533C5.15039 7.92554 5 7.77077 4.75 7.77077C4.65039 7.77077 4.55078 7.77077 4.5 7.82102C4.44922 7.87328 4.40039 7.92554 4.34961 7.97579C4.30078 8.02805 4.30078 8.13056 4.30078 8.23307C4.30078 8.33559 4.30078 8.44011 4.30078 8.54262H3.5V8.38785C3.5 7.97579 3.59961 7.71851 3.80078 7.51348C4 7.30645 4.30078 7.20394 4.75 7.20394C5.15039 7.20394 5.44922 7.30645 5.65039 7.51348C5.84961 7.71851 5.94922 7.97579 5.94922 8.33559C5.94922 8.49036 5.94922 8.59287 5.90039 8.69739C5.90039 8.7999 5.84961 8.90241 5.80078 9.00492C5.75 9.10945 5.69922 9.21196 5.59961 9.31447C5.5 9.41698 5.40039 9.51949 5.30078 9.62401L4.84961 10.0863C4.75 10.1888 4.65039 10.2913 4.55078 10.3939C4.55078 10.4964 4.5 10.6009 4.5 10.6511H6V11.3205ZM13 6.68937H12.1992V3.80699H11.4004V3.24218H11.4492C11.6992 3.24218 11.9492 3.18991 12.0996 3.0874C12.25 2.98489 12.3496 2.83012 12.4004 2.57284H13V6.68937ZM21.5 12.6592C21.4492 12.8139 21.4004 12.9164 21.3008 13.0712C21.1992 13.1737 21.0508 13.2762 20.9004 13.3787C20.75 13.431 20.5 13.4813 20.25 13.4813C19.8496 13.4813 19.5508 13.3787 19.4004 13.1717C19.2012 12.9667 19.0996 12.6571 19.0996 12.2471H19.9004C19.8008 12.3999 19.8496 12.5546 19.9004 12.7094C19.9512 12.8119 20.0996 12.9144 20.25 12.9144C20.3496 12.9144 20.4492 12.9144 20.5 12.8622C20.5508 12.8119 20.5996 12.7597 20.6504 12.7094C20.6992 12.6592 20.6992 12.5546 20.6992 12.5044C20.6992 12.4019 20.6992 12.3496 20.6992 12.2471C20.6992 12.1446 20.6992 12.0421 20.6992 11.9898C20.6992 11.8873 20.6504 11.835 20.5996 11.7848C20.5508 11.7325 20.5 11.6803 20.4492 11.63C20.4004 11.5778 20.2988 11.5778 20.1992 11.5778H19.9492V11.0109H20.1992C20.2988 11.0109 20.3496 11.0109 20.4004 10.9607C20.4492 10.9084 20.5 10.8562 20.5488 10.8059C20.5996 10.7536 20.5996 10.7034 20.6504 10.5989C20.6504 10.4964 20.6992 10.4461 20.6992 10.3416C20.6992 10.1366 20.6504 9.9818 20.5996 9.93155C20.5488 9.82703 20.4492 9.82703 20.2988 9.82703C20.1992 9.82703 20.1504 9.82703 20.0996 9.87929C20.0488 9.93155 20 9.9818 19.9492 10.0341C19.9004 10.0863 19.9004 10.1888 19.9004 10.2391C19.9004 10.3416 19.9004 10.3939 19.9004 10.4964H19.1504C19.1504 10.0843 19.25 9.77678 19.4512 9.56974C19.6504 9.36472 19.9492 9.26221 20.3008 9.26221C20.6504 9.26221 20.9512 9.36472 21.1504 9.51949C21.3496 9.67426 21.4512 9.93155 21.4512 10.3436C21.4512 10.6009 21.4004 10.8059 21.3008 10.9607C21.1992 11.1155 21.0508 11.218 20.8496 11.2682C21.0996 11.3205 21.2988 11.423 21.4004 11.5778C21.5 11.7325 21.5508 11.9898 21.5508 12.2471C21.5508 12.4019 21.5508 12.5044 21.5 12.6592Z" fill="#5E868D"/>
</svg>
