<svg width="24" height="18" viewBox="0 0 24 18" fill="none" xmlns="http://www.w3.org/2000/svg">
<path d="M22.1538 0H1.84615C0.826154 0 0 0.8055 0 1.8V16.2C0 17.1945 0.826154 18 1.84615 18H22.1538C23.1738 18 24 17.1945 24 16.2V1.8C24 0.8055 23.1738 0 22.1538 0ZM8.77108 13.3515L8.76 13.3407C8.63169 13.4343 8.48031 13.5 8.30769 13.5C8.13508 13.5 7.98369 13.4343 7.85538 13.3407L7.84431 13.3515C6.54646 12.3588 3.69231 10.2321 3.69231 7.8543C3.69231 6.4989 4.81939 5.4 6.20954 5.4C7.53877 5.4 8.30769 6.525 8.30769 6.525C8.30769 6.525 9.07662 5.4 10.4058 5.4C11.796 5.4 12.9231 6.4989 12.9231 7.8543C12.9231 10.2321 10.0689 12.3588 8.77108 13.3515ZM16.6154 15.3C16.1058 15.3 15.6923 14.8968 15.6923 14.4C15.6923 13.9032 16.1058 13.5 16.6154 13.5C17.1249 13.5 17.5385 13.9032 17.5385 14.4C17.5385 14.8968 17.1249 15.3 16.6154 15.3ZM20.3077 15.3C19.7982 15.3 19.3846 14.8968 19.3846 14.4C19.3846 13.9032 19.7982 13.5 20.3077 13.5C20.8172 13.5 21.2308 13.9032 21.2308 14.4C21.2308 14.8968 20.8172 15.3 20.3077 15.3Z" fill="#5E868D"/>
</svg>
