<svg width="24" height="23" viewBox="0 0 24 23" fill="none" xmlns="http://www.w3.org/2000/svg">
<path d="M24 12.4871C24 11.4695 22.7854 10.477 21.1573 9.9503C21.0805 9.92522 20.6122 9.7174 20.9049 8.84312H20.9012C21.6659 8.07634 22.2476 6.833 22.2476 5.61474C22.2476 3.7336 20.9744 2.75183 19.4927 2.75183C18.011 2.75183 16.7415 3.7336 16.7415 5.61474C16.7415 6.84016 17.3232 8.0835 18.0915 8.85387C18.3915 9.62424 17.8537 9.90731 17.7439 9.9503C17.3561 10.0865 16.9829 10.2513 16.6427 10.4376C16.6427 10.1115 16.6427 9.83206 16.6427 9.73532C16.6427 8.71771 15.289 7.72519 13.661 7.19489C13.5878 7.17339 13.1195 6.96557 13.4122 6.09129H13.4085C14.1695 5.32092 14.7549 4.08117 14.7549 2.85932C14.7549 0.981773 13.478 0 11.9963 0C10.5146 0 9.24878 0.981773 9.24878 2.85932C9.24878 4.08833 9.83049 5.33167 10.5988 6.10204C10.8951 6.86883 10.361 7.15548 10.2476 7.19489C8.69634 7.74669 7.39024 8.74638 7.39024 9.73532C7.39024 9.83564 7.39024 10.1223 7.39024 10.4627C7.03902 10.2656 6.65488 10.09 6.25244 9.94672C6.13902 9.90731 5.60488 9.62066 5.90488 8.85387C6.67317 8.0835 7.25122 6.84016 7.25122 5.61116C7.25122 3.7336 5.98537 2.75183 4.50366 2.75183C3.02195 2.75183 1.74512 3.7336 1.74512 5.61116C1.74512 6.833 2.33049 8.07634 3.09512 8.84312C3.38781 9.7174 2.91951 9.92522 2.84268 9.94672C1.21463 10.4734 0 11.4695 0 12.4871C0 12.7559 0 16.9338 0 17.1989C0 17.2097 0.0036583 17.2169 0.0036583 17.2276C0.0036583 17.2455 0 17.2634 0 17.2849C0 19.8361 2.94512 22.0326 7.15976 23V21.5739C7.15976 20.4094 8.67439 19.3488 10.1707 18.8185C10.1707 18.8185 10.3317 18.754 10.4085 18.5856C10.4744 18.4459 10.4707 18.2703 10.3939 18.0625C9.5561 17.2025 9.01463 15.8875 9.01463 14.6979C9.01463 12.5624 10.5146 11.6093 12 11.6093C13.489 11.6093 14.989 12.5624 14.989 14.6979C14.989 15.8732 14.4549 17.181 13.6207 18.0446C13.4598 18.5641 13.6134 18.7719 13.7378 18.8185C15.1866 19.2879 16.8768 20.2912 16.8768 21.5739V22.9893C21.0732 22.0146 24 19.8289 24 17.2814C24 17.2634 23.9927 17.2455 23.9927 17.2276C23.9927 17.2169 24 17.2097 24 17.1989C24 16.9374 24 12.7559 24 12.4871Z" fill="#5E868D"/>
</svg>
