<svg width="24" height="18" viewBox="0 0 24 18" fill="none" xmlns="http://www.w3.org/2000/svg">
<path d="M22.1538 0H1.84615C0.826154 0 0 0.8055 0 1.8V16.2C0 17.1945 0.826154 18 1.84615 18H22.1538C23.1738 18 24 17.1945 24 16.2V1.8C24 0.8055 23.1738 0 22.1538 0ZM19.3846 9H15.6923C15.1818 9 14.7692 8.5968 14.7692 8.1C14.7692 7.6032 15.1818 7.2 15.6923 7.2H19.3846C19.8951 7.2 20.3077 7.6032 20.3077 8.1C20.3077 8.5968 19.8951 9 19.3846 9ZM19.3846 5.4H15.6923C15.1818 5.4 14.7692 4.9968 14.7692 4.5C14.7692 4.0032 15.1818 3.6 15.6923 3.6H19.3846C19.8951 3.6 20.3077 4.0032 20.3077 4.5C20.3077 4.9968 19.8951 5.4 19.3846 5.4ZM7.38462 1.8C9.92954 1.8 12 3.8187 12 6.3C12 8.7813 9.92954 10.8 7.38462 10.8C4.83969 10.8 2.76923 8.7813 2.76923 6.3C2.76923 3.8187 4.83969 1.8 7.38462 1.8ZM7.38462 9C5.85785 9 4.61538 7.7886 4.61538 6.3C4.61538 4.8114 5.85785 3.6 7.38462 3.6V6.3H10.1538C10.1538 7.7886 8.91138 9 7.38462 9ZM13.8462 15.3V13.5H20.3077C20.8172 13.5 21.2308 13.9032 21.2308 14.4C21.2308 14.8968 20.8172 15.3 20.3077 15.3H13.8462ZM12 13.5V15.3C12 15.7968 11.5874 16.2 11.0769 16.2C10.5665 16.2 10.1538 15.7968 10.1538 15.3H3.69231C3.18185 15.3 2.76923 14.8968 2.76923 14.4C2.76923 13.9032 3.18185 13.5 3.69231 13.5H10.1538C10.1538 13.0032 10.5665 12.6 11.0769 12.6C11.5874 12.6 12 13.0032 12 13.5Z" fill="#5E868D"/>
</svg>
