<svg width="23" height="22" viewBox="0 0 23 22" fill="none" xmlns="http://www.w3.org/2000/svg">
<path d="M6.6069 0C4.54539 0 2.86812 1.68734 2.86812 3.76122V5.20785H5.7441C6.06219 5.20785 6.3193 5.46708 6.3193 5.7865C6.3193 6.10591 6.06219 6.36515 5.7441 6.36515H2.86812V15.6235H12.6465C13.9153 15.6235 14.9472 16.6616 14.9472 17.9381V18.996C14.9472 19.9369 15.6295 20.739 16.501 20.8224C16.9973 20.871 17.4704 20.7132 17.8333 20.3805C18.1928 20.0524 18.3984 19.5833 18.3984 19.0954V18.8174H17.8311V18.8061H18.3984V13.3089H14.9472C14.6292 13.3089 14.3721 13.0497 14.3721 12.7303C14.3721 12.4109 14.6292 12.1516 14.9472 12.1516H18.3984V9.2584H16.0976C15.7796 9.2584 15.5224 8.99916 15.5224 8.67975C15.5224 8.36033 15.7796 8.1011 16.0976 8.1011H18.3984V6.9438V3.4719C18.3984 2.65832 18.7417 1.87875 19.3399 1.33135C19.9381 0.783944 20.7483 0.514673 21.5553 0.592212C21.5915 0.595684 21.6252 0.609056 21.6609 0.613685C21.2226 0.287905 20.7068 0.0685067 20.1442 0.0146923C20.0413 0.00485523 19.9388 0.00168176 19.8364 0.00226035V0H6.6069ZM21.4463 1.74499C20.947 1.69638 20.4769 1.85417 20.1139 2.18689C19.7544 2.51498 19.5488 2.9841 19.5488 3.4719V6.9438H21.562C22.3552 6.9438 23 6.29455 23 5.49717V5.20785V3.57136C23 2.63047 22.3177 1.82832 21.4463 1.74499ZM4.92624 16.7808L4.95096 16.7922H1.43799C0.644795 16.7922 0 17.4414 0 18.2388V18.8174C0 20.5725 1.41959 22 3.16358 22H15.8179C15.9772 22 16.135 21.9785 16.2909 21.9548C14.8862 21.7638 13.7969 20.4901 13.7969 18.996V17.9381C13.7969 17.2999 13.2809 16.7808 12.6465 16.7808H4.92624Z" fill="#5E868D"/>
</svg>
